<?xml version="1.0" encoding="utf-8"?>
<!-- Generator: Adobe Illustrator 23.0.4, SVG Export Plug-In . SVG Version: 6.00 Build 0)  -->
<svg version="1.1" id="publicdomainvectors.org" xmlns="http://www.w3.org/2000/svg" xmlns:xlink="http://www.w3.org/1999/xlink"
	 x="0px" y="0px" viewBox="0 0 660 660" style="enable-background:new 0 0 660 660;" xml:space="preserve">
<style type="text/css">
	.st0{fill-rule:evenodd;clip-rule:evenodd;fill:#FFFFFF;stroke:#000000;stroke-width:2;}
</style>
<g id="design-freepik">
  <polygon class="st0" points="-0.49,1.28 659.63,1.28 659.63,661.4 444.17,661.4 -0.49,661.4 -0.49,308.22 "/>
  <path class="st0" d="M441.22,110.58c26.53,0,48.17-21.64,48.17-48.18s-21.64-48.18-48.17-48.18c-26.53,0-48.17,21.64-48.17,48.18
    S414.68,110.58,441.22,110.58z"/>
  <path class="st0" d="M-0.49,329.03v-20.82V128.6c36.7-21.4,82.21-20.73,118.16,1.37c34.27,21.06,72.3,25.32,110.38,12.34
    c32.78-11.16,70.06-5.58,98.89,17.46L506.9,303.61L-0.49,329.03z"/>
  <path class="st0" d="M659.63,169.53v311.33L-0.49,490.95V308.22v-86.12l11.68,11.68c25.12,25.12,66.11,25.12,91.23,0l3.54-3.54
    c27.13-27.13,66.72-34.53,100.64-22.2c30.87,11.22,63.4,4,86.62-19.22l7.2-7.2c31.62-31.62,80.16-36.44,116.93-14.46
    c46.71,27.92,102.38,25.41,146.39-6.6c28.44-20.69,68.69-18.22,94.32,7.4L659.63,169.53z"/>
  <polygon class="st0" points="-0.49,367.57 659.63,367.57 659.63,661.4 444.17,661.4 -0.49,661.4 "/>
  <path class="st0" d="M659.63,261.08v106.49H139.04l47.1-47.1c19.21-19.21,48.63-22.27,71.08-9.15c15.55,9.08,34.62,6.62,47.36-6.12
    l31.48-31.48c26.52-26.52,69.7-26.65,96.38-0.38c41.22,40.58,107.79,40.33,148.7-0.58l13.99-13.99c17.13-17.13,45.08-17.13,62.21,0
    L659.63,261.08z"/>
  <path class="st0" d="M566.48,159.17c-49.46-47.49-134.94,17.38-147.79,62.11l26.91-11.31l0.45-12.96l3.55,11.28l20.64-8.68
    l-3.07-14.24l8.85,11.81l25.64-10.78l-4.83-18.86l10.37,16.53l33.31-14l-5.1-12.17l10.61,9.85L566.48,159.17z"/>
  <path class="st0" d="M552.63,156.44c-42.64-57.24-105.35-24.9-112.17,11.2l20.42-2.04l-0.61-11.44l3.65,11.14l15.67-1.56
    l-3.49-13.63l7.87,13.2l19.46-1.94l-5.23-18.29l9.43,17.87l25.28-2.52l-4.94-12.4l9.12,11.98L552.63,156.44z"/>
  <path class="st0" d="M509.13,170.67c-3.15-71.3,65.89-85.89,94-62.23l-17.11,11.33l-6.76-9.25l4.22,10.94l-13.13,8.69l-5.92-12.77
    l2.24,15.2l-16.31,10.79l-7.52-17.48l3.99,19.81l-21.18,14.02l-4.01-12.73l0.5,15.05L509.13,170.67z"/>
  <path class="st0" d="M522.95,151.15c59.59,79.37,55.03,194,38.54,315.2c17.45-0.43,34.91-0.86,52.36-1.28
    c-9.19-133.36-26.57-253.27-75.62-321.11C533.13,146.35,528.04,148.75,522.95,151.15z"/>
  <path class="st0" d="M488.26,165.05c60.5-82.03,150.28-36.27,160.26,15.25l-29.18-2.78l0.8-16.35L615,177.1l-22.38-2.13l4.89-19.5
    l-11.16,18.9l-27.8-2.64l7.34-26.16l-13.35,25.59l-36.12-3.43l6.97-17.74l-12.95,17.17L488.26,165.05z"/>
  <path class="st0" d="M255.97,367.57h403.66V661.4H444.17H-0.49v-91.61c114.63-3.4,107.31,4.41,226.25-31.94
    c34.97-10.69,146.42-11.35,121.52-32.15c-85.57-71.5,172.77-33.5,169.81-78.98C514.56,387.61,348.13,371.23,255.97,367.57z"/>
  <path class="st0" d="M339.25,367.57h11.84c54.21,0,438.52,57.59,188.7,99.03c-17.6,2.92-194.81,22.64-118.01,38.45
    c63.53,13.07-6.53,36.71-92.65,43.18c-103.43,7.77-88.42,55.13-230.93,64.49c-50.52,3.31-70.58-3.67-98.69,15.85v32.84h444.66
    h215.46V367.57H351.09C344.96,368.14,341.18,368.09,339.25,367.57z"/>
  <path class="st0" d="M330.03,661.4h114.14h215.46V524.03c-192.88,7.73-397.79,62.89-317.61,79.77
    C407.81,617.66,380.36,637.47,330.03,661.4z"/>
  <path class="st0" d="M619.29,661.4c4.03-23.22,8.69-45.7,13.98-67.28l-18.11-68.76l26.33,37.77c5.49-19.19,11.53-37.53,18.13-54.89
    v-226.8c-75.52,44.17-119.42,180.23-124.67,379.96H619.29z"/>
  <path class="st0" d="M659.63,281.41C584.1,325.58,540.21,461.65,534.96,661.4h18.26c7.5-216.66,49.03-328.76,106.42-371.8V281.41z"
    />
  <path class="st0" d="M628.99,661.4l9.56-36.31l-25.32,36.31h-4.67c-17.07-58.35-38.88-109.32-65.61-149.71l5.7-72.91l-23.11,49.01
    c-27.99-34.84-60.64-59.08-98.12-69.78l-3.41-18.18l-4.86,16.03c-13.94-3.18-28.52-4.53-43.76-3.9
    c127.33-104.8,224.71-85.33,284.22,26.39V661.4H628.99z"/>
  <path class="st0" d="M428.57,374.31c101.46-59.62,180.12-31.55,231.06,64.08v35.79C607.73,333.86,519.8,321.85,428.57,374.31z"/>
  <path class="st0" d="M536.37,661.4c-1.21-14.09-2.62-28.02-4.21-41.77l16.22-64.88l-20.79,29.69
    c-5.09-35.29-11.52-69.14-19.34-101.02l18.11-68.76l-26.33,37.77c-15.89-55.51-36.38-103.95-61.63-142.11l5.25-67.09l-21.26,45.1
    c-25.75-32.06-55.8-54.37-90.29-64.21l-3.13-16.73l-4.47,14.75c-12.83-2.93-26.25-4.17-40.27-3.59
    c215.1-177.04,337.36,31.22,321.52,442.85C582.62,661.4,559.49,661.4,536.37,661.4z"/>
  <path class="st0" d="M333.14,183.9c184.52-108.43,287.19,98.19,272.6,477.5h-16.49C596.35,182.54,468.69,105.95,333.14,183.9z"/>
  <path class="st0" d="M49.88,155.89c60.92-35.9,131.28,49.52,133.54,97.46l-24.31-17.74l2.63-13.12l-6.25,10.48l-18.65-13.61
    l6.47-13.56l-11.69,9.74l-23.17-16.91l9.33-17.78l-14.33,14.12l-30.09-21.96l8.01-11l-12.99,7.36L49.88,155.89z"/>
  <path class="st0" d="M64.42,156.44c56.39-47.3,111.64,0.05,109.9,37.91l-20.01-6.9l3.33-11.34l-6.31,10.31l-15.35-5.29l6.74-12.86
    l-11.04,11.37l-19.07-6.58l9.59-17.12l-13.71,15.7l-24.77-8.54l7.9-11.26l-12,9.85L64.42,156.44z"/>
  <path class="st0" d="M104.7,181.07C124.81,110.26,59,79.21,25.17,96.28l14.48,15.44l8.99-7.68l-6.83,9.98l11.11,11.84l8.97-11.41
    l-5.86,14.72l13.8,14.71l11.7-15.75l-8.72,18.93l17.92,19.11l7.05-11.82l-4.08,14.98L104.7,181.07z"/>
  <path class="st0" d="M95.48,158.19C43.26,201.66,15.71,267.45-0.49,343.49v-35.28v-43.08c24.03-49.79,50.95-90.7,82.35-117.81
    C86.4,150.95,90.94,154.57,95.48,158.19z"/>
  <path class="st0" d="M126.98,180.38c-28.99-68.02-87.54-76.03-127.48-57.64v39.96l20.39,2.83l-0.27-20.73l6.7,21.62l28.53,3.95
    l-1.15-28l7.31,28.85l37.06,5.14l-2.78-19.45l8.91,20.3L126.98,180.38z"/>
  <path class="st0" d="M16.44,264.96c44.75-26.36,96.42,36.37,98.08,71.58l-17.86-13.03l1.93-9.63l-4.59,7.69l-13.7-10l4.75-9.96
    l-8.58,7.16l-17.02-12.42l6.85-13.06l-10.53,10.37l-22.1-16.13l5.88-8.08l-9.54,5.41L16.44,264.96z"/>
  <path class="st0" d="M27.13,265.36c41.42-34.74,82,0.04,80.72,27.84l-14.7-5.07l2.45-8.33l-4.64,7.58l-11.27-3.89l4.95-9.44
    l-8.11,8.35l-14-4.83L69.58,265l-10.07,11.53l-18.19-6.27l5.8-8.27l-8.82,7.24L27.13,265.36z"/>
  <path class="st0" d="M56.71,283.45c14.53-51.17-32.03-74.07-57.2-62.85v1.87l9.42,10.04l6.6-5.64l-5.02,7.33l8.16,8.7l6.59-8.38
    l-4.31,10.81l10.14,10.8l8.59-11.57l-6.4,13.9l13.16,14.03l5.18-8.68l-3,11L56.71,283.45z"/>
  <path class="st0" d="M49.93,266.64c-22.29,18.55-38.45,42.65-50.42,70.53v-28.96c12.34-20.01,25.71-36.85,40.42-49.55
    C43.26,261.33,46.6,263.98,49.93,266.64z"/>
  <path class="st0" d="M73.07,282.94c-16.8-39.41-47.11-51.39-73.57-48.05v37.85l20.59,2.86l-0.84-20.56l5.37,21.19L51.84,280
    l-2.04-14.29l6.55,14.91L73.07,282.94z"/>
  <path class="st0" d="M44.08,661.4l-5.16-19.58l13.65,19.58h18.14c15.04-47.93,33.72-89.99,56.18-123.92l-5.25-67.09l21.26,45.1
    c25.75-32.06,55.8-54.37,90.29-64.21l3.14-16.73l4.47,14.75c12.83-2.93,26.25-4.17,40.27-3.59
    C148.27,336.42,50.88,374.02-0.49,515.61V661.4H44.08z"/>
  <path class="st0" d="M232.14,411.06C124.24,347.66,44.35,392.02-0.49,515.6v57.51C41.82,378.75,134.95,355.17,232.14,411.06z"/>
  <path class="st0" d="M98.52,661.4l5.72-11.5l-1.28,11.5h24.74c19.63-10.69,38.74-18.77,56.95-23.75l23.99-32.15l-8.17,28.57
    c24.14-4.26,46.37-2.47,65.7,6.66l7.97-6.27l-3.79,8.37c6.9,3.73,13.4,8.44,19.47,14.2c-23.36-142.16-129.29-126.8-257.85,4.35
    H98.52z"/>
  <path class="st0" d="M281.5,622.3c-34.39-103.69-132.6-80.19-249.53,39.1h15.53C186.11,523.82,255.33,545.79,281.5,622.3z"/>
</g>
</svg>
