<?xml version="1.0" standalone="no"?>
<!DOCTYPE svg PUBLIC "-//W3C//DTD SVG 20010904//EN"
 "http://www.w3.org/TR/2001/REC-SVG-20010904/DTD/svg10.dtd">
<svg version="1.0" xmlns="http://www.w3.org/2000/svg"
 width="300.000000pt" height="227.000000pt" viewBox="0 0 300.000000 227.000000"
 preserveAspectRatio="xMidYMid meet">
<metadata>
Created by potrace 1.10, written by Peter Selinger 2001-2011
</metadata>
<g transform="translate(0.000000,227.000000) scale(0.100000,-0.100000)"
fill="#000000" stroke="none">
<path d="M290 1135 l0 -1135 1205 0 1205 0 0 418 c0 229 0 566 1 747 0 182 0
504 0 718 l-1 387 -1205 0 -1205 0 0 -1135z m2400 750 l0 -375 -69 45 c-68 44
-246 135 -328 168 -43 17 -55 41 -34 62 6 6 13 29 17 53 5 35 4 42 -10 42 -12
0 -16 10 -16 41 0 33 -6 47 -30 69 -17 15 -30 33 -30 39 0 6 -7 11 -15 11 -8
0 -15 -4 -15 -10 0 -5 -13 -22 -30 -37 -25 -22 -30 -34 -30 -70 0 -33 -4 -43
-16 -43 -14 0 -16 -7 -11 -40 5 -38 4 -39 -22 -34 -36 7 -75 -25 -107 -87 -14
-28 -31 -52 -39 -56 -8 -3 -31 4 -50 16 -74 43 -117 22 -212 -106 -36 -50 -60
-73 -74 -73 -32 0 -84 -28 -134 -72 l-46 -41 -532 1 c-293 0 -535 1 -539 1 -5
1 -8 197 -8 436 l0 435 1190 0 1190 0 0 -375z m-509 57 c-35 -2 -66 0 -69 3
-4 3 9 20 28 38 l35 32 35 -35 35 -35 -64 -3z m59 -42 c0 -18 -7 -20 -65 -20
-58 0 -65 2 -65 20 0 18 7 20 65 20 58 0 65 -2 65 -20z m-30 -61 c0 -18 4 -28
10 -24 6 3 8 17 6 31 -4 19 0 24 15 24 15 0 19 -7 19 -34 l0 -35 -85 -3 c-82
-3 -85 -2 -85 19 0 12 -3 28 -6 37 -5 14 4 16 60 16 l66 0 0 -31z m-118 -109
c-7 -171 -15 -245 -25 -222 -9 21 -16 22 -108 22 l-98 0 -55 -67 c-47 -58 -52
-68 -35 -71 11 -2 19 -11 19 -23 0 -14 -7 -19 -27 -19 -16 0 -33 -4 -39 -8
-17 -11 -36 -51 -29 -62 8 -13 75 -13 75 0 0 6 5 10 10 10 6 0 10 -9 10 -20 0
-16 7 -20 30 -20 23 0 33 -6 42 -25 14 -31 38 -39 71 -24 18 8 30 8 46 0 16
-9 29 -8 56 3 19 8 35 19 35 24 0 14 -28 35 -38 28 -5 -3 -14 6 -20 19 -10 21
-9 25 3 25 10 0 15 11 15 35 0 28 -4 35 -20 35 -15 0 -20 -6 -19 -27 2 -24 2
-25 6 -5 2 12 9 22 14 22 14 0 11 -47 -3 -52 -26 -10 -38 4 -38 43 l0 39 65 0
65 0 0 -45 c0 -43 -2 -46 -30 -52 -17 -3 -33 -10 -37 -16 -4 -7 1 -8 13 -3 10
4 30 10 44 12 23 5 25 9 22 55 -2 28 0 49 6 49 5 0 10 -18 10 -41 1 -48 -2
-44 40 -52 21 -4 31 -3 27 3 -10 16 4 11 23 -8 18 -18 116 -37 133 -26 10 6 1
53 -14 72 -5 6 -22 12 -38 12 -22 0 -29 5 -29 20 0 16 7 20 34 20 19 0 38 5
41 10 3 6 26 10 50 10 34 0 47 5 55 19 13 25 5 30 -57 37 -26 3 -64 10 -84 16
-32 9 -38 16 -43 47 -7 45 -8 191 -1 191 16 0 299 -144 358 -182 63 -40 67
-45 67 -80 0 -37 -1 -38 -34 -38 -24 0 -39 -7 -49 -21 -13 -18 -18 -19 -37 -9
-12 6 -28 9 -36 6 -20 -8 -18 -43 4 -54 19 -11 95 -9 130 2 l22 7 0 -240 c-1
-147 -5 -241 -11 -241 -5 0 -7 11 -3 25 4 14 1 32 -6 40 -9 11 -9 22 -1 46 15
43 7 49 -9 7 -19 -51 -24 -15 -11 66 7 39 15 79 18 90 3 12 1 16 -6 12 -6 -4
-11 -22 -12 -39 -1 -31 -1 -31 -10 -7 -6 19 -8 13 -6 -28 1 -28 -2 -52 -6 -52
-15 0 -2 -54 21 -91 23 -38 21 -74 -4 -65 -8 3 -28 -8 -45 -25 -17 -16 -43
-32 -57 -35 -18 -4 -35 -19 -50 -45 -51 -88 -105 -71 -100 31 l3 55 44 -1 c31
-1 48 -7 59 -20 9 -12 13 -14 10 -4 -6 20 -68 50 -90 44 -10 -3 -18 0 -18 6 0
8 10 10 26 7 16 -3 22 -1 16 5 -5 5 -20 8 -33 6 -17 -2 -32 7 -53 30 -15 17
-34 32 -42 32 -26 0 -16 50 16 82 39 38 64 35 190 -21 49 -23 91 -41 93 -41 1
0 3 53 3 118 2 123 -7 113 -22 -23 l-7 -70 -13 45 -12 45 -1 -39 c-1 -26 -5
-36 -13 -33 -134 59 -170 67 -207 47 -12 -6 -29 -5 -49 2 -61 23 -162 -31
-162 -87 0 -14 -7 -28 -15 -31 -8 -3 -17 -14 -20 -25 -4 -11 -11 -17 -16 -14
-5 4 -9 2 -9 -3 0 -5 -10 -12 -21 -15 -16 -4 -20 -11 -16 -26 3 -12 1 -19 -4
-16 -4 3 -22 -1 -39 -10 -40 -21 -64 -6 -50 31 7 17 5 41 -7 79 -22 70 -34 72
-17 3 17 -65 3 -88 -28 -45 -11 15 -26 27 -34 27 -8 0 -14 4 -14 9 0 5 -7 17
-16 25 -14 15 -13 17 8 25 13 5 40 16 60 25 41 18 40 20 51 -54 3 -14 5 -4 6
23 1 38 4 47 19 47 26 0 46 -45 26 -60 -11 -10 -14 -9 -14 6 0 28 -17 4 -25
-36 l-6 -35 26 33 c30 37 63 42 90 12 21 -24 45 -11 44 24 0 20 -1 20 -8 1 -7
-17 -12 -12 -35 33 -15 30 -29 52 -31 50 -7 -6 18 -68 27 -68 4 0 8 -5 8 -10
0 -7 -6 -7 -20 0 -11 6 -20 7 -20 3 0 -4 -9 7 -20 25 -14 22 -27 32 -45 32
-17 0 -25 6 -26 18 -1 13 -2 13 -5 2 -3 -8 -34 -27 -69 -43 -62 -26 -67 -27
-96 -12 -32 17 -62 13 -90 -11 -25 -22 -265 -19 -306 4 -12 7 -36 11 -52 10
-33 -2 -71 25 -71 51 0 9 -7 27 -16 39 -14 20 -24 23 -63 20 l-46 -2 -3 38
c-2 22 -1 50 3 64 6 25 6 25 20 5 13 -19 88 -44 213 -74 29 -6 33 -5 29 10 -4
15 3 17 44 17 45 -1 49 -3 50 -26 2 -24 2 -24 6 2 4 25 7 27 25 17 11 -6 38
-9 59 -7 32 3 39 0 39 -14 0 -10 -6 -18 -12 -18 -9 0 -8 -4 2 -10 8 -5 35 -9
60 -8 l45 1 -42 4 c-36 4 -43 8 -43 26 0 16 3 18 12 9 14 -14 77 -16 98 -2 12
7 16 3 21 -18 7 -27 7 -27 8 -2 1 24 4 25 58 23 l58 -1 -50 7 c-27 4 -54 9
-60 11 -5 2 -23 -2 -38 -8 -41 -17 -74 -15 -97 8 -11 11 -22 15 -25 10 -9 -15
-66 -12 -96 4 -16 8 -32 10 -40 5 -24 -15 -57 -10 -72 12 -13 18 -19 19 -48
10 -28 -9 -29 -10 -6 -7 23 3 27 0 27 -20 0 -19 -4 -23 -22 -20 -13 3 -29 5
-36 5 -8 1 -13 11 -12 24 4 39 0 45 -19 40 -10 -3 -31 3 -45 12 l-26 17 0 -31
c0 -35 0 -35 -35 -19 -32 14 -33 38 -1 38 13 0 26 4 28 9 2 6 14 12 28 15 14
3 42 9 62 14 31 8 36 7 31 -6 -8 -18 22 -42 53 -42 14 0 25 -8 29 -20 6 -18
12 -20 43 -14 20 4 39 8 41 10 2 2 13 -4 23 -13 13 -12 22 -13 29 -6 6 6 28 9
50 6 21 -3 52 0 68 7 26 10 29 15 19 35 -10 22 -46 45 -72 45 -8 0 -19 6 -25
14 -19 23 -51 26 -70 7 -9 -9 -22 -16 -28 -14 -6 2 -14 -1 -17 -6 -4 -6 -20
-8 -37 -4 -25 5 -31 2 -36 -16 -4 -17 -10 -20 -27 -15 -39 12 -38 21 12 81 64
76 117 118 167 132 51 13 61 22 118 97 51 68 101 114 123 114 8 0 33 -9 55
-21 60 -30 78 -23 117 46 40 72 46 76 97 73 l39 -3 -2 -55z m148 9 c0 -22 -3
-39 -8 -37 -43 19 -122 64 -122 70 0 4 29 8 65 8 l65 0 0 -41z m-58 -23 c57
-29 68 -47 68 -108 0 -15 -3 -17 -19 -8 -13 7 -21 23 -23 48 -3 42 -31 53 -36
14 -2 -13 -9 -21 -15 -19 -42 17 -48 16 -19 -4 27 -17 32 -27 28 -45 -6 -21
-3 -24 23 -24 16 0 31 5 33 12 9 25 28 -5 28 -44 l0 -40 -66 37 c-37 20 -68
34 -71 31 -2 -2 26 -21 64 -42 37 -20 70 -39 71 -40 2 -1 6 -36 9 -77 5 -71 5
-74 -18 -82 -22 -7 -20 -9 14 -12 24 -3 37 -9 37 -19 0 -21 -33 -17 -64 7 -21
17 -26 29 -26 65 l0 44 28 -16 c24 -16 24 -14 -6 14 -18 18 -41 32 -50 32 -10
0 -28 7 -40 16 -12 8 -22 10 -22 5 0 -6 5 -11 10 -11 6 0 10 -12 10 -27 l-1
-28 -18 35 c-15 28 -18 50 -15 115 8 134 15 206 22 203 4 -2 32 -16 64 -32z
m18 -81 c0 -21 5 -35 13 -35 8 0 7 -4 -3 -10 -26 -17 -30 -11 -30 35 0 25 5
45 10 45 6 0 10 -16 10 -35z m-120 -175 l30 -60 -79 0 c-79 0 -79 0 -99 33
-11 19 -27 46 -37 60 l-17 27 86 0 86 0 30 -60z m-246 -9 c-34 -45 -54 -62
-54 -45 0 9 83 104 87 100 3 -2 -12 -27 -33 -55z m79 -11 c16 -28 32 -50 38
-50 10 0 12 -40 3 -64 -3 -9 -12 -16 -20 -16 -9 0 -14 -11 -14 -29 0 -27 -3
-29 -32 -27 -18 2 -45 4 -60 5 -28 1 -28 2 -28 66 0 60 3 70 37 115 21 28 40
50 43 50 3 0 18 -23 33 -50z m385 31 c12 -7 42 -56 42 -67 0 -2 -16 -4 -35 -4
-34 0 -35 1 -35 40 0 41 5 46 28 31z m104 -21 c27 0 38 -4 36 -12 -3 -8 -23
-13 -54 -13 -40 0 -49 3 -52 19 -3 14 0 17 13 12 9 -3 35 -6 57 -6z m-212 -80
c0 -57 -1 -60 -25 -60 -24 0 -25 3 -25 60 0 57 1 60 25 60 24 0 25 -3 25 -60z
m500 15 c0 -20 -5 -25 -24 -25 -26 0 -51 24 -41 40 3 5 19 10 36 10 24 0 29
-4 29 -25z m-85 -19 c11 -1 20 -5 20 -11 0 -5 -9 -9 -20 -7 -11 1 -30 2 -42 2
-24 0 -38 14 -28 30 4 7 14 6 28 -2 12 -6 31 -12 42 -12z m-1236 4 c10 0 7 -7
-9 -25 -28 -30 -40 -32 -40 -5 0 11 -5 20 -11 20 -6 0 -8 -7 -5 -17 7 -18 -9
-33 -36 -33 -25 0 -22 19 5 30 22 9 22 9 -3 9 -14 0 -34 -7 -45 -16 -16 -13
-17 -15 -2 -10 11 4 17 1 17 -9 0 -11 -6 -14 -16 -10 -8 3 -12 2 -9 -4 3 -6 1
-10 -4 -10 -6 0 -11 9 -11 20 0 23 -15 27 -23 7 -6 -15 -116 -16 -150 -2 -10
4 -29 3 -43 -4 -18 -8 -31 -8 -45 -1 -11 6 -19 7 -19 1 0 -15 22 -18 117 -15
77 2 92 0 98 -14 3 -9 -1 -19 -10 -24 -9 -6 -15 -23 -15 -48 0 -28 -7 -47 -25
-66 -45 -48 -45 -94 -1 -94 12 0 27 -5 32 -10 6 -6 39 -12 75 -14 35 -1 74 -8
86 -15 12 -6 35 -10 50 -9 15 1 38 -4 50 -10 11 -6 38 -12 60 -12 35 -1 123
-6 149 -9 7 0 11 -9 10 -18 -1 -14 8 -19 38 -21 24 -2 52 -13 69 -28 33 -28
70 -39 94 -29 27 11 93 13 99 4 3 -5 9 -7 14 -4 5 3 12 0 16 -6 4 -8 3 -9 -4
-5 -7 4 -12 3 -12 -2 0 -5 -10 -8 -22 -8 -14 1 -23 -5 -23 -14 0 -8 10 -16 23
-18 15 -2 22 2 22 13 0 14 2 14 24 0 17 -11 30 -13 48 -6 27 10 78 4 78 -10 0
-5 5 -9 10 -9 6 0 0 14 -12 31 -23 30 -23 31 -4 45 24 17 38 6 40 -33 2 -47
13 -55 46 -38 37 19 54 19 71 -1 11 -14 9 -19 -11 -35 -53 -42 -81 -52 -106
-38 -28 15 -31 34 -7 48 10 5 14 13 10 17 -4 4 -17 -2 -29 -14 -18 -18 -19
-23 -8 -37 21 -25 -28 -68 -106 -94 -77 -25 -115 -26 -155 -5 -17 8 -36 13
-42 11 -6 -2 10 -12 36 -22 34 -13 62 -16 102 -12 57 6 150 49 168 79 8 12 19
15 39 11 18 -3 37 1 54 12 17 11 29 13 33 7 15 -24 59 -31 125 -20 60 10 68 9
80 -7 10 -14 20 -16 42 -11 16 4 40 9 54 10 59 6 81 43 43 72 -16 12 -15 14
12 15 17 1 41 1 53 0 13 -1 29 2 35 7 7 5 22 12 35 15 l22 5 0 -409 0 -409
-1190 0 -1190 0 0 340 c0 387 -9 358 85 281 27 -23 56 -41 64 -41 7 0 -4 12
-25 26 -21 14 -50 36 -64 49 -14 12 -33 25 -42 28 -21 7 -24 27 -5 27 7 0 76
-20 153 -44 78 -24 164 -47 192 -51 49 -6 50 -7 56 -47 7 -43 -2 -58 -36 -58
-10 0 -18 -4 -18 -10 0 -14 5 -13 62 16 39 20 61 25 90 21 21 -3 36 -1 32 4
-3 5 -23 9 -45 9 -27 0 -39 4 -39 14 0 8 -3 21 -6 30 -5 12 1 16 24 16 16 0
73 11 126 25 115 30 173 32 192 8 21 -28 16 -59 -12 -78 -14 -9 -23 -19 -20
-22 3 -3 12 0 21 7 13 11 19 10 35 -5 13 -11 35 -17 72 -17 37 0 47 -2 33 -8
-11 -5 -14 -9 -7 -9 23 -2 82 28 82 40 0 8 -6 6 -18 -4 -30 -27 -43 -19 -17 9
26 28 32 58 15 69 -25 16 -4 25 58 25 37 0 100 9 140 19 39 11 72 15 72 10 0
-5 34 -9 75 -9 41 0 75 4 75 8 0 4 28 6 63 4 108 -7 263 60 255 111 -2 11 -10
23 -18 25 -13 5 -13 3 -1 -12 19 -23 -3 -46 -82 -82 -83 -38 -194 -40 -251 -5
-20 13 -43 20 -51 17 -9 -3 -17 3 -21 17 -7 21 -7 21 -15 2 -7 -17 -8 -16 -8
8 -1 20 4 27 18 27 11 0 18 -6 17 -16 0 -9 5 -19 12 -21 9 -4 11 2 6 21 -6 25
-5 26 21 16 34 -13 55 -13 55 0 0 6 -16 10 -35 10 -27 0 -35 4 -35 18 -1 16
-1 16 -14 -1 -10 -13 -28 -18 -67 -18 -101 -1 -164 -1 -199 1 -59 3 -113 3
-150 0 -19 -2 -51 0 -70 4 -31 6 -33 6 -15 -5 11 -7 43 -12 70 -11 84 3 95 3
233 -1 72 -2 134 -6 136 -8 2 -2 6 -20 8 -39 l3 -34 -90 -22 c-49 -13 -116
-23 -148 -23 l-58 -1 6 34 c9 43 -11 56 -88 56 -67 0 -110 -27 -88 -54 7 -9
12 -16 10 -16 -2 0 -31 -2 -64 -4 -33 -2 -94 -13 -135 -24 -41 -11 -94 -23
-117 -26 -38 -6 -43 -4 -48 16 -3 13 -14 57 -24 99 l-18 76 36 11 36 11 -37
-5 c-34 -4 -38 -2 -44 21 -9 35 1 42 26 20 19 -18 20 -17 20 3 0 35 78 63 104
37 17 -17 30 -20 21 -5 -4 6 1 22 9 35 13 20 25 25 55 25 22 0 42 -6 44 -12 3
-8 6 -6 6 5 3 58 -104 173 -186 201 -26 9 -73 16 -106 16 -48 0 -62 4 -76 22
-20 24 -45 16 -38 -12 4 -14 -9 -25 -59 -50 -66 -32 -120 -85 -151 -149 -21
-43 -32 -191 -14 -191 8 0 10 15 5 49 -6 43 -4 50 14 60 34 18 61 13 89 -16
17 -18 24 -22 20 -11 -4 12 1 23 18 34 34 22 77 15 92 -16 l13 -25 0 27 c0 30
6 35 51 48 27 8 34 5 56 -18 21 -22 24 -23 20 -7 -8 24 0 38 30 54 33 17 59
13 77 -11 9 -13 13 -16 10 -6 -8 25 13 57 49 72 30 12 33 11 49 -13 24 -35 23
-36 -19 -37 -25 0 -42 -8 -56 -25 -13 -17 -27 -23 -47 -21 -29 3 -69 -12 -82
-32 -4 -6 -25 -9 -48 -7 -25 1 -50 -4 -64 -13 -16 -10 -36 -13 -58 -9 -23 3
-46 -1 -67 -11 -23 -12 -36 -14 -50 -6 -28 14 -54 12 -77 -6 -19 -15 -19 -16
1 -9 48 17 55 16 80 -9 31 -31 35 -32 35 -7 0 27 53 47 85 33 14 -7 25 -16 25
-22 0 -5 5 -10 10 -10 6 0 10 9 10 19 0 27 19 37 27 15 4 -11 1 -20 -6 -22
-11 -4 -11 -6 0 -13 13 -8 62 -190 53 -198 -8 -9 -119 16 -244 53 -69 21 -131
40 -137 42 -10 2 -13 62 -13 252 l0 249 105 -1 c58 0 105 2 105 7 0 8 -19 10
-127 8 l-83 -1 0 62 0 63 522 -2 c288 -1 529 -2 537 -3z m421 -50 c0 -21 -15
-27 -25 -10 -3 6 -12 10 -18 9 -9 0 -9 -2 1 -6 22 -9 13 -33 -12 -33 -34 0
-39 13 -15 38 26 29 69 30 69 2z m540 1 c15 -29 12 -41 -10 -41 -11 0 -20 7
-20 15 0 9 -7 18 -15 21 -8 4 -12 10 -9 15 9 16 43 10 54 -10z m-761 -15 c7
-8 27 -18 44 -22 32 -7 32 -7 7 -15 -22 -8 -22 -8 7 -6 24 3 33 -1 36 -15 5
-16 -2 -18 -50 -18 -33 0 -52 4 -48 10 3 6 1 10 -4 10 -6 0 -11 5 -11 11 0 6
9 9 20 6 11 -3 20 -1 20 5 0 14 -71 0 -85 -16 -20 -25 -42 -25 -54 0 -9 20 -8
24 5 24 8 0 12 -5 8 -11 -4 -7 3 -6 17 2 13 7 38 16 54 20 l30 7 -28 1 c-16 1
-26 5 -22 11 9 15 41 12 54 -4z m-393 -21 c-11 -8 -22 -12 -25 -9 -6 6 19 24
34 24 6 -1 1 -7 -9 -15z m818 -7 c20 -28 20 -39 3 -32 -8 3 -20 -2 -27 -11
-11 -14 -14 -13 -26 2 -7 10 -14 28 -14 41 0 30 43 30 64 0z m-574 -3 c-7 -9
-15 -13 -17 -11 -7 7 7 26 19 26 6 0 6 -6 -2 -15z m20 -36 c0 -5 -4 -9 -10 -9
-5 0 -10 7 -10 16 0 8 5 12 10 9 6 -3 10 -10 10 -16z m-150 -33 c0 -14 -5 -17
-22 -12 -13 3 -29 6 -35 6 -7 0 -13 11 -13 24 0 22 2 22 35 12 24 -7 35 -17
35 -30z m250 29 c0 -8 -4 -15 -10 -15 -5 0 -10 7 -10 15 0 8 5 15 10 15 6 0
10 -7 10 -15z m499 -16 c-18 -12 -60 -7 -59 6 0 6 12 11 26 12 15 1 29 5 32 8
4 3 8 1 11 -6 2 -6 -3 -15 -10 -20z m-101 9 c-5 -15 -33 -22 -54 -14 -24 9 -6
26 27 26 20 0 29 -4 27 -12z m-1326 -50 c-9 -9 -12 -7 -12 12 0 19 3 21 12 12
9 -9 9 -15 0 -24z m213 -31 c28 -14 63 -37 79 -52 l29 -27 -41 -18 c-23 -11
-42 -25 -42 -32 0 -7 -14 12 -30 42 -29 53 -83 110 -104 110 -6 0 6 -14 27
-31 32 -27 87 -103 87 -122 0 -4 -13 -7 -29 -7 -15 0 -39 -8 -52 -19 -15 -11
-40 -18 -67 -18 -26 0 -50 -7 -61 -17 -18 -16 -19 -14 -31 67 -15 102 -10 132
27 145 49 18 153 7 208 -21z m-250 -55 c1 -37 4 -85 8 -107 l7 -41 -34 4 c-19
2 -44 -2 -56 -8 -23 -12 -23 -12 -18 52 3 35 13 79 22 96 18 35 51 72 64 72 4
0 7 -30 7 -68z m-77 8 c-17 -23 -23 -49 -28 -108 -3 -45 -8 -72 -13 -64 -10
14 -51 16 -77 2 -17 -9 -18 -7 -8 27 14 51 50 105 95 142 48 39 60 40 31 1z
m622 20 c12 -7 12 -12 2 -22 -6 -6 -12 -19 -12 -27 0 -9 9 -1 20 17 15 24 27
32 49 32 16 0 33 -6 39 -13 15 -18 25 -64 15 -70 -8 -5 -129 16 -160 27 -9 4
-10 13 -2 36 11 31 23 36 49 20z m1174 -63 c15 -11 16 -15 2 -41 -8 -16 -12
-35 -9 -42 3 -8 -1 -14 -11 -14 -9 0 -16 5 -16 10 0 14 -32 12 -50 -3 -18 -14
-22 -28 -28 -84 -2 -24 -8 -43 -12 -43 -4 0 -6 17 -3 38 2 20 0 48 -6 62 -10
23 -11 21 -10 -20 2 -90 -1 -98 -17 -46 -16 50 -32 58 -19 9 11 -41 13 -63 4
-63 -13 0 -20 18 -10 24 6 4 4 17 -4 33 -14 26 -13 29 16 59 17 18 28 37 25
43 -12 19 15 52 57 71 51 23 68 24 91 7z m-515 -61 c39 -21 50 -37 44 -69 -7
-37 -36 -52 -73 -37 -38 16 -63 44 -66 77 -5 44 40 57 95 29z m-99 -33 c8 -7
-24 -23 -47 -23 -22 0 -31 19 -17 33 7 6 54 -1 64 -10z m404 1 c3 -8 2 -12 -4
-9 -6 3 -10 10 -10 16 0 14 7 11 14 -7z m171 -3 c3 -5 1 -13 -5 -16 -15 -9
-43 3 -35 15 8 13 32 13 40 1z m76 -21 c33 -18 52 -70 50 -135 -2 -33 -4 -61
-5 -62 -2 -2 -36 -6 -77 -9 -58 -5 -78 -3 -94 10 -20 15 -20 15 3 31 26 19 28
39 5 57 -20 15 -25 40 -17 82 5 21 8 25 15 15 5 -8 4 -18 -1 -23 -6 -6 -10
-17 -10 -25 0 -9 9 -2 19 16 31 50 70 65 112 43z m-461 -20 c13 -9 13 -11 0
-19 -9 -6 -19 -6 -27 1 -28 23 -5 39 27 18z m-1151 -177 c19 -87 37 -166 39
-175 2 -10 0 -18 -5 -18 -6 0 -26 73 -47 163 -38 170 -41 187 -28 187 4 0 23
-71 41 -157z m1971 107 c0 -15 -41 -22 -55 -10 -8 7 -13 16 -10 19 6 10 65 1
65 -9z m-790 -10 c0 -5 -4 -10 -10 -10 -5 0 -10 5 -10 10 0 6 5 10 10 10 6 0
10 -4 10 -10z m728 -12 c-3 -7 -11 -13 -18 -13 -7 0 -15 6 -17 13 -3 7 4 12
17 12 13 0 20 -5 18 -12z m-90 -77 c-2 -9 -13 -17 -26 -19 -25 -4 -27 1 -12
28 12 23 43 15 38 -9z m-1283 -11 c27 -10 30 -31 4 -38 -11 -3 -11 -1 1 8 13
10 12 11 -3 6 -10 -3 -28 -6 -40 -7 -20 -1 -20 -2 3 -9 21 -7 17 -8 -20 -8
-34 -1 -40 2 -25 8 16 7 17 9 3 9 -9 1 -25 4 -35 7 -15 5 -16 4 -3 -6 12 -9
12 -11 1 -8 -25 7 -24 27 1 37 31 13 81 13 113 1z m413 -20 c17 -11 32 -21 32
-23 0 -2 -27 -3 -60 -3 -65 1 -72 6 -38 30 28 20 26 20 66 -4z m-398 -73 c0
-25 4 -36 11 -31 8 4 8 0 0 -15 -9 -15 -21 -21 -46 -21 -18 0 -36 4 -39 9 -4
5 11 7 34 4 26 -4 40 -2 40 5 0 6 -7 9 -15 6 -23 -9 -70 14 -94 46 -11 16 -21
30 -21 32 0 2 29 3 65 3 l65 0 0 -38z m-140 22 c0 -6 14 -22 30 -36 17 -14 28
-28 25 -31 -2 -3 -14 3 -25 13 -15 14 -19 15 -15 4 8 -22 59 -49 90 -49 15 0
24 -4 20 -10 -7 -12 -95 -13 -113 -1 -9 5 -13 22 -11 44 2 20 -2 42 -9 49 -15
15 -16 28 -2 28 6 0 10 -5 10 -11z"/>
<path d="M812 1954 c-146 -72 -183 -265 -75 -385 121 -134 327 -107 407 53
106 213 -119 438 -332 332z m184 1 c93 -27 164 -127 164 -229 0 -83 -66 -179
-147 -213 -43 -18 -135 -17 -181 3 -198 82 -185 375 20 439 57 18 84 18 144 0z"/>
<path d="M1473 1916 c16 -13 16 -14 -5 -21 -21 -7 -19 -8 12 -12 22 -2 44 -14
58 -31 l24 -27 -6 28 c-5 20 -3 27 9 27 8 0 15 5 15 10 0 6 -10 10 -22 10 -13
1 -34 7 -48 15 -34 19 -62 20 -37 1z"/>
<path d="M1705 1855 c-16 -8 -25 -14 -18 -15 7 0 10 -7 7 -15 -4 -8 -2 -15 4
-15 5 0 12 7 16 15 3 8 16 15 28 16 13 0 17 3 10 6 -6 2 -10 9 -6 14 7 12 -5
10 -41 -6z"/>
<path d="M2132 1835 c0 -16 2 -22 5 -12 2 9 2 23 0 30 -3 6 -5 -1 -5 -18z"/>
<path d="M2162 1835 c0 -16 2 -22 5 -12 2 9 2 23 0 30 -3 6 -5 -1 -5 -18z"/>
<path d="M2188 1833 c5 -21 7 -23 10 -9 2 10 0 22 -6 28 -6 6 -7 0 -4 -19z"/>
<path d="M2014 1768 c-13 -20 -54 -122 -54 -133 0 -17 49 89 50 107 0 9 6 18
13 21 6 2 9 7 6 11 -4 4 -11 1 -15 -6z"/>
<path d="M1819 1603 c-11 -27 -30 -58 -41 -70 -12 -13 -17 -23 -10 -23 13 0
47 47 57 80 4 14 14 33 23 43 10 11 11 17 3 17 -6 0 -21 -21 -32 -47z"/>
<path d="M2370 1610 c0 -5 6 -10 14 -10 8 0 24 -12 36 -27 21 -27 110 -77 110
-63 0 4 -15 14 -32 21 -18 7 -50 30 -70 51 -37 37 -58 48 -58 28z"/>
<path d="M1604 1463 c4 -7 2 -22 -4 -32 -8 -17 -5 -26 20 -53 16 -18 30 -28
30 -22 0 6 -11 21 -24 33 -21 19 -23 26 -13 42 9 14 8 21 -2 31 -10 10 -12 10
-7 1z"/>
<path d="M1494 1425 c-3 -8 -3 -19 1 -25 4 -6 1 -18 -7 -27 -12 -15 -11 -15
10 -4 19 10 21 15 11 27 -9 11 -9 17 1 29 9 11 9 15 1 15 -6 0 -14 -7 -17 -15z"/>
<path d="M2047 1373 c-4 -3 -7 -17 -7 -30 0 -16 6 -23 20 -23 16 0 20 7 20 30
0 28 -17 40 -33 23z m23 -23 c0 -11 -4 -20 -10 -20 -5 0 -10 9 -10 20 0 11 5
20 10 20 6 0 10 -9 10 -20z"/>
<path d="M2517 1284 c-11 -14 -31 -31 -45 -37 -15 -7 -35 -20 -44 -29 -11 -11
-33 -18 -58 -18 -27 0 -42 6 -49 18 -9 14 -10 15 -11 1 0 -8 -11 -26 -25 -39
-18 -17 -31 -21 -54 -17 -20 4 -33 1 -42 -10 -17 -19 -108 -11 -125 12 -10 14
-14 14 -40 0 -38 -19 -94 -19 -122 1 -22 15 -22 14 -21 -23 1 -37 2 -37 8 -8
4 20 9 26 14 18 10 -15 75 -17 111 -3 24 9 26 7 27 -18 1 -15 1 -30 0 -34 0
-5 3 -8 9 -8 5 0 8 14 6 31 -3 25 -1 29 13 22 9 -4 42 -8 73 -8 49 0 58 -3 61
-20 3 -14 5 -12 6 8 1 23 5 27 31 27 17 0 39 9 49 19 20 20 20 20 24 -2 4 -20
4 -19 6 3 1 23 4 25 40 22 21 -2 49 2 61 8 22 12 23 11 17 -19 -7 -35 2 -39
30 -13 10 9 14 14 9 10 -17 -14 -23 -9 -22 17 1 17 12 32 33 45 17 10 33 24
36 32 3 7 6 1 6 -14 1 -16 7 -28 14 -28 9 0 12 9 9 28 -3 27 -3 27 47 27 49 0
51 -1 51 -28 0 -17 4 -26 11 -22 6 4 8 13 5 21 -3 7 -1 16 5 20 6 4 6 11 -2
20 -9 11 -15 11 -25 3 -13 -11 -63 -9 -94 4 -9 4 -22 -3 -33 -19z"/>
<path d="M1990 1110 c0 -4 9 -10 20 -13 11 -3 20 -2 20 3 0 4 -9 10 -20 13
-11 3 -20 2 -20 -3z"/>
<path d="M1854 1436 c-9 -24 4 -48 23 -44 24 4 24 52 0 56 -9 2 -20 -4 -23
-12z m36 -22 c0 -16 -16 -19 -25 -4 -8 13 4 32 16 25 5 -4 9 -13 9 -21z"/>
<path d="M1849 1363 c-7 -45 -7 -69 1 -82 7 -11 9 -2 10 32 0 35 4 47 15 47
11 0 15 -11 15 -42 0 -31 3 -39 10 -28 5 8 9 30 8 47 -1 29 -5 33 -30 33 -15
0 -29 -3 -29 -7z"/>
<path d="M775 1352 c8 -8 136 -10 164 -2 15 4 -17 7 -72 7 -53 0 -95 -2 -92
-5z"/>
<path d="M910 849 c-14 -6 -47 -8 -75 -5 -34 4 -43 2 -30 -4 28 -12 90 -12
119 1 19 9 34 8 68 -5 31 -12 51 -14 68 -8 14 5 91 8 172 7 81 -1 162 1 180 4
18 4 -52 7 -157 6 -104 -1 -197 -5 -206 -9 -8 -3 -32 0 -52 9 -42 17 -52 18
-87 4z"/>
<path d="M560 840 c-21 -7 -21 -8 -5 -9 11 0 27 4 35 9 18 11 5 11 -30 0z"/>
<path d="M2582 723 c-2 -53 -5 -63 -19 -63 -23 0 -87 -66 -78 -79 8 -14 56
-14 91 -1 19 8 30 8 38 0 15 -15 42 -12 56 5 10 13 8 19 -13 39 -14 13 -29 21
-32 18 -3 -4 -1 6 4 21 14 36 14 40 0 31 -8 -4 -9 4 -5 27 6 27 5 31 -4 16 -6
-10 -11 -28 -10 -40 3 -35 1 -47 -10 -47 -5 0 -11 30 -13 68 l-3 67 -2 -62z
m34 -99 c6 -7 19 -14 28 -14 10 0 16 -5 14 -12 -6 -18 -25 -21 -39 -6 -7 8
-24 13 -38 11 -14 -2 -32 1 -40 6 -13 8 -13 12 -1 26 16 19 58 13 76 -11z
m-70 -29 c18 -13 16 -14 -20 -15 -33 0 -37 2 -26 15 15 19 21 19 46 0z"/>
<path d="M2329 694 c-11 -14 -10 -18 6 -30 10 -8 22 -14 26 -14 14 0 31 30 25
45 -7 20 -40 19 -57 -1z m41 -9 c0 -8 -6 -15 -14 -15 -20 0 -29 17 -14 23 22
9 28 7 28 -8z"/>
<path d="M2395 640 c-3 -5 -17 -10 -31 -10 -14 0 -23 -4 -19 -9 7 -12 65 7 65
20 0 12 -7 11 -15 -1z"/>
<path d="M1315 602 c6 -6 57 -20 115 -32 110 -23 192 -23 213 0 10 10 8 11 -8
5 -43 -17 -86 -16 -186 4 -57 12 -113 24 -124 28 -14 3 -17 2 -10 -5z"/>
<path d="M2445 593 c-4 -12 2 -25 20 -40 30 -26 60 -29 95 -7 l25 15 -25 -8
c-41 -12 -82 -7 -96 12 -10 14 -11 22 -3 32 7 8 8 13 1 13 -5 0 -13 -8 -17
-17z"/>
<path d="M2230 553 c0 -41 -15 -46 -60 -23 -61 31 -76 11 -19 -25 40 -26 41
-29 24 -41 -10 -7 -23 -15 -28 -17 -6 -2 -8 -11 -4 -19 5 -15 9 -15 44 2 l38
18 24 -34 c24 -34 51 -45 51 -21 -1 13 -30 56 -30 43 0 -4 5 -17 11 -29 7 -15
2 -13 -15 8 -27 32 -35 55 -13 36 8 -6 16 -8 19 -6 3 3 23 7 44 8 27 1 39 7
39 17 0 11 -13 16 -48 18 l-48 3 3 37 c2 29 -1 37 -15 40 -11 2 -17 -3 -17
-15z m53 -74 c26 -1 24 -3 -14 -9 -25 -4 -60 -15 -77 -24 -45 -23 -51 -20 -14
8 l33 24 -28 21 c-20 15 -22 19 -8 14 11 -3 26 -11 33 -16 16 -13 31 6 34 43
1 14 3 6 5 -17 4 -41 6 -43 36 -44z"/>
<path d="M422 520 c-16 -16 -33 -41 -36 -56 -10 -38 10 -89 47 -120 78 -65
202 16 183 120 -16 84 -133 118 -194 56z m154 -11 c19 -17 24 -33 24 -68 l0
-46 -23 27 c-12 14 -37 34 -54 42 -18 9 -33 19 -33 21 0 3 15 12 33 20 28 13
29 15 5 10 -14 -3 -33 -8 -42 -11 -12 -5 -15 -2 -10 12 5 15 3 14 -10 -3 -10
-13 -25 -23 -34 -23 -13 0 -14 -2 -4 -9 12 -7 11 -14 -2 -39 -23 -45 -19 -53
6 -12 22 34 22 35 26 10 6 -45 23 -88 36 -93 9 -4 7 7 -6 31 -24 48 -21 88 7
84 31 -6 85 -51 85 -72 0 -26 -45 -54 -88 -54 -67 0 -116 91 -82 154 28 52
120 62 166 19z m-96 -28 c0 -6 -4 -13 -10 -16 -5 -3 -10 1 -10 9 0 9 5 16 10
16 6 0 10 -4 10 -9z"/>
<path d="M1112 518 c16 -10 98 -11 98 0 0 4 -25 7 -55 8 -33 0 -50 -3 -43 -8z"/>
<path d="M2565 520 c-11 -5 -33 -9 -50 -10 -24 0 -27 -2 -13 -10 11 -7 26 -7
43 0 36 14 88 13 103 -2 9 -9 12 -9 12 0 0 13 -41 33 -63 31 -7 0 -21 -4 -32
-9z"/>
<path d="M1630 483 c-61 -11 -135 -15 -260 -13 -327 5 -455 5 -491 -3 -20 -4
-60 -28 -94 -57 -44 -37 -79 -56 -139 -76 -124 -41 -134 -56 -53 -78 91 -26
156 -29 262 -11 72 12 146 16 265 14 294 -6 454 -4 493 4 22 5 57 26 87 52 88
78 95 80 197 46 107 -34 145 -42 161 -32 8 5 -3 8 -25 9 -21 1 -78 15 -127 31
-85 28 -88 29 -55 36 19 4 49 14 68 21 46 19 29 38 -47 52 -104 19 -156 20
-242 5z m202 -9 c21 -4 35 -11 32 -16 -4 -6 2 -8 15 -3 11 3 28 2 36 -2 12 -7
1 -14 -42 -27 -80 -25 -119 -47 -180 -99 -51 -43 -54 -45 -155 -57 -80 -10
-131 -10 -233 -1 -174 15 -290 14 -409 -4 -55 -8 -127 -15 -160 -15 -55 0
-170 21 -181 32 -3 3 37 19 89 37 69 24 108 44 145 76 47 40 87 62 96 53 9 -8
-108 -94 -145 -106 -51 -17 -48 -26 4 -10 20 7 69 38 107 71 l70 58 112 2 c62
1 193 -2 292 -6 139 -6 199 -5 265 6 94 16 185 20 242 11z"/>
<path d="M1816 441 c-4 -5 3 -7 14 -4 23 6 26 13 6 13 -8 0 -17 -4 -20 -9z"/>
<path d="M1514 428 c-3 -4 21 -8 54 -8 33 0 81 -2 108 -5 40 -4 44 -3 19 4
-40 12 -175 19 -181 9z"/>
<path d="M1750 411 c-38 -20 -130 -98 -130 -110 0 -4 23 14 52 41 29 26 56 48
60 48 4 0 22 9 40 20 41 25 25 25 -22 1z"/>
<path d="M840 361 c0 -5 29 -11 65 -13 36 -1 65 0 65 5 0 4 -10 7 -22 8 -13 0
-42 2 -65 5 -25 3 -43 1 -43 -5z"/>
<path d="M1131 339 c-46 -5 -121 -18 -165 -29 -45 -10 -97 -22 -116 -25 -19
-3 -36 -8 -39 -11 -10 -10 40 -2 139 21 103 24 371 52 390 40 6 -3 10 -1 10 4
0 13 -95 12 -219 0z"/>
<path d="M610 290 c-8 -5 -10 -10 -5 -10 6 0 17 5 25 10 8 5 11 10 5 10 -5 0
-17 -5 -25 -10z"/>
<path d="M370 310 c14 -11 41 -23 60 -26 19 -4 51 -18 70 -30 19 -13 41 -24
50 -23 8 0 1 7 -16 14 -17 8 -36 21 -43 29 -7 9 -29 18 -50 22 -20 3 -46 12
-58 20 -33 21 -42 17 -13 -6z"/>
<path d="M1618 1243 c7 -3 16 -2 19 1 4 3 -2 6 -13 5 -11 0 -14 -3 -6 -6z"/>
<path d="M642 1163 c24 -47 49 -110 58 -144 6 -22 14 -39 16 -36 13 13 -55
187 -72 187 -3 0 -4 -3 -2 -7z"/>
<path d="M2175 986 c-6 -6 -8 -22 -5 -36 6 -24 7 -24 14 8 9 37 6 45 -9 28z"/>
</g>
</svg>
