<svg height="512pt" viewBox="-21 0 512 512.00001" width="512pt" xmlns="http://www.w3.org/2000/svg"><path d="m430 196v178.871094c0 38.621094-25.816406 65.667968-26 65.96875v41.160156c0 11.050781-8.949219 20-20 20s-20-8.949219-20-20v-42.699219c-15.652344-17.8125-23.921875-40.71875-24-64.429687v-178.871094zm0 0" fill="#e6ffff"/><path d="m440 156h-10v-98.480469c0-24.589843-18.949219-47.339843-45-47.519531-24.941406-.167969-44.921875 20.019531-45 44.960938v101.039062h-10c-11.050781 0-20 8.949219-20 20s8.949219 20 20 20h110c11.050781 0 20-8.949219 20-20s-8.949219-20-20-20zm0 0" fill="#596c76"/><path d="m70 256.210938v-.210938h150l.050781.210938c33.109375 0 59.949219 26.839843 59.949219 59.949218v165.839844c0 11.050781-8.949219 20-20 20h-229.769531c-11.039063 0-20-8.949219-20.230469-20v-165.839844c.230469-33.050781 26.96875-59.851562 60-59.949218zm0 0" fill="#8cf2f2"/><path d="m200.050781 186c11.046875 0 20 9.242188 19.949219 20.289062v49.710938h-150v-49.710938c0-11.046874 9.140625-20.289062 20.179688-20.289062zm0 0" fill="#596c76"/><path d="m190 55v131h-90v-131c0-24.828125 20.289062-44.960938 45.121094-44.960938 24.828125 0 44.957031 20.132813 44.878906 44.960938zm0 0" fill="#ffda2d"/><path d="m190.078125 394.089844c0 24.832031-20.128906 44.960937-44.957031 44.960937-24.832032 0-44.960938-20.128906-44.960938-44.960937 0-24.828125 44.960938-74.929688 44.960938-74.929688s44.957031 50.101563 44.957031 74.929688zm0 0" fill="#e6ffff"/><path d="m384.683594 0c-30.164063 0-54.585938 24.386719-54.683594 54.960938v91.039062c-16.542969 0-30 13.457031-30 30s13.457031 30 30 30v168.902344c.085938 25.128906 8.578125 49.140625 24 68.058594v39.039062c0 16.542969 13.457031 30 30 30s30-13.457031 30-30v-37.414062c16.777344-19.707032 26-44.394532 26-69.714844v-168.871094c16.542969 0 30-13.457031 30-30s-13.457031-30-30-30v-88.480469c0-31.503906-24.644531-57.308593-54.933594-57.519531-.128906 0-.253906 0-.382812 0zm35.316406 374.871094c0 21.027344-7.871094 41.5625-22.171875 57.839844-.585937.871093-3.828125 3.308593-3.828125 8.128906v41.160156c0 5.515625-4.488281 10-10 10-5.515625 0-10-4.484375-10-10v-42.699219c0-2.429687-.886719-4.777343-2.488281-6.601562-13.800781-15.703125-21.4375-36.253907-21.511719-57.828125v-168.871094h70zm30-198.871094c0 5.515625-4.488281 10-10 10h-110c-5.515625 0-10-4.484375-10-10 0-5.511719 4.484375-10 10-10h110c5.511719 0 10 4.488281 10 10zm-30-118.480469v88.480469h-70v-91.007812c.0625-19.429688 15.484375-34.992188 34.6875-34.992188h.242188c21.660156.148438 35.070312 19.59375 35.070312 37.519531zm0 0"/><path d="m200.082031 394.089844c0-24.207032-32.484375-64.851563-47.519531-81.609375-1.894531-2.113281-4.601562-3.320313-7.441406-3.320313s-5.546875 1.207032-7.441406 3.320313c-15.132813 16.863281-47.519532 57.296875-47.519532 81.609375 0 30.304687 24.65625 54.960937 54.960938 54.960937 30.304687 0 54.960937-24.65625 54.960937-54.960937zm-54.960937 34.960937c-19.277344 0-34.960938-15.683593-34.960938-34.960937 0-12.507813 18.554688-39.753906 34.960938-59.589844 16.40625 19.835938 34.960937 47.082031 34.960937 59.589844 0 19.277344-15.683593 34.960937-34.960937 34.960937zm0 0"/><path d="m155 502c0 5.523438-4.476562 10-10 10s-10-4.476562-10-10 4.476562-10 10-10 10 4.476562 10 10zm0 0"/><path d="m30.230469 512h69.769531c5.523438 0 10-4.476562 10-10s-4.476562-10-10-10h-69.769531c-5.496094 0-10.070313-4.53125-10.230469-10.121094v-165.648437c.191406-27.496094 22.636719-49.9375 50-50.019531.113281-.003907.957031.050781 2.222656-.210938h145.785156c.660157.136719 1.339844.210938 2.042969.210938 27.542969 0 49.949219 22.40625 49.949219 49.949218v165.839844c0 5.515625-4.488281 10-10 10h-70c-5.523438 0-10 4.476562-10 10s4.476562 10 10 10h70c16.542969 0 30-13.457031 30-30v-165.839844c0-35.191406-26.128906-64.382812-60-69.230468v-40.59375c.074219-16.578126-13.324219-30.335938-29.949219-30.335938h-.050781v-120.96875c.097656-30.347656-24.453125-54.9921875-54.878906-54.9921875-30.394532 0-55.121094 24.6562495-55.121094 54.9609375v121.003906c-16.558594.101563-30 13.644532-30 30.285156v40.679688c-33.640625 4.960938-59.753906 34.105469-60 69.191406 0 0 0 165.980469.00390625 166.046875.33984375 16.429688 13.90234375 29.792969 30.22656275 29.792969zm114.890625-491.960938c19.070312 0 34.941406 15.382813 34.878906 34.960938v121h-70v-121c0-19.277344 15.753906-34.960938 35.121094-34.960938zm54.929687 175.960938c5.386719 0 9.976563 4.585938 9.949219 10.289062v39.710938h-130v-39.710938c0-5.578124 4.660156-10.289062 10.179688-10.289062zm0 0"/></svg>