<svg id="svg" xmlns="http://www.w3.org/2000/svg" xmlns:xlink="http://www.w3.org/1999/xlink" width="400" height="400" viewBox="0, 0, 400,400"><g id="svgg"><path id="path0" d="M0.000 26.541 L 0.000 53.081 2.500 53.714 C 14.209 56.678,25.600 50.178,25.600 40.532 C 25.600 39.706,26.130 38.238,26.641 37.647 C 26.714 37.562,28.444 38.328,30.487 39.347 C 48.182 48.181,57.758 27.611,43.817 10.710 C 36.011 1.245,24.272 0.402,18.190 8.868 C 16.532 11.175,15.704 11.247,14.978 9.149 C 14.362 7.368,12.638 4.952,9.973 2.134 L 7.955 -0.000 3.977 -0.000 L 0.000 0.000 0.000 26.541 M12.187 2.070 C 13.211 3.209,14.505 4.919,15.062 5.870 C 16.331 8.036,16.470 8.028,18.991 5.644 C 25.919 -0.908,35.553 0.140,43.590 8.321 C 59.426 24.442,50.863 49.547,32.162 41.822 C 27.478 39.887,27.480 39.887,27.064 41.800 C 24.548 53.370,13.866 58.747,0.900 54.969 L -0.000 54.707 -0.000 144.701 L 0.000 234.695 2.900 234.915 C 7.299 235.250,8.722 235.825,13.093 239.033 C 13.954 239.665,14.012 239.643,14.693 238.409 C 19.282 230.101,22.873 227.854,31.600 227.833 C 38.245 227.817,40.750 228.677,44.102 232.126 L 46.403 234.494 47.231 232.547 C 52.187 220.888,58.965 215.200,67.902 215.200 C 70.178 215.200,70.197 215.017,68.391 210.578 C 60.090 190.176,57.229 167.643,60.002 144.492 L 60.446 140.783 58.290 138.813 C 56.017 136.735,53.846 133.165,53.403 130.774 C 52.925 128.195,52.879 128.186,48.554 129.816 C 35.930 134.573,23.682 128.527,21.111 116.271 C 18.929 105.866,35.528 97.586,47.416 103.149 C 50.522 104.602,50.537 104.598,51.393 102.021 C 54.908 91.440,65.394 86.646,75.095 91.186 C 78.568 92.811,78.294 92.933,81.363 88.396 C 115.500 37.933,180.585 18.158,237.775 40.874 C 256.698 48.391,272.671 59.843,287.883 76.800 C 299.926 90.225,310.742 111.352,315.424 130.600 C 316.685 135.782,316.680 135.775,319.112 136.385 C 325.731 138.046,332.324 143.882,333.603 149.213 C 334.178 151.608,334.345 151.630,336.728 149.627 C 346.076 141.771,357.266 141.708,365.259 149.466 C 377.922 161.757,356.410 187.767,338.571 181.733 C 336.146 180.913,333.846 179.435,333.011 178.160 C 332.108 176.782,331.923 176.891,329.826 180.044 C 326.025 185.760,323.178 188.126,318.800 189.207 L 316.200 189.849 315.163 193.825 C 313.306 200.941,311.262 206.867,308.215 213.971 C 306.797 217.278,306.664 218.396,307.687 218.404 C 311.921 218.436,319.512 226.595,322.482 234.306 C 324.030 238.326,323.907 238.252,326.674 236.802 C 338.341 230.686,350.430 238.615,354.647 255.150 C 355.518 258.565,355.879 258.838,357.691 257.456 C 368.538 249.183,387.635 252.154,396.200 263.449 C 397.300 264.900,398.599 266.562,399.087 267.143 L 399.975 268.200 399.987 163.057 C 399.999 68.777,399.937 57.939,399.387 58.150 C 387.842 62.580,376.753 57.804,373.324 46.926 C 372.439 44.119,372.214 44.054,369.356 45.780 C 359.053 52.002,349.802 51.646,343.449 44.784 C 332.244 32.681,337.340 11.885,353.064 5.542 C 358.789 3.233,369.475 4.761,376.555 8.901 C 378.990 10.325,379.167 10.251,380.945 7.071 C 381.744 5.644,383.117 3.564,383.998 2.450 C 384.879 1.335,385.600 0.328,385.600 0.212 C 385.600 0.095,301.163 0.000,197.963 0.000 L 10.326 0.000 12.187 2.070 M385.868 2.700 C 384.677 4.185,382.845 6.885,381.797 8.700 C 379.597 12.510,379.601 12.509,376.070 10.420 C 367.859 5.563,357.059 4.649,350.810 8.282 C 338.081 15.683,335.007 34.170,344.880 43.938 C 351.184 50.174,358.796 50.230,369.104 44.115 C 373.309 41.620,373.793 41.623,374.171 44.147 C 375.807 55.054,386.293 60.646,398.100 56.909 L 400.000 56.308 400.000 28.154 L 400.000 0.000 394.017 -0.000 L 388.034 -0.000 385.868 2.700 M175.400 33.805 C 138.282 38.121,105.924 57.132,84.315 87.319 C 79.463 94.097,79.592 93.616,81.955 96.115 C 83.973 98.249,85.995 101.714,86.006 103.058 C 86.022 104.982,86.681 105.025,88.798 103.241 C 104.581 89.932,127.455 101.152,120.137 118.613 C 113.836 133.648,94.923 141.334,86.203 132.403 C 84.218 130.370,84.339 130.342,82.341 133.300 C 76.874 141.393,71.939 144.167,65.701 142.653 C 62.085 141.776,62.142 141.760,61.844 143.700 C 60.083 155.173,60.126 167.923,61.969 180.400 C 64.998 200.903,73.522 221.476,85.855 238.047 C 89.113 242.426,88.963 242.341,91.308 241.145 C 94.360 239.588,100.227 240.236,104.157 242.564 C 106.896 244.187,109.872 247.479,109.350 248.308 C 108.912 249.003,103.213 250.353,100.576 250.385 C 96.753 250.432,97.196 251.653,102.932 256.876 C 113.784 266.757,127.573 275.363,141.565 280.986 C 148.384 283.726,148.405 283.714,145.461 278.831 C 142.748 274.329,138.400 264.518,138.400 262.895 C 138.400 259.354,147.135 256.094,164.210 253.261 L 168.600 252.532 172.600 249.630 C 174.800 248.034,176.676 246.653,176.769 246.561 C 176.863 246.469,176.510 245.541,175.986 244.497 C 173.249 239.047,175.589 232.052,181.775 227.190 C 184.737 224.862,184.852 224.499,183.271 222.458 C 182.651 221.656,181.088 219.290,179.799 217.200 C 176.205 211.373,176.723 211.602,172.983 214.186 C 169.496 216.594,168.800 216.823,168.800 215.561 C 168.800 214.801,172.419 207.534,173.253 206.620 C 174.123 205.667,173.805 204.961,167.385 193.600 C 165.249 189.821,159.631 179.671,157.200 175.200 C 155.201 171.522,150.148 162.425,147.425 157.600 C 136.319 137.919,133.705 132.800,134.763 132.800 C 134.963 132.800,138.556 130.730,142.749 128.200 C 146.941 125.670,150.621 123.600,150.927 123.600 C 151.233 123.600,156.211 130.755,161.990 139.500 C 188.615 179.792,196.233 191.187,196.661 191.359 C 196.915 191.462,199.255 190.951,201.861 190.224 C 208.602 188.344,209.274 188.848,204.496 192.200 C 201.450 194.336,201.211 194.801,202.302 196.463 C 202.686 197.047,203.999 199.027,205.219 200.863 C 209.879 207.868,210.982 210.413,211.438 215.200 C 211.685 217.798,211.688 217.802,214.572 220.600 C 216.160 222.140,218.220 224.291,219.150 225.379 L 220.841 227.359 223.120 226.714 C 224.374 226.360,226.660 225.676,228.200 225.194 C 238.207 222.068,256.682 219.140,258.242 220.434 C 259.081 221.131,260.181 228.173,260.800 236.800 C 261.044 240.210,261.414 245.101,261.622 247.669 C 261.830 250.237,262.000 255.491,262.000 259.345 C 262.000 267.705,261.882 267.561,266.106 264.356 C 288.992 246.990,304.680 223.989,312.771 195.940 C 314.097 191.343,314.285 189.663,313.500 189.421 C 306.966 187.408,302.805 183.529,301.389 178.130 C 300.467 174.612,300.479 174.622,298.166 175.620 C 292.733 177.963,288.543 178.724,284.704 178.066 C 271.633 175.825,263.885 160.154,272.227 152.830 C 277.686 148.037,288.798 146.592,295.440 149.811 C 297.767 150.939,298.400 151.032,298.400 150.246 C 298.400 145.828,306.482 137.240,311.600 136.219 C 315.026 135.536,315.017 135.587,312.984 128.168 C 298.864 76.640,255.709 39.879,202.200 33.799 C 195.869 33.079,181.613 33.083,175.400 33.805 M62.768 91.737 C 57.578 93.872,52.740 100.009,52.120 105.243 C 51.828 107.709,51.393 108.000,50.095 106.601 C 47.782 104.106,41.462 102.535,36.332 103.179 C 22.413 104.928,18.286 115.132,27.591 124.790 C 33.293 130.709,40.219 131.605,49.794 127.663 C 54.395 125.769,54.634 125.837,54.871 129.115 C 55.477 137.483,66.165 143.989,73.315 140.341 C 75.734 139.107,79.165 135.424,81.677 131.365 C 84.297 127.129,84.366 127.097,85.831 129.414 C 91.391 138.212,107.250 135.199,115.389 123.800 C 122.330 114.079,121.407 106.205,112.743 101.236 C 104.890 96.732,96.815 98.147,88.890 105.414 C 85.632 108.402,84.800 108.433,84.800 105.566 C 84.800 96.710,71.292 88.231,62.768 91.737 M143.519 129.528 C 140.065 131.658,137.029 133.611,136.772 133.868 C 136.311 134.329,137.166 135.903,169.267 193.678 C 175.903 205.621,175.716 204.996,173.800 208.800 C 171.485 213.396,171.277 213.441,179.831 207.499 C 183.114 205.219,188.860 201.233,192.600 198.641 C 196.340 196.049,199.760 193.562,200.200 193.114 L 201.000 192.300 199.600 192.576 C 198.830 192.728,197.626 192.952,196.925 193.074 L 195.651 193.296 186.174 178.948 C 174.589 161.408,156.661 134.315,153.398 129.416 C 150.405 124.923,150.997 124.916,143.519 129.528 M311.708 137.795 C 306.264 139.315,300.531 146.017,299.740 151.785 C 299.424 154.089,299.013 154.347,297.667 153.088 C 293.291 148.990,283.583 148.433,276.548 151.878 C 268.714 155.714,268.199 164.264,275.370 171.428 C 281.408 177.459,288.218 178.207,298.124 173.927 C 301.817 172.331,302.146 172.447,302.433 175.440 C 302.882 180.122,305.737 184.135,310.245 186.423 C 317.426 190.068,323.927 187.103,329.396 177.690 C 331.605 173.888,332.157 173.694,333.668 176.186 C 338.325 183.863,351.719 182.415,360.468 173.289 C 370.532 162.792,369.913 152.561,358.884 147.096 C 351.831 143.602,344.652 144.993,337.248 151.290 C 332.546 155.289,332.811 155.283,332.345 151.408 C 331.321 142.907,320.045 135.468,311.708 137.795 M196.600 197.739 C 195.280 198.679,192.670 200.509,190.800 201.806 C 178.490 210.342,178.063 210.718,181.252 210.206 C 183.647 209.822,187.695 207.555,190.723 204.902 L 193.246 202.692 195.323 203.733 C 198.023 205.087,200.261 205.409,202.772 204.807 C 205.405 204.175,205.381 203.766,202.468 199.564 C 199.698 195.567,199.665 195.556,196.600 197.739 M191.701 206.113 C 187.552 209.744,183.140 211.981,180.100 211.996 C 178.600 212.003,179.015 213.131,182.419 218.306 C 185.457 222.924,185.713 223.200,186.957 223.200 C 187.768 223.200,188.555 223.508,189.000 224.000 C 190.903 226.103,195.207 223.936,194.651 221.156 C 194.297 219.387,195.240 218.000,196.795 218.000 C 199.169 218.000,199.497 220.952,197.248 222.075 C 196.504 222.446,195.424 223.191,194.848 223.729 C 193.457 225.029,191.478 226.000,190.220 226.000 C 188.797 226.000,188.947 226.527,190.700 227.684 C 198.277 232.689,209.283 226.540,209.912 216.950 C 210.216 212.320,207.599 205.664,205.579 205.928 C 200.924 206.537,197.323 206.431,195.467 205.632 C 193.087 204.608,193.479 204.558,191.701 206.113 M192.349 214.440 C 191.644 214.886,190.800 214.898,190.800 214.461 C 190.800 213.930,192.574 213.237,192.749 213.699 C 192.831 213.916,192.651 214.249,192.349 214.440 M184.800 216.776 C 184.800 217.248,184.020 217.753,183.733 217.467 C 183.447 217.180,183.952 216.400,184.424 216.400 C 184.631 216.400,184.800 216.569,184.800 216.776 M63.557 217.380 C 56.948 219.202,51.778 224.817,48.655 233.564 C 46.797 238.766,46.359 239.021,44.801 235.802 C 40.969 227.886,26.479 226.665,19.869 233.702 C 17.516 236.206,14.369 242.502,13.253 246.935 C 12.378 250.413,12.192 250.752,11.531 250.091 C 11.191 249.751,11.309 248.669,11.999 245.805 C 13.435 239.841,9.824 236.400,2.127 236.400 L 0.000 236.400 0.000 262.200 L 0.000 288.000 37.900 287.994 C 78.112 287.987,76.737 288.059,77.002 285.968 C 77.097 285.215,77.364 283.070,77.594 281.200 C 78.349 275.079,80.367 264.294,81.629 259.636 C 82.560 256.203,82.603 256.278,79.200 255.429 C 73.950 254.118,69.022 250.632,67.614 247.233 C 66.840 245.364,67.454 244.977,69.852 245.822 C 74.102 247.320,80.853 246.977,84.774 245.065 C 87.622 243.676,87.617 243.415,84.666 239.503 C 80.323 233.744,75.976 226.730,72.672 220.151 C 71.885 218.584,70.947 217.189,70.588 217.051 C 69.530 216.645,65.547 216.831,63.557 217.380 M189.200 218.014 C 190.178 218.793,190.183 218.823,189.424 219.405 C 188.136 220.391,187.200 220.165,187.200 218.867 C 187.200 217.015,187.685 216.808,189.200 218.014 M305.661 220.330 C 305.247 220.699,303.876 222.890,302.615 225.200 C 293.758 241.427,280.418 256.310,264.160 268.100 L 262.121 269.579 261.872 273.890 C 261.736 276.260,261.501 280.315,261.351 282.900 L 261.078 287.600 330.539 287.600 L 400.000 287.600 400.000 279.400 C 400.000 274.068,399.857 271.200,399.590 271.200 C 399.365 271.200,399.006 270.742,398.794 270.183 C 393.172 255.398,369.177 249.116,357.967 259.495 C 354.952 262.286,354.940 262.278,353.347 256.382 C 348.657 239.020,336.427 231.329,325.984 239.175 C 323.349 241.155,323.223 241.088,321.815 236.942 C 318.514 227.220,308.961 217.396,305.661 220.330 M210.006 222.789 C 208.495 225.780,208.193 231.200,209.537 231.200 C 210.578 231.200,217.931 228.629,218.490 228.070 C 218.990 227.570,218.686 227.169,214.420 222.700 C 211.694 219.843,211.491 219.847,210.006 222.789 M254.400 221.851 C 242.545 222.895,231.433 225.231,223.500 228.348 C 222.054 228.916,222.071 229.005,224.395 233.191 C 226.804 237.530,229.411 243.542,230.433 247.117 C 231.374 250.405,231.086 250.201,235.600 250.781 C 245.748 252.084,250.724 254.956,249.956 259.067 C 249.434 261.860,248.008 268.496,247.145 272.155 C 246.246 275.963,246.245 276.000,247.007 276.000 C 247.686 276.000,253.544 272.780,257.764 270.087 L 260.527 268.324 260.274 256.462 C 260.134 249.938,259.833 242.710,259.605 240.400 C 259.377 238.090,259.006 234.220,258.779 231.800 C 258.074 224.260,257.386 221.503,256.251 221.664 C 256.003 221.699,255.170 221.783,254.400 221.851 M183.308 227.953 C 180.779 229.952,178.684 232.411,177.523 234.746 C 175.916 237.975,176.422 245.305,178.099 243.097 C 178.374 242.733,179.070 242.262,179.644 242.049 C 180.454 241.749,180.745 241.303,180.944 240.062 C 181.084 239.182,181.651 237.926,182.202 237.271 C 182.753 236.616,183.317 235.515,183.455 234.826 C 183.593 234.136,184.087 233.369,184.553 233.121 C 185.922 232.393,189.200 229.513,189.200 229.037 C 189.200 228.453,186.597 226.400,185.857 226.400 C 185.535 226.400,184.388 227.099,183.308 227.953 M203.600 229.044 C 200.100 230.911,196.569 231.491,193.485 230.705 L 191.193 230.121 189.579 231.308 C 187.780 232.631,187.723 233.215,189.352 233.650 C 191.321 234.177,191.714 234.777,191.466 236.876 C 191.160 239.456,191.509 239.526,195.317 237.650 C 197.122 236.760,200.490 235.222,202.800 234.232 L 207.000 232.432 207.119 230.016 C 207.261 227.140,207.200 227.123,203.600 229.044 M214.200 231.461 C 209.070 233.274,209.098 233.248,209.420 235.823 C 209.948 240.047,209.253 240.407,199.885 240.752 C 192.556 241.023,192.418 241.072,192.406 243.451 C 192.396 245.437,193.789 245.948,201.000 246.603 C 210.834 247.496,220.000 241.038,220.000 233.218 C 220.000 229.465,219.918 229.440,214.200 231.461 M221.903 233.046 C 221.787 233.241,221.560 234.210,221.397 235.200 C 219.829 244.773,208.259 250.147,195.156 247.391 C 191.657 246.655,191.790 246.506,191.456 251.532 C 191.316 253.660,191.039 256.840,190.841 258.600 C 190.644 260.360,190.564 261.935,190.665 262.100 C 190.917 262.514,196.297 262.474,200.400 262.028 C 202.270 261.824,205.960 261.456,208.600 261.210 C 220.180 260.129,229.641 258.546,230.628 257.526 C 231.177 256.958,229.986 250.351,228.586 246.200 C 226.737 240.718,222.409 232.197,221.903 233.046 M203.600 235.541 C 194.463 239.476,194.465 240.316,203.610 239.179 C 207.638 238.678,208.037 238.380,207.726 236.100 C 207.447 234.049,207.156 234.010,203.600 235.541 M185.200 235.405 C 185.200 235.738,185.408 236.344,185.662 236.751 C 186.021 237.326,185.971 238.104,185.435 240.238 C 184.541 243.796,184.340 244.000,181.723 244.000 C 179.692 244.000,179.553 244.061,179.672 244.900 C 179.789 245.720,180.079 245.823,182.935 246.055 C 186.996 246.384,186.849 246.076,186.147 252.794 C 185.398 259.968,185.767 259.550,180.061 259.688 L 175.400 259.800 175.400 261.000 L 175.400 262.200 181.971 262.200 L 188.542 262.200 188.864 261.000 C 189.213 259.696,190.123 250.786,190.171 248.203 C 190.198 246.723,190.098 246.573,188.800 246.147 L 187.400 245.689 187.408 242.744 C 187.419 238.924,187.783 237.663,189.011 237.196 C 190.473 236.640,190.231 235.702,188.500 235.221 C 186.360 234.627,185.200 234.692,185.200 235.405 M183.100 238.789 C 182.340 239.862,182.147 242.000,182.810 242.000 C 183.382 242.000,184.062 240.053,183.919 238.823 L 183.800 237.800 183.100 238.789 M189.057 240.881 C 188.517 242.898,188.753 244.400,189.610 244.400 C 190.652 244.400,191.402 242.581,190.927 241.204 C 190.472 239.884,189.375 239.695,189.057 240.881 M95.067 241.867 C 94.035 242.899,96.429 249.200,97.853 249.200 C 100.265 249.200,106.800 247.855,106.800 247.359 C 106.800 245.044,96.644 240.290,95.067 241.867 M89.631 244.043 C 84.210 247.565,80.162 248.653,74.100 248.218 C 69.943 247.919,69.788 248.050,71.900 250.076 C 76.775 254.752,85.324 255.774,92.146 252.496 C 94.987 251.132,95.645 250.655,95.460 250.096 C 92.703 241.800,92.849 241.951,89.631 244.043 M92.325 246.905 C 92.416 247.379,92.203 247.600,91.653 247.600 C 90.736 247.600,90.228 247.003,90.614 246.378 C 91.003 245.748,92.171 246.108,92.325 246.905 M178.910 247.679 C 178.291 248.443,176.168 257.101,176.515 257.448 C 176.678 257.611,178.320 257.823,180.166 257.920 C 184.173 258.130,184.168 258.136,184.582 253.400 C 184.736 251.640,184.954 249.810,185.066 249.333 C 185.407 247.885,179.935 246.415,178.910 247.679 M174.106 250.525 C 172.681 251.488,172.610 252.133,173.907 252.325 C 174.842 252.463,176.400 251.135,176.400 250.200 C 176.400 249.378,175.643 249.485,174.106 250.525 M232.217 252.373 C 231.710 253.192,232.461 253.600,234.524 253.626 C 238.860 253.680,243.000 254.529,243.000 255.364 C 243.000 257.103,224.418 261.375,212.400 262.398 C 209.650 262.632,205.510 263.043,203.200 263.312 C 198.616 263.845,155.993 263.941,151.884 263.428 C 142.645 262.273,151.395 258.635,168.800 256.393 C 174.001 255.724,175.000 255.467,175.000 254.800 C 175.000 253.655,167.186 254.136,158.986 255.784 C 143.050 258.989,136.662 262.295,142.281 264.431 C 146.245 265.938,181.013 266.446,194.600 265.196 C 196.800 264.993,202.560 264.639,207.400 264.409 C 222.889 263.672,234.138 262.056,242.206 259.410 C 248.513 257.341,248.724 257.095,245.784 255.231 C 242.767 253.317,232.916 251.242,232.217 252.373 M92.450 254.066 C 91.047 254.732,88.662 255.567,87.150 255.922 C 84.024 256.655,84.037 256.634,85.437 258.682 C 87.774 262.100,89.580 266.405,91.781 273.800 C 93.079 278.160,93.347 279.177,94.625 284.600 C 94.988 286.140,95.491 287.532,95.742 287.694 C 96.439 288.141,149.692 288.057,150.400 287.607 C 151.432 286.952,149.759 285.840,145.603 284.418 C 129.780 279.003,114.936 270.070,100.918 257.526 C 98.013 254.927,95.493 252.813,95.318 252.828 C 95.143 252.843,93.852 253.401,92.450 254.066 M46.400 254.014 C 47.144 254.512,45.945 255.600,44.653 255.600 C 42.988 255.600,37.374 258.746,34.751 261.150 C 31.280 264.330,30.795 265.473,31.941 267.768 C 32.996 269.879,32.999 270.000,32.000 270.000 C 31.560 270.000,31.200 269.856,31.200 269.680 C 31.200 266.304,23.438 259.877,19.574 260.053 C 17.303 260.157,16.672 259.775,17.777 258.967 C 19.892 257.421,24.142 258.726,27.760 262.033 L 29.891 263.981 31.563 261.998 C 34.343 258.701,38.943 255.761,43.800 254.176 C 45.792 253.526,45.681 253.533,46.400 254.014 M312.200 255.600 C 312.200 256.027,311.574 256.276,310.026 256.465 C 301.227 257.539,295.524 262.049,297.372 266.472 C 298.792 269.870,296.982 269.359,295.269 265.879 C 293.705 262.702,290.381 259.441,288.073 258.820 C 286.283 258.338,285.683 257.757,286.319 257.121 C 287.079 256.361,290.661 257.931,292.961 260.034 C 295.550 262.400,295.393 262.386,297.093 260.400 C 300.020 256.980,312.200 253.110,312.200 255.600 M232.622 255.564 C 232.024 256.531,232.911 257.268,234.348 256.999 C 236.190 256.653,237.287 256.064,236.988 255.580 C 236.688 255.094,232.921 255.081,232.622 255.564 M170.800 257.608 C 169.810 257.789,167.470 258.154,165.600 258.421 C 163.730 258.688,161.030 259.155,159.600 259.461 C 158.170 259.766,156.106 260.195,155.014 260.414 C 149.482 261.523,151.594 261.956,163.190 262.088 L 172.980 262.200 173.457 261.200 C 175.008 257.948,174.287 256.973,170.800 257.608 M246.715 259.418 C 245.542 260.591,230.947 263.992,224.400 264.618 C 222.970 264.754,220.270 265.036,218.400 265.244 C 212.538 265.896,191.045 266.835,168.600 267.420 C 159.686 267.652,147.495 267.057,142.500 266.146 C 140.702 265.818,140.769 266.115,143.905 272.400 C 147.071 278.743,145.787 278.108,156.800 278.783 C 164.081 279.229,175.737 279.075,187.400 278.378 C 198.878 277.693,213.690 275.932,227.600 273.600 C 228.810 273.397,231.060 273.029,232.600 272.781 C 234.140 272.534,236.750 272.055,238.400 271.718 C 240.050 271.381,242.120 270.959,243.000 270.781 C 246.247 270.123,245.942 270.551,247.186 264.904 C 248.282 259.928,248.118 258.015,246.715 259.418 M83.200 260.400 C 83.200 261.169,83.982 261.484,84.530 260.937 C 84.833 260.634,84.076 259.600,83.551 259.600 C 83.358 259.600,83.200 259.960,83.200 260.400 M82.612 263.181 C 82.467 263.415,82.615 263.708,82.941 263.833 C 83.809 264.166,85.800 263.865,85.800 263.400 C 85.800 262.851,82.938 262.654,82.612 263.181 M83.765 265.577 C 79.990 266.480,81.070 268.274,85.087 267.772 C 87.409 267.482,87.780 267.197,87.399 265.996 C 87.129 265.147,86.073 265.025,83.765 265.577 M85.400 269.209 C 84.300 269.375,83.027 269.429,82.570 269.330 C 81.427 269.080,80.522 270.183,81.200 271.000 C 81.796 271.718,82.523 271.741,85.898 271.154 C 88.470 270.706,89.490 269.882,88.358 269.166 C 88.051 268.971,87.710 268.834,87.600 268.860 C 87.490 268.886,86.500 269.043,85.400 269.209 M256.873 272.811 C 255.483 273.693,252.483 275.409,250.208 276.624 C 245.263 279.264,245.501 279.006,244.191 283.154 C 242.688 287.911,242.227 287.636,251.491 287.508 L 259.400 287.400 259.658 285.000 C 260.127 280.633,260.223 271.475,259.800 271.338 C 259.580 271.266,258.263 271.929,256.873 272.811 M238.800 273.163 C 235.830 273.764,231.870 274.481,230.000 274.757 C 228.130 275.033,225.700 275.413,224.600 275.603 C 218.656 276.627,209.018 277.952,201.600 278.765 C 186.744 280.394,166.109 281.030,153.900 280.236 C 148.115 279.860,147.922 279.915,149.068 281.611 C 155.309 290.844,161.307 297.300,164.226 297.925 C 175.119 300.257,214.034 299.942,227.800 297.410 C 229.560 297.086,232.517 296.550,234.371 296.219 C 236.226 295.888,237.892 295.468,238.075 295.285 C 239.167 294.193,245.200 275.466,245.200 273.168 C 245.200 271.785,245.621 271.785,238.800 273.163 M84.084 272.698 C 80.327 272.851,78.783 274.091,80.616 275.483 C 81.676 276.289,89.043 275.928,89.944 275.027 C 90.903 274.068,89.949 272.376,88.509 272.481 C 87.899 272.526,85.908 272.624,84.084 272.698 M88.400 277.193 C 87.850 277.373,85.666 277.538,83.547 277.560 C 79.397 277.603,78.333 278.276,79.916 279.858 C 81.424 281.367,91.322 279.780,91.123 278.062 C 90.988 276.899,90.132 276.626,88.400 277.193 M89.200 281.200 C 88.650 281.376,86.271 281.538,83.914 281.560 C 79.327 281.603,78.800 281.850,78.800 283.960 C 78.800 286.250,91.079 286.238,92.525 283.947 C 93.703 282.079,91.678 280.406,89.200 281.200 M90.400 286.681 C 88.996 287.027,86.464 287.183,83.400 287.112 L 78.600 287.000 78.600 288.600 L 78.600 290.200 82.000 290.333 C 88.402 290.584,93.600 289.464,93.600 287.835 C 93.600 286.346,92.851 286.076,90.400 286.681 M0.000 344.607 L 0.000 400.000 200.000 400.000 L 400.000 400.000 400.000 344.600 L 400.000 289.200 330.900 289.206 C 292.895 289.209,261.560 289.364,261.268 289.550 C 260.934 289.761,260.604 291.287,260.383 293.644 C 260.189 295.710,259.850 298.480,259.629 299.800 C 259.409 301.120,259.053 303.280,258.839 304.600 C 258.625 305.920,258.247 308.046,258.000 309.324 C 257.386 312.500,257.500 312.759,259.893 313.600 C 268.493 316.622,267.150 326.800,258.151 326.800 C 255.580 326.800,255.885 325.873,258.648 325.294 C 265.091 323.942,266.277 318.122,260.631 315.559 C 257.162 313.983,257.108 314.037,255.462 320.700 C 254.660 323.945,253.319 328.867,252.482 331.637 C 251.339 335.419,251.064 336.840,251.378 337.337 C 252.380 338.926,243.110 344.552,230.800 349.826 C 227.439 351.265,227.461 351.241,227.427 353.567 C 227.404 355.147,227.181 355.778,226.327 356.675 C 225.737 357.294,224.651 358.880,223.913 360.200 C 222.083 363.472,220.057 363.820,217.969 361.221 C 217.252 360.330,216.364 359.600,215.995 359.600 C 215.161 359.600,214.000 358.362,214.000 357.472 C 214.000 357.106,213.476 356.339,212.834 355.768 C 210.038 353.276,211.055 350.800,214.874 350.800 C 216.959 350.800,217.634 350.605,219.342 349.509 C 221.652 348.027,223.586 347.874,225.526 349.020 C 227.090 349.944,229.495 349.086,239.000 344.217 C 249.549 338.813,248.975 339.619,252.806 324.861 C 254.700 317.568,254.750 316.903,253.429 316.572 C 250.748 315.899,249.069 318.488,251.176 320.046 C 253.406 321.694,252.510 322.674,250.111 321.211 C 246.661 319.107,248.705 314.847,253.200 314.773 C 255.826 314.730,254.037 314.064,251.200 314.029 C 245.477 313.957,243.103 318.077,246.623 321.972 C 248.502 324.052,247.867 325.012,245.750 323.291 C 240.316 318.873,243.740 312.889,251.973 312.417 L 255.746 312.200 256.073 311.000 C 257.185 306.920,259.454 290.839,259.062 289.817 C 258.782 289.088,247.445 288.880,247.003 289.595 C 246.869 289.813,247.224 290.488,247.792 291.095 C 255.390 299.218,250.471 307.720,236.600 310.440 C 228.432 312.041,201.600 312.802,201.600 311.432 C 201.600 310.649,204.209 310.463,218.400 310.232 C 240.398 309.874,249.600 306.600,249.600 299.131 C 249.600 295.198,243.568 287.386,242.218 289.570 C 242.092 289.774,242.679 290.436,243.523 291.043 C 250.137 295.797,247.870 302.674,238.800 305.364 C 234.076 306.766,216.842 307.839,216.184 306.773 C 215.680 305.959,216.480 305.832,225.316 305.329 C 238.130 304.599,240.928 303.887,243.977 300.578 C 246.556 297.781,246.423 295.837,243.469 293.139 C 241.285 291.144,240.574 291.804,241.967 294.535 C 244.209 298.933,240.567 301.471,230.400 302.595 C 223.674 303.339,224.000 303.346,224.000 302.447 C 224.000 301.790,224.442 301.658,227.500 301.407 C 235.301 300.766,238.547 299.892,240.135 298.004 C 241.800 296.025,241.271 294.962,239.309 296.344 C 238.699 296.774,236.940 297.341,235.400 297.605 C 233.860 297.869,231.250 298.346,229.600 298.666 C 215.366 301.422,184.563 301.964,166.833 299.770 C 162.571 299.242,161.947 299.035,159.806 297.441 C 158.239 296.274,155.916 298.664,156.634 300.704 C 157.569 303.363,160.911 304.443,168.800 304.636 C 171.990 304.714,174.735 304.783,174.900 304.789 C 175.468 304.810,175.199 305.915,174.567 306.157 C 170.446 307.739,157.659 305.292,155.705 302.548 C 154.230 300.476,154.366 298.883,156.190 296.864 C 158.933 293.828,155.420 292.984,152.004 295.858 C 146.184 300.756,150.067 307.071,159.400 307.886 C 163.382 308.233,164.630 309.263,161.400 309.535 C 149.115 310.569,142.732 298.502,152.852 293.374 C 156.129 291.713,155.029 290.674,150.630 291.274 C 144.748 292.077,143.200 293.630,143.200 298.728 C 143.200 300.807,142.995 303.191,142.745 304.027 C 140.617 311.128,151.845 314.280,173.993 312.800 C 177.246 312.583,178.735 313.598,176.127 314.255 C 173.986 314.794,153.574 314.642,151.200 314.069 C 143.664 312.252,140.720 309.248,141.408 304.082 C 141.575 302.827,141.683 300.257,141.648 298.371 C 141.567 294.021,142.289 292.769,145.930 290.949 C 149.494 289.167,149.951 289.200,121.816 289.200 C 95.729 289.200,94.843 289.251,95.745 290.712 C 95.863 290.902,96.138 292.125,96.357 293.429 C 96.575 294.733,97.015 297.330,97.336 299.200 C 97.656 301.070,98.316 305.210,98.802 308.400 C 99.964 316.030,99.776 315.665,102.974 316.496 C 106.857 317.505,111.200 320.614,111.200 322.386 C 111.200 323.178,110.312 322.790,108.526 321.219 C 105.004 318.118,100.600 316.774,100.600 318.800 C 100.600 319.642,100.909 319.903,102.565 320.452 C 110.828 323.192,111.196 332.493,103.200 336.506 C 98.043 339.093,85.448 340.382,79.800 338.900 C 78.920 338.669,77.705 338.369,77.100 338.232 C 76.495 338.096,76.000 337.718,76.000 337.392 C 76.000 336.663,76.146 336.663,80.600 337.395 C 92.231 339.305,104.273 336.506,106.838 331.294 C 108.238 328.448,106.722 324.013,103.887 322.668 C 100.789 321.198,100.360 322.122,103.000 324.580 C 106.703 328.028,104.506 332.168,97.788 334.404 C 96.375 334.874,95.035 335.145,94.809 335.006 C 93.883 334.433,94.504 333.669,96.254 333.228 C 101.054 332.019,103.936 329.184,102.957 326.633 C 102.595 325.690,101.643 325.868,101.140 326.972 C 99.676 330.186,88.485 333.122,82.649 331.824 C 79.254 331.069,78.935 330.799,78.277 328.131 C 77.734 325.931,76.243 325.294,74.765 326.632 C 72.412 328.761,75.430 331.870,81.600 333.674 C 83.541 334.241,83.956 334.921,82.490 335.129 C 81.385 335.286,77.091 333.897,75.296 332.802 C 71.270 330.347,71.547 325.591,75.785 324.404 C 77.212 324.005,77.599 323.715,77.594 323.048 C 77.581 321.228,77.078 321.087,74.562 322.198 C 70.263 324.097,68.456 326.712,68.989 330.265 C 69.340 332.610,68.022 332.687,67.444 330.356 C 66.371 326.025,71.023 320.438,75.727 320.409 C 78.041 320.395,77.815 318.267,75.479 318.075 C 70.550 317.668,64.977 323.919,65.027 329.800 C 65.073 335.266,68.192 338.598,75.136 340.602 C 80.028 342.014,79.007 343.210,74.000 341.933 C 59.807 338.312,60.088 319.547,74.380 316.595 L 76.560 316.145 76.444 302.976 C 76.380 295.733,76.243 289.670,76.140 289.503 C 76.036 289.335,58.862 289.202,37.976 289.206 L 0.000 289.214 0.000 344.607 M90.600 291.255 C 89.720 291.461,86.570 291.758,83.600 291.915 L 78.200 292.200 78.079 294.302 C 77.924 296.990,78.704 297.385,83.400 296.998 C 90.829 296.385,95.027 294.762,94.579 292.674 C 94.129 290.573,93.884 290.486,90.600 291.255 M91.163 297.177 C 88.416 298.041,81.623 298.974,80.140 298.691 C 77.932 298.269,77.001 300.040,79.026 300.810 C 81.986 301.935,93.337 300.434,95.085 298.687 C 96.944 296.827,94.845 296.018,91.163 297.177 M91.600 301.676 C 89.727 302.242,87.529 302.496,83.738 302.584 C 77.351 302.732,76.519 303.233,78.014 306.026 C 79.169 308.183,96.413 305.621,96.395 303.295 C 96.373 300.608,95.789 300.411,91.600 301.676 M222.000 302.800 C 222.000 303.020,221.730 303.200,221.400 303.200 C 221.070 303.200,220.800 303.020,220.800 302.800 C 220.800 302.580,221.070 302.400,221.400 302.400 C 221.730 302.400,222.000 302.580,222.000 302.800 M202.689 305.866 C 202.995 306.784,200.873 306.999,192.309 306.919 C 183.998 306.841,181.625 306.530,182.203 305.596 C 182.554 305.028,202.497 305.291,202.689 305.866 M91.800 307.063 C 89.306 307.740,86.633 308.113,83.100 308.277 C 77.821 308.523,77.032 308.872,78.480 310.320 C 80.276 312.116,97.200 309.707,97.200 307.655 C 97.200 305.781,96.719 305.728,91.800 307.063 M212.000 307.013 C 212.000 307.349,211.718 307.733,211.373 307.866 C 210.621 308.154,209.800 307.446,210.178 306.835 C 210.586 306.176,212.000 306.313,212.000 307.013 M43.750 309.518 C 46.119 310.627,47.262 311.672,46.709 312.224 C 46.605 312.329,45.278 311.830,43.760 311.115 C 38.256 308.526,33.587 309.179,31.537 312.826 C 30.469 314.726,29.724 314.798,28.175 313.151 C 26.086 310.930,22.705 310.177,19.629 311.250 C 17.821 311.880,17.120 311.133,18.606 310.159 C 21.019 308.578,25.457 308.993,28.273 311.064 C 29.861 312.231,29.533 312.310,31.703 310.231 C 33.827 308.196,34.370 308.025,38.245 308.168 C 40.443 308.249,41.693 308.555,43.750 309.518 M174.059 309.099 C 174.903 309.943,173.966 310.504,172.131 310.253 C 168.316 309.730,167.731 308.179,171.466 308.489 C 172.655 308.587,173.822 308.862,174.059 309.099 M193.800 309.793 C 194.900 309.789,196.875 309.699,198.188 309.593 C 201.067 309.360,202.083 310.523,199.435 311.020 C 197.603 311.363,182.816 311.030,181.900 310.624 C 179.529 309.574,181.228 309.149,186.500 309.474 C 189.415 309.653,192.700 309.797,193.800 309.793 M94.447 310.855 C 91.574 311.897,86.610 312.496,82.200 312.333 L 78.600 312.200 78.476 313.701 C 78.207 316.951,88.073 316.900,95.092 313.616 C 99.190 311.698,98.637 309.334,94.447 310.855 M184.800 312.953 C 184.800 313.890,181.253 314.401,180.049 313.639 C 178.985 312.965,180.068 312.400,182.424 312.400 C 184.180 312.400,184.800 312.544,184.800 312.953 M94.800 315.474 C 91.922 316.794,86.649 317.663,82.400 317.517 C 79.006 317.400,79.000 317.402,78.880 318.434 C 78.408 322.494,93.766 320.858,97.781 316.421 C 99.467 314.558,97.890 314.057,94.800 315.474 M261.145 318.426 C 262.194 320.295,259.718 323.391,257.771 322.644 C 257.100 322.387,257.188 322.210,258.564 321.055 C 259.927 319.911,260.057 319.654,259.656 318.904 C 258.623 316.974,260.069 316.509,261.145 318.426 M95.815 319.469 C 91.580 321.672,89.722 322.109,84.400 322.156 L 79.400 322.200 79.400 323.388 C 79.400 325.075,80.672 325.587,84.875 325.594 C 92.599 325.607,99.664 322.624,99.006 319.627 C 98.682 318.152,98.378 318.137,95.815 319.469 M97.200 324.431 C 93.747 326.267,90.764 326.923,85.400 327.026 L 80.200 327.125 80.200 328.257 C 80.200 331.663,91.327 331.355,97.737 327.773 C 99.731 326.658,100.281 325.672,99.608 324.415 C 99.096 323.459,99.028 323.459,97.200 324.431 M250.770 324.964 C 251.105 325.368,251.114 325.606,250.802 325.799 C 250.271 326.127,249.121 325.252,249.428 324.755 C 249.745 324.242,250.234 324.318,250.770 324.964 M112.800 327.449 C 112.800 328.094,111.765 328.191,111.388 327.581 C 111.246 327.350,111.237 326.880,111.369 326.536 C 111.656 325.788,112.800 326.518,112.800 327.449 M112.256 332.643 C 111.119 340.939,101.619 345.792,89.571 344.229 C 87.022 343.898,84.628 343.509,84.251 343.364 C 83.034 342.897,83.815 342.196,85.437 342.300 C 102.676 343.398,109.158 340.956,110.649 332.800 C 111.178 329.905,112.651 329.761,112.256 332.643 M342.307 334.392 C 343.245 334.818,344.903 336.095,345.990 337.229 L 347.967 339.290 350.083 337.523 C 355.176 333.270,358.280 332.657,362.015 335.165 C 363.754 336.333,365.995 339.335,365.998 340.500 C 366.001 341.765,364.877 341.232,363.930 339.518 C 360.991 334.202,355.631 334.092,350.556 339.245 C 348.109 341.729,347.963 341.713,345.019 338.635 C 339.973 333.360,334.501 333.811,328.064 340.033 C 325.163 342.837,324.688 342.897,322.144 340.792 C 316.889 336.446,311.542 336.674,309.285 341.338 C 308.266 343.447,307.386 343.471,307.726 341.381 C 308.641 335.739,317.040 334.512,322.717 339.192 C 324.666 340.799,324.914 340.751,327.623 338.243 C 332.370 333.848,337.908 332.396,342.307 334.392 M72.167 334.243 C 72.885 334.518,73.009 335.424,72.382 335.811 C 71.860 336.133,70.800 335.289,70.800 334.551 C 70.800 333.952,71.184 333.865,72.167 334.243 M89.200 334.557 C 89.200 335.233,88.223 335.660,87.400 335.345 C 86.240 334.900,86.820 334.000,88.267 334.000 C 88.798 334.000,89.200 334.240,89.200 334.557 M161.548 345.973 C 162.488 346.453,164.057 347.680,165.035 348.701 L 166.813 350.557 168.707 348.720 C 174.616 342.986,183.518 343.943,188.430 350.842 C 190.231 353.371,188.624 353.142,185.844 350.473 C 179.660 344.534,170.282 345.518,168.212 352.323 C 167.784 353.730,166.743 353.271,164.758 350.800 C 160.303 345.256,152.567 344.698,149.400 349.693 C 148.004 351.894,147.185 352.065,146.001 350.402 C 142.940 346.103,137.678 346.249,134.679 350.715 C 134.052 351.648,133.374 352.307,133.170 352.182 C 131.887 351.389,134.268 347.723,136.890 346.453 C 139.956 344.969,143.025 345.510,145.909 348.042 L 147.327 349.287 148.564 347.851 C 151.262 344.716,157.356 343.835,161.548 345.973 M220.531 350.541 C 218.701 352.063,217.780 352.400,215.450 352.400 C 212.288 352.400,211.918 353.976,214.928 354.621 C 216.795 355.022,216.910 355.173,216.184 356.280 C 215.353 357.549,215.913 358.289,217.188 357.606 C 218.549 356.878,219.342 357.391,219.057 358.814 C 218.432 361.939,221.309 362.146,222.843 359.087 C 223.308 358.159,224.163 356.893,224.744 356.274 C 227.872 352.937,223.993 347.660,220.531 350.541 M82.334 373.723 C 84.565 374.499,87.300 376.038,90.288 378.200 C 90.700 378.498,91.117 378.277,91.921 377.337 C 95.494 373.156,104.773 373.688,110.118 378.382 C 113.161 381.054,111.932 381.488,108.272 379.034 C 102.140 374.922,95.627 374.891,92.827 378.960 C 91.296 381.187,91.191 381.195,88.856 379.273 C 80.771 372.620,74.406 372.653,69.220 379.375 C 66.325 383.127,66.095 383.121,61.756 379.189 C 58.021 375.804,54.934 375.546,52.209 378.391 C 50.284 380.400,49.106 379.645,50.802 377.489 C 53.775 373.709,58.752 373.990,63.151 378.186 C 66.021 380.924,65.888 380.931,68.357 377.900 C 72.757 372.497,76.012 371.525,82.334 373.723 M243.817 387.781 C 244.582 388.101,246.207 389.307,247.427 390.460 L 249.645 392.558 250.722 391.855 C 257.313 387.553,266.223 387.963,270.571 392.768 C 272.066 394.420,270.693 394.615,268.447 393.070 C 263.076 389.375,256.981 389.366,251.946 393.045 C 249.521 394.818,249.351 394.788,246.786 392.156 C 242.283 387.533,239.286 387.747,232.903 393.149 C 229.403 396.110,229.829 396.095,226.290 393.394 C 219.566 388.262,212.519 388.387,208.986 393.700 C 207.810 395.468,207.200 395.614,207.200 394.126 C 207.200 391.334,212.740 388.000,217.378 388.000 C 220.509 388.000,227.343 391.166,228.599 393.198 C 229.061 393.946,230.245 393.606,231.408 392.392 C 235.376 388.250,240.438 386.369,243.817 387.781 " stroke="none" fill="#fbfbfb" fill-rule="evenodd"></path><path id="path1" d="M8.400 0.322 C 8.400 0.498,9.050 1.263,9.845 2.022 C 11.919 4.001,14.373 7.402,14.968 9.121 C 15.704 11.247,16.526 11.183,18.190 8.868 C 24.272 0.402,36.011 1.245,43.817 10.710 C 57.758 27.611,48.182 48.181,30.487 39.347 C 28.444 38.328,26.714 37.562,26.641 37.647 C 26.130 38.238,25.600 39.706,25.600 40.532 C 25.600 50.226,13.271 57.068,2.003 53.627 C 0.135 53.056,0.000 53.078,0.000 53.947 C 0.000 55.826,8.255 56.898,13.165 55.657 C 21.051 53.662,25.435 49.292,27.064 41.800 C 27.480 39.887,27.478 39.887,32.162 41.822 C 50.864 49.548,59.427 24.443,43.590 8.321 C 35.553 0.140,25.919 -0.908,18.991 5.644 C 16.470 8.028,16.331 8.036,15.062 5.870 C 12.805 2.019,8.400 -1.650,8.400 0.322 M383.944 2.510 C 382.923 3.879,381.502 6.051,380.786 7.335 C 379.170 10.234,378.964 10.310,376.555 8.901 C 369.475 4.761,358.789 3.233,353.064 5.542 C 337.340 11.885,332.244 32.681,343.449 44.784 C 349.802 51.646,359.053 52.002,369.356 45.780 C 372.214 44.054,372.439 44.119,373.324 46.926 C 375.311 53.230,381.120 58.592,387.105 59.646 C 391.454 60.412,400.000 58.776,400.000 57.177 C 400.000 56.375,398.911 56.383,397.200 57.196 C 394.116 58.661,387.481 58.668,384.103 57.210 C 379.989 55.433,374.850 48.675,374.171 44.147 C 373.793 41.623,373.309 41.620,369.104 44.115 C 358.796 50.230,351.184 50.174,344.880 43.938 C 335.007 34.170,338.081 15.683,350.810 8.282 C 357.059 4.649,367.859 5.563,376.070 10.420 C 379.601 12.509,379.597 12.510,381.797 8.700 C 382.845 6.885,384.677 4.185,385.868 2.700 L 388.034 0.000 386.917 0.010 C 386.018 0.018,385.438 0.505,383.944 2.510 M178.000 31.844 C 136.189 36.689,103.336 55.914,81.363 88.396 C 78.294 92.933,78.568 92.811,75.095 91.186 C 65.394 86.646,54.908 91.440,51.393 102.021 C 50.537 104.598,50.522 104.602,47.416 103.149 C 35.528 97.586,18.929 105.866,21.111 116.271 C 23.682 128.527,35.930 134.573,48.554 129.816 C 52.879 128.186,52.925 128.195,53.403 130.774 C 53.846 133.165,56.017 136.735,58.290 138.813 L 60.446 140.783 60.002 144.492 C 57.229 167.643,60.090 190.176,68.391 210.578 C 70.197 215.017,70.178 215.200,67.902 215.200 C 58.965 215.200,52.187 220.888,47.231 232.547 L 46.403 234.494 44.102 232.126 C 40.750 228.677,38.245 227.817,31.600 227.833 C 22.873 227.854,19.282 230.101,14.693 238.409 C 14.012 239.643,13.954 239.665,13.093 239.033 C 8.722 235.825,7.299 235.250,2.900 234.915 C 0.138 234.705,0.000 234.735,0.000 235.547 C 0.000 236.311,0.223 236.400,2.127 236.400 C 9.824 236.400,13.435 239.841,11.999 245.805 C 11.309 248.669,11.191 249.751,11.531 250.091 C 12.192 250.752,12.378 250.413,13.253 246.935 C 14.369 242.502,17.516 236.206,19.869 233.702 C 26.479 226.665,40.969 227.886,44.801 235.802 C 46.359 239.021,46.797 238.766,48.655 233.564 C 52.446 222.945,59.463 216.824,67.867 216.805 C 70.816 216.798,71.081 216.982,72.672 220.151 C 75.976 226.730,80.323 233.744,84.666 239.503 C 87.617 243.415,87.622 243.676,84.774 245.065 C 80.853 246.977,74.102 247.320,69.852 245.822 C 67.454 244.977,66.840 245.364,67.614 247.233 C 69.022 250.632,73.950 254.118,79.200 255.429 C 82.603 256.278,82.560 256.203,81.629 259.636 C 80.367 264.294,78.349 275.079,77.594 281.200 C 77.364 283.070,77.097 285.215,77.002 285.968 C 76.737 288.059,78.112 287.987,37.900 287.994 C 4.481 287.999,0.000 288.071,0.000 288.600 C 0.000 289.268,-3.121 289.229,48.272 289.200 C 63.491 289.192,76.030 289.325,76.136 289.496 C 76.241 289.667,76.380 295.733,76.444 302.976 L 76.560 316.145 74.380 316.595 C 60.088 319.547,59.807 338.312,74.000 341.933 C 79.007 343.210,80.028 342.014,75.136 340.602 C 68.192 338.598,65.073 335.266,65.027 329.800 C 64.977 323.919,70.550 317.668,75.479 318.075 C 77.815 318.267,78.041 320.395,75.727 320.409 C 71.023 320.438,66.371 326.025,67.444 330.356 C 68.022 332.687,69.340 332.610,68.989 330.265 C 68.456 326.712,70.263 324.097,74.562 322.198 C 77.078 321.087,77.581 321.228,77.594 323.048 C 77.599 323.715,77.212 324.005,75.785 324.404 C 71.547 325.591,71.270 330.347,75.296 332.802 C 77.091 333.897,81.385 335.286,82.490 335.129 C 83.956 334.921,83.541 334.241,81.600 333.674 C 75.430 331.870,72.412 328.761,74.765 326.632 C 76.243 325.294,77.734 325.931,78.277 328.131 C 78.935 330.799,79.254 331.069,82.649 331.824 C 88.485 333.122,99.676 330.186,101.140 326.972 C 101.643 325.868,102.595 325.690,102.957 326.633 C 103.936 329.184,101.054 332.019,96.254 333.228 C 94.504 333.669,93.883 334.433,94.809 335.006 C 95.035 335.145,96.375 334.874,97.788 334.404 C 104.506 332.168,106.703 328.028,103.000 324.580 C 100.360 322.122,100.789 321.198,103.887 322.668 C 106.722 324.013,108.238 328.448,106.838 331.294 C 104.273 336.506,92.231 339.305,80.600 337.395 C 76.146 336.663,76.000 336.663,76.000 337.392 C 76.000 337.718,76.495 338.096,77.100 338.232 C 77.705 338.369,78.920 338.669,79.800 338.900 C 85.448 340.382,98.043 339.093,103.200 336.506 C 111.196 332.493,110.828 323.192,102.565 320.452 C 100.909 319.903,100.600 319.642,100.600 318.800 C 100.600 316.774,105.004 318.118,108.526 321.219 C 110.312 322.790,111.200 323.178,111.200 322.386 C 111.200 320.614,106.857 317.505,102.974 316.496 C 99.776 315.665,99.964 316.030,98.802 308.400 C 98.316 305.210,97.656 301.070,97.336 299.200 C 97.015 297.330,96.575 294.733,96.357 293.429 C 96.138 292.125,95.863 290.902,95.745 290.712 C 94.843 289.251,95.729 289.200,121.816 289.200 C 149.951 289.200,149.494 289.167,145.930 290.949 C 142.289 292.769,141.567 294.021,141.648 298.371 C 141.683 300.257,141.575 302.827,141.408 304.082 C 140.720 309.248,143.664 312.252,151.200 314.069 C 153.574 314.642,173.986 314.794,176.127 314.255 C 178.735 313.598,177.246 312.583,173.993 312.800 C 166.578 313.296,153.059 312.997,150.400 312.279 C 144.856 310.782,141.730 307.412,142.745 304.027 C 142.995 303.191,143.200 300.807,143.200 298.728 C 143.200 293.630,144.748 292.077,150.630 291.274 C 155.029 290.674,156.129 291.713,152.852 293.374 C 142.732 298.502,149.115 310.569,161.400 309.535 C 164.630 309.263,163.382 308.233,159.400 307.886 C 150.067 307.071,146.184 300.756,152.004 295.858 C 155.420 292.984,158.933 293.828,156.190 296.864 C 154.366 298.883,154.230 300.476,155.705 302.548 C 157.659 305.292,170.446 307.739,174.567 306.157 C 175.199 305.915,175.468 304.810,174.900 304.789 C 174.735 304.783,171.990 304.714,168.800 304.636 C 160.911 304.443,157.569 303.363,156.634 300.704 C 155.916 298.664,158.239 296.274,159.806 297.441 C 161.947 299.035,162.571 299.242,166.833 299.770 C 184.563 301.964,215.366 301.422,229.600 298.666 C 231.250 298.346,233.860 297.869,235.400 297.605 C 236.940 297.341,238.699 296.774,239.309 296.344 C 241.271 294.962,241.800 296.025,240.135 298.004 C 238.547 299.892,235.301 300.766,227.500 301.407 C 224.442 301.658,224.000 301.790,224.000 302.447 C 224.000 303.346,223.674 303.339,230.400 302.595 C 240.567 301.471,244.209 298.933,241.967 294.535 C 240.574 291.804,241.285 291.144,243.469 293.139 C 246.423 295.837,246.556 297.781,243.977 300.578 C 240.928 303.887,238.130 304.599,225.316 305.329 C 216.480 305.832,215.680 305.959,216.184 306.773 C 216.842 307.839,234.076 306.766,238.800 305.364 C 247.870 302.674,250.137 295.797,243.523 291.043 C 242.679 290.436,242.092 289.774,242.218 289.570 C 243.568 287.386,249.600 295.198,249.600 299.131 C 249.600 306.600,240.398 309.874,218.400 310.232 C 204.209 310.463,201.600 310.649,201.600 311.432 C 201.600 312.802,228.432 312.041,236.600 310.440 C 250.471 307.720,255.390 299.218,247.792 291.095 C 247.224 290.488,246.869 289.813,247.003 289.595 C 247.445 288.880,258.782 289.088,259.062 289.817 C 259.454 290.839,257.185 306.920,256.073 311.000 L 255.746 312.200 251.973 312.417 C 243.740 312.889,240.316 318.873,245.750 323.291 C 247.867 325.012,248.502 324.052,246.623 321.972 C 243.103 318.077,245.477 313.957,251.200 314.029 C 254.037 314.064,255.826 314.730,253.200 314.773 C 247.893 314.861,246.612 321.983,251.900 321.999 C 252.805 322.001,252.422 320.967,251.176 320.046 C 249.069 318.488,250.748 315.899,253.429 316.572 C 254.750 316.903,254.700 317.568,252.806 324.861 C 248.975 339.619,249.549 338.813,239.000 344.217 C 229.495 349.086,227.090 349.944,225.526 349.020 C 223.586 347.874,221.652 348.027,219.342 349.509 C 217.634 350.605,216.959 350.800,214.874 350.800 C 211.055 350.800,210.038 353.276,212.834 355.768 C 213.476 356.339,214.000 357.137,214.000 357.541 C 214.000 358.402,215.201 359.600,216.065 359.600 C 216.395 359.600,217.252 360.330,217.969 361.221 C 220.057 363.820,222.083 363.472,223.913 360.200 C 224.651 358.880,225.737 357.294,226.327 356.675 C 227.181 355.778,227.404 355.147,227.427 353.567 C 227.461 351.241,227.439 351.265,230.800 349.826 C 243.110 344.552,252.380 338.926,251.378 337.337 C 251.064 336.840,251.339 335.419,252.482 331.637 C 253.319 328.867,254.660 323.945,255.462 320.700 C 257.108 314.037,257.162 313.983,260.631 315.559 C 266.277 318.122,265.091 323.942,258.648 325.294 C 255.885 325.873,255.580 326.800,258.151 326.800 C 267.150 326.800,268.493 316.622,259.893 313.600 C 257.500 312.759,257.386 312.500,258.000 309.324 C 258.247 308.046,258.619 305.965,258.825 304.700 C 259.031 303.435,259.387 301.275,259.615 299.900 C 259.843 298.525,260.189 295.710,260.383 293.644 C 260.604 291.287,260.934 289.761,261.268 289.550 C 261.560 289.364,292.895 289.209,330.900 289.206 C 399.731 289.200,400.000 289.197,400.000 288.400 C 400.000 287.603,399.733 287.600,330.539 287.600 L 261.078 287.600 261.351 282.900 C 261.501 280.315,261.736 276.260,261.872 273.890 L 262.121 269.579 264.160 268.100 C 280.418 256.310,293.758 241.427,302.615 225.200 C 305.333 220.222,305.978 219.535,307.519 219.977 C 313.046 221.562,318.987 228.612,321.815 236.942 C 323.223 241.088,323.349 241.155,325.984 239.175 C 336.427 231.329,348.657 239.020,353.347 256.382 C 354.940 262.278,354.952 262.286,357.967 259.495 C 369.177 249.116,393.172 255.398,398.794 270.183 C 399.348 271.641,400.000 271.436,400.000 269.804 C 400.000 267.841,395.798 262.209,391.846 258.874 C 383.091 251.486,366.424 250.795,357.691 257.456 C 355.879 258.838,355.518 258.565,354.647 255.150 C 350.430 238.615,338.341 230.686,326.674 236.802 C 323.907 238.252,324.030 238.326,322.482 234.306 C 319.512 226.595,311.921 218.436,307.687 218.404 C 306.664 218.396,306.797 217.278,308.215 213.971 C 311.262 206.867,313.306 200.941,315.163 193.825 L 316.200 189.849 318.800 189.207 C 323.178 188.126,326.025 185.760,329.826 180.044 C 331.923 176.891,332.108 176.782,333.011 178.160 C 333.846 179.435,336.146 180.913,338.571 181.733 C 356.410 187.767,377.922 161.757,365.259 149.466 C 357.266 141.708,346.076 141.771,336.728 149.627 C 334.345 151.630,334.178 151.608,333.603 149.213 C 332.324 143.882,325.731 138.046,319.112 136.385 C 316.680 135.775,316.685 135.782,315.424 130.600 C 310.742 111.352,299.926 90.225,287.883 76.800 C 265.420 51.759,239.525 37.547,207.600 32.736 C 202.439 31.959,182.260 31.350,178.000 31.844 M202.200 33.799 C 212.848 35.009,220.030 36.577,229.800 39.827 C 270.186 53.260,301.599 86.620,312.984 128.168 C 315.017 135.587,315.026 135.536,311.600 136.219 C 306.482 137.240,298.400 145.828,298.400 150.246 C 298.400 151.032,297.767 150.939,295.440 149.811 C 288.798 146.592,277.686 148.037,272.227 152.830 C 263.885 160.154,271.633 175.825,284.704 178.066 C 288.543 178.724,292.733 177.963,298.166 175.620 C 300.479 174.622,300.467 174.612,301.389 178.130 C 302.805 183.529,306.966 187.408,313.500 189.421 C 314.285 189.663,314.097 191.343,312.771 195.940 C 304.680 223.989,288.992 246.990,266.106 264.356 C 261.882 267.561,262.000 267.705,262.000 259.345 C 262.000 255.491,261.830 250.237,261.622 247.669 C 261.414 245.101,261.044 240.210,260.800 236.800 C 260.181 228.173,259.081 221.131,258.242 220.434 C 256.682 219.140,238.207 222.068,228.200 225.194 C 226.660 225.676,224.374 226.360,223.120 226.714 L 220.841 227.359 219.150 225.379 C 218.220 224.291,216.160 222.140,214.572 220.600 C 211.688 217.802,211.685 217.798,211.438 215.200 C 210.982 210.413,209.879 207.868,205.219 200.863 C 203.999 199.027,202.686 197.047,202.302 196.463 C 201.211 194.801,201.450 194.336,204.496 192.200 C 209.274 188.848,208.602 188.344,201.861 190.224 C 199.255 190.951,196.915 191.462,196.661 191.359 C 196.233 191.187,188.615 179.792,161.990 139.500 C 156.211 130.755,151.233 123.600,150.927 123.600 C 150.621 123.600,146.941 125.670,142.749 128.200 C 138.556 130.730,134.963 132.800,134.763 132.800 C 133.705 132.800,136.319 137.919,147.425 157.600 C 150.148 162.425,155.201 171.522,157.200 175.200 C 159.631 179.671,165.249 189.821,167.385 193.600 C 173.805 204.961,174.123 205.667,173.253 206.620 C 172.419 207.534,168.800 214.801,168.800 215.561 C 168.800 216.823,169.496 216.594,172.983 214.186 C 176.723 211.602,176.205 211.373,179.799 217.200 C 181.088 219.290,182.651 221.656,183.271 222.458 C 184.852 224.499,184.737 224.862,181.775 227.190 C 175.589 232.052,173.249 239.047,175.986 244.497 C 176.510 245.541,176.863 246.469,176.769 246.561 C 176.676 246.653,174.800 248.034,172.600 249.630 L 168.600 252.532 164.210 253.261 C 147.135 256.094,138.400 259.354,138.400 262.895 C 138.400 264.518,142.748 274.329,145.461 278.831 C 148.405 283.714,148.384 283.726,141.565 280.986 C 127.573 275.363,113.784 266.757,102.932 256.876 C 97.196 251.653,96.753 250.432,100.576 250.385 C 103.213 250.353,108.912 249.003,109.350 248.308 C 109.872 247.479,106.896 244.187,104.157 242.564 C 100.227 240.236,94.360 239.588,91.308 241.145 C 88.963 242.341,89.113 242.426,85.855 238.047 C 65.922 211.264,56.909 175.847,61.844 143.700 C 62.142 141.760,62.085 141.776,65.701 142.653 C 71.939 144.167,76.874 141.393,82.341 133.300 C 84.339 130.342,84.218 130.370,86.203 132.403 C 88.267 134.517,91.283 135.636,95.600 135.888 C 113.368 136.928,128.803 113.741,117.534 102.938 C 109.323 95.067,98.354 95.183,88.798 103.241 C 86.681 105.025,86.022 104.982,86.006 103.058 C 85.995 101.714,83.973 98.249,81.955 96.115 C 79.592 93.616,79.463 94.097,84.315 87.319 C 111.368 49.527,157.259 28.692,202.200 33.799 M71.319 91.391 C 78.719 93.636,84.800 100.030,84.800 105.566 C 84.800 108.433,85.632 108.402,88.890 105.414 C 96.815 98.147,104.890 96.732,112.743 101.236 C 121.407 106.205,122.330 114.079,115.389 123.800 C 107.250 135.199,91.391 138.212,85.831 129.414 C 84.366 127.097,84.297 127.129,81.677 131.365 C 79.165 135.424,75.734 139.107,73.315 140.341 C 66.165 143.989,55.477 137.483,54.871 129.115 C 54.634 125.837,54.395 125.769,49.794 127.663 C 40.219 131.605,33.293 130.709,27.591 124.790 C 18.286 115.132,22.413 104.928,36.332 103.179 C 41.462 102.535,47.782 104.106,50.095 106.601 C 51.393 108.000,51.828 107.709,52.120 105.243 C 53.202 96.114,63.173 88.919,71.319 91.391 M153.398 129.416 C 156.661 134.315,174.589 161.408,186.174 178.948 L 195.651 193.296 196.925 193.074 C 197.626 192.952,198.830 192.728,199.600 192.576 L 201.000 192.300 200.200 193.114 C 199.760 193.562,196.340 196.049,192.600 198.641 C 188.860 201.233,183.114 205.219,179.831 207.499 C 171.277 213.441,171.485 213.396,173.800 208.800 C 175.716 204.996,175.903 205.621,169.267 193.678 C 137.166 135.903,136.311 134.329,136.772 133.868 C 137.785 132.855,149.837 125.659,150.398 125.732 C 150.727 125.775,152.077 127.433,153.398 129.416 M320.908 138.585 C 327.369 141.184,331.699 146.039,332.345 151.408 C 332.811 155.283,332.546 155.289,337.248 151.290 C 344.652 144.993,351.831 143.602,358.884 147.096 C 369.913 152.561,370.532 162.792,360.468 173.289 C 351.719 182.415,338.325 183.863,333.668 176.186 C 332.157 173.694,331.605 173.888,329.396 177.690 C 323.927 187.103,317.426 190.068,310.245 186.423 C 305.737 184.135,302.882 180.122,302.433 175.440 C 302.146 172.447,301.817 172.331,298.124 173.927 C 288.218 178.207,281.408 177.459,275.370 171.428 C 268.199 164.264,268.714 155.714,276.548 151.878 C 283.583 148.433,293.291 148.990,297.667 153.088 C 299.013 154.347,299.424 154.089,299.740 151.785 C 301.139 141.579,311.810 134.924,320.908 138.585 M202.468 199.564 C 205.381 203.766,205.405 204.175,202.772 204.807 C 200.261 205.409,198.023 205.087,195.323 203.733 L 193.246 202.692 190.723 204.902 C 187.695 207.555,183.647 209.822,181.252 210.206 C 178.063 210.718,178.490 210.342,190.800 201.806 C 192.670 200.509,195.280 198.679,196.600 197.739 C 199.665 195.556,199.698 195.567,202.468 199.564 M195.467 205.632 C 197.323 206.431,200.924 206.537,205.579 205.928 C 207.599 205.664,210.216 212.320,209.912 216.950 C 209.283 226.540,198.277 232.689,190.700 227.684 C 188.947 226.527,188.797 226.000,190.220 226.000 C 191.478 226.000,193.457 225.029,194.848 223.729 C 195.424 223.191,196.504 222.446,197.248 222.075 C 199.497 220.952,199.169 218.000,196.795 218.000 C 195.240 218.000,194.297 219.387,194.651 221.156 C 195.207 223.936,190.903 226.103,189.000 224.000 C 188.555 223.508,187.768 223.200,186.957 223.200 C 185.713 223.200,185.457 222.924,182.419 218.306 C 179.015 213.131,178.600 212.003,180.100 211.996 C 183.140 211.981,187.552 209.744,191.701 206.113 C 193.479 204.558,193.087 204.608,195.467 205.632 M191.700 213.714 C 190.728 214.155,190.488 214.804,191.300 214.794 C 192.063 214.785,192.916 214.141,192.749 213.699 C 192.652 213.444,192.284 213.450,191.700 213.714 M183.784 216.827 C 183.639 217.061,183.616 217.349,183.733 217.467 C 184.020 217.753,184.800 217.248,184.800 216.776 C 184.800 216.265,184.109 216.299,183.784 216.827 M187.467 217.467 C 186.851 218.082,187.197 220.000,187.924 220.000 C 189.594 220.000,190.305 218.894,189.200 218.014 C 188.106 217.143,187.866 217.067,187.467 217.467 M214.420 222.700 C 218.686 227.169,218.990 227.570,218.490 228.070 C 217.931 228.629,210.578 231.200,209.537 231.200 C 208.193 231.200,208.495 225.780,210.006 222.789 C 211.491 219.847,211.694 219.843,214.420 222.700 M257.091 222.100 C 257.631 222.794,258.292 226.591,258.779 231.800 C 259.006 234.220,259.377 238.090,259.605 240.400 C 259.833 242.710,260.134 249.938,260.274 256.462 L 260.527 268.324 257.764 270.087 C 253.544 272.780,247.686 276.000,247.007 276.000 C 246.245 276.000,246.246 275.963,247.145 272.155 C 248.008 268.496,249.434 261.860,249.956 259.067 C 250.724 254.956,245.748 252.084,235.600 250.781 C 231.086 250.201,231.374 250.405,230.433 247.117 C 229.411 243.542,226.804 237.530,224.395 233.191 C 222.071 229.005,222.054 228.916,223.500 228.348 C 231.433 225.231,242.545 222.895,254.400 221.851 C 255.170 221.783,256.003 221.699,256.251 221.664 C 256.499 221.629,256.877 221.825,257.091 222.100 M187.821 227.500 C 188.580 228.105,189.200 228.797,189.200 229.037 C 189.200 229.513,185.922 232.393,184.553 233.121 C 184.087 233.369,183.593 234.136,183.455 234.826 C 183.317 235.515,182.753 236.616,182.202 237.271 C 181.651 237.926,181.084 239.182,180.944 240.062 C 180.745 241.303,180.454 241.749,179.644 242.049 C 179.070 242.262,178.374 242.733,178.099 243.097 C 176.422 245.305,175.916 237.975,177.523 234.746 C 178.684 232.411,180.779 229.952,183.308 227.953 C 185.645 226.105,186.025 226.067,187.821 227.500 M207.119 230.016 L 207.000 232.432 202.800 234.232 C 200.490 235.222,197.122 236.760,195.317 237.650 C 191.509 239.526,191.160 239.456,191.466 236.876 C 191.714 234.777,191.321 234.177,189.352 233.650 C 187.723 233.215,187.780 232.631,189.579 231.308 L 191.193 230.121 193.485 230.705 C 196.569 231.491,200.100 230.911,203.600 229.044 C 207.200 227.123,207.261 227.140,207.119 230.016 M219.757 230.633 C 222.746 238.422,211.968 247.599,201.000 246.603 C 193.789 245.948,192.396 245.437,192.406 243.451 C 192.418 241.072,192.556 241.023,199.885 240.752 C 209.253 240.407,209.948 240.047,209.420 235.823 C 209.098 233.248,209.070 233.274,214.200 231.461 C 218.760 229.850,219.419 229.751,219.757 230.633 M225.745 239.400 C 229.233 247.129,231.728 256.389,230.628 257.526 C 229.641 258.546,220.180 260.129,208.600 261.210 C 205.960 261.456,202.270 261.824,200.400 262.028 C 196.297 262.474,190.917 262.514,190.665 262.100 C 190.564 261.935,190.644 260.360,190.841 258.600 C 191.039 256.840,191.316 253.660,191.456 251.532 C 191.790 246.506,191.657 246.655,195.156 247.391 C 208.259 250.147,219.829 244.773,221.397 235.200 C 221.967 231.725,222.525 232.264,225.745 239.400 M207.726 236.100 C 208.037 238.380,207.638 238.678,203.610 239.179 C 194.465 240.316,194.463 239.476,203.600 235.541 C 207.156 234.010,207.447 234.049,207.726 236.100 M188.500 235.221 C 190.231 235.702,190.473 236.640,189.011 237.196 C 187.783 237.663,187.419 238.924,187.408 242.744 L 187.400 245.689 188.800 246.147 C 190.098 246.573,190.198 246.723,190.171 248.203 C 190.123 250.786,189.213 259.696,188.864 261.000 L 188.542 262.200 181.971 262.200 L 175.400 262.200 175.400 261.000 L 175.400 259.800 180.061 259.688 C 185.767 259.550,185.398 259.968,186.147 252.794 C 186.849 246.076,186.996 246.384,182.935 246.055 C 180.079 245.823,179.789 245.720,179.672 244.900 C 179.553 244.061,179.692 244.000,181.723 244.000 C 184.340 244.000,184.541 243.796,185.435 240.238 C 185.971 238.104,186.021 237.326,185.662 236.751 C 184.503 234.894,185.461 234.377,188.500 235.221 M183.629 240.923 C 183.404 241.516,183.035 242.000,182.810 242.000 C 182.147 242.000,182.340 239.862,183.100 238.789 L 183.800 237.800 183.919 238.823 C 183.985 239.386,183.854 240.331,183.629 240.923 M190.927 241.204 C 191.402 242.581,190.652 244.400,189.610 244.400 C 188.753 244.400,188.517 242.898,189.057 240.881 C 189.375 239.695,190.472 239.884,190.927 241.204 M98.480 242.050 C 101.110 242.608,103.795 243.964,105.500 245.596 C 107.518 247.527,107.270 247.799,102.818 248.539 C 96.732 249.549,97.038 249.639,95.835 246.492 C 93.989 241.660,94.286 241.160,98.480 242.050 M94.181 246.400 C 94.757 248.050,95.333 249.713,95.460 250.096 C 95.645 250.655,94.987 251.132,92.146 252.496 C 85.324 255.774,76.775 254.752,71.900 250.076 C 69.788 248.050,69.943 247.919,74.100 248.218 C 80.162 248.653,84.210 247.565,89.631 244.043 C 92.641 242.087,92.684 242.109,94.181 246.400 M90.614 246.378 C 90.228 247.003,90.736 247.600,91.653 247.600 C 92.203 247.600,92.416 247.379,92.325 246.905 C 92.171 246.108,91.003 245.748,90.614 246.378 M184.535 248.083 C 185.027 248.339,185.203 248.752,185.066 249.333 C 184.954 249.810,184.736 251.640,184.582 253.400 C 184.168 258.136,184.173 258.130,180.166 257.920 C 178.320 257.823,176.678 257.611,176.515 257.448 C 176.168 257.101,178.291 248.443,178.910 247.679 C 179.374 247.107,183.185 247.380,184.535 248.083 M176.400 250.200 C 176.400 251.135,174.842 252.463,173.907 252.325 C 172.610 252.133,172.681 251.488,174.106 250.525 C 175.643 249.485,176.400 249.378,176.400 250.200 M240.884 253.273 C 246.148 254.649,248.951 256.975,246.500 257.933 C 237.132 261.592,225.259 263.559,207.400 264.409 C 202.560 264.639,196.800 264.993,194.600 265.196 C 181.013 266.446,146.245 265.938,142.281 264.431 C 136.662 262.295,143.050 258.989,158.986 255.784 C 167.186 254.136,175.000 253.655,175.000 254.800 C 175.000 255.467,174.001 255.724,168.800 256.393 C 151.395 258.635,142.645 262.273,151.884 263.428 C 155.993 263.941,198.616 263.845,203.200 263.312 C 205.510 263.043,209.650 262.632,212.400 262.398 C 221.218 261.647,230.538 259.816,240.400 256.897 C 245.395 255.418,242.351 253.724,234.524 253.626 C 232.461 253.600,231.710 253.192,232.217 252.373 C 232.576 251.792,236.968 252.249,240.884 253.273 M100.918 257.526 C 114.936 270.070,129.780 279.003,145.603 284.418 C 149.759 285.840,151.432 286.952,150.400 287.607 C 149.692 288.057,96.439 288.141,95.742 287.694 C 95.491 287.532,94.988 286.140,94.625 284.600 C 93.347 279.177,93.079 278.160,91.781 273.800 C 89.580 266.405,87.774 262.100,85.437 258.682 C 84.037 256.634,84.024 256.655,87.150 255.922 C 88.662 255.567,91.047 254.732,92.450 254.066 C 93.852 253.401,95.143 252.843,95.318 252.828 C 95.493 252.813,98.013 254.927,100.918 257.526 M43.800 254.176 C 38.943 255.761,34.343 258.701,31.563 261.998 L 29.891 263.981 27.760 262.033 C 24.142 258.726,19.892 257.421,17.777 258.967 C 16.672 259.775,17.303 260.157,19.574 260.053 C 23.438 259.877,31.200 266.304,31.200 269.680 C 31.200 269.856,31.560 270.000,32.000 270.000 C 32.999 270.000,32.996 269.879,31.941 267.768 C 30.795 265.473,31.280 264.330,34.751 261.150 C 37.374 258.746,42.988 255.600,44.653 255.600 C 45.945 255.600,47.144 254.512,46.400 254.014 C 45.681 253.533,45.792 253.526,43.800 254.176 M307.000 255.450 C 303.073 256.296,298.761 258.451,297.093 260.400 C 295.393 262.386,295.550 262.400,292.961 260.034 C 290.661 257.931,287.079 256.361,286.319 257.121 C 285.683 257.757,286.283 258.338,288.073 258.820 C 290.381 259.441,293.705 262.702,295.269 265.879 C 296.982 269.359,298.792 269.870,297.372 266.472 C 295.524 262.049,301.227 257.539,310.026 256.465 C 311.574 256.276,312.200 256.027,312.200 255.600 C 312.200 254.769,310.401 254.718,307.000 255.450 M236.988 255.580 C 237.287 256.064,236.190 256.653,234.348 256.999 C 232.911 257.268,232.024 256.531,232.622 255.564 C 232.921 255.081,236.688 255.094,236.988 255.580 M174.067 258.800 C 173.994 259.570,173.719 260.650,173.457 261.200 L 172.980 262.200 163.190 262.088 C 151.594 261.956,149.482 261.523,155.014 260.414 C 156.106 260.195,158.170 259.766,159.600 259.461 C 161.030 259.155,163.730 258.688,165.600 258.421 C 167.470 258.154,169.810 257.789,170.800 257.608 C 173.838 257.055,174.220 257.194,174.067 258.800 M248.000 260.204 C 248.000 261.091,246.707 267.494,246.171 269.263 C 245.944 270.010,245.311 270.313,243.000 270.781 C 242.120 270.959,240.050 271.381,238.400 271.718 C 236.750 272.055,234.140 272.534,232.600 272.781 C 231.060 273.029,228.810 273.397,227.600 273.600 C 213.690 275.932,198.878 277.693,187.400 278.378 C 175.737 279.075,164.081 279.229,156.800 278.783 C 145.787 278.108,147.071 278.743,143.905 272.400 C 140.769 266.115,140.702 265.818,142.500 266.146 C 147.495 267.057,159.686 267.652,168.600 267.420 C 191.045 266.835,212.538 265.896,218.400 265.244 C 220.270 265.036,222.970 264.754,224.400 264.618 C 227.127 264.357,229.421 263.990,234.400 263.018 C 237.402 262.432,246.303 259.830,246.715 259.418 C 247.280 258.853,248.000 259.293,248.000 260.204 M84.348 260.137 C 84.837 260.727,84.564 261.200,83.733 261.200 C 83.440 261.200,83.200 260.840,83.200 260.400 C 83.200 259.477,83.704 259.361,84.348 260.137 M85.800 263.400 C 85.800 263.865,83.809 264.166,82.941 263.833 C 82.615 263.708,82.467 263.415,82.612 263.181 C 82.938 262.654,85.800 262.851,85.800 263.400 M87.399 265.996 C 87.780 267.197,87.409 267.482,85.087 267.772 C 82.754 268.063,81.600 267.801,81.600 266.981 C 81.600 265.466,86.943 264.559,87.399 265.996 M88.358 269.166 C 89.490 269.882,88.470 270.706,85.898 271.154 C 82.523 271.741,81.796 271.718,81.200 271.000 C 80.522 270.183,81.427 269.080,82.570 269.330 C 83.216 269.471,86.194 269.192,87.600 268.860 C 87.710 268.834,88.051 268.971,88.358 269.166 M260.058 277.034 C 259.980 280.095,259.800 283.680,259.658 285.000 L 259.400 287.400 251.491 287.508 C 242.227 287.636,242.688 287.911,244.191 283.154 C 245.501 279.006,245.263 279.264,250.208 276.624 C 252.483 275.409,255.483 273.693,256.873 272.811 C 260.279 270.650,260.223 270.575,260.058 277.034 M245.200 273.168 C 245.200 275.466,239.167 294.193,238.075 295.285 C 237.892 295.468,236.226 295.888,234.371 296.219 C 232.517 296.550,229.560 297.086,227.800 297.410 C 214.034 299.942,175.119 300.257,164.226 297.925 C 161.307 297.300,155.309 290.844,149.068 281.611 C 147.922 279.915,148.115 279.860,153.900 280.236 C 166.109 281.030,186.744 280.394,201.600 278.765 C 209.018 277.952,218.656 276.627,224.600 275.603 C 225.700 275.413,228.130 275.033,230.000 274.757 C 231.870 274.481,235.830 273.764,238.800 273.163 C 245.621 271.785,245.200 271.785,245.200 273.168 M90.080 273.415 C 90.854 275.114,89.931 275.591,85.373 275.852 C 80.660 276.122,79.480 275.659,80.300 273.860 C 80.739 272.896,80.971 272.825,84.084 272.698 C 85.908 272.624,87.899 272.526,88.509 272.481 C 89.350 272.420,89.729 272.645,90.080 273.415 M91.123 278.062 C 91.322 279.780,81.424 281.367,79.916 279.858 C 78.333 278.276,79.397 277.603,83.547 277.560 C 85.666 277.538,87.850 277.373,88.400 277.193 C 90.132 276.626,90.988 276.899,91.123 278.062 M92.420 282.047 C 93.471 284.585,91.412 285.521,84.674 285.569 C 80.059 285.602,78.800 285.257,78.800 283.960 C 78.800 281.850,79.327 281.603,83.914 281.560 C 86.271 281.538,88.650 281.376,89.200 281.200 C 91.194 280.561,91.879 280.742,92.420 282.047 M93.600 287.835 C 93.600 289.464,88.402 290.584,82.000 290.333 L 78.600 290.200 78.600 288.600 L 78.600 287.000 83.400 287.112 C 86.464 287.183,88.996 287.027,90.400 286.681 C 92.851 286.076,93.600 286.346,93.600 287.835 M94.129 291.100 C 96.003 294.283,92.417 296.254,83.400 296.998 C 78.704 297.385,77.924 296.990,78.079 294.302 L 78.200 292.200 83.600 291.915 C 86.570 291.758,89.720 291.461,90.600 291.255 C 92.648 290.776,93.906 290.720,94.129 291.100 M95.414 297.245 C 96.214 299.763,83.531 302.523,79.026 300.810 C 77.001 300.040,77.932 298.269,80.140 298.691 C 81.623 298.974,88.416 298.041,91.163 297.177 C 94.231 296.212,95.091 296.225,95.414 297.245 M96.148 301.700 C 96.810 304.170,96.141 304.615,89.731 305.974 C 81.693 307.679,77.600 307.097,77.600 304.250 C 77.600 302.806,77.920 302.719,83.738 302.584 C 87.529 302.496,89.727 302.242,91.600 301.676 C 95.147 300.604,95.855 300.608,96.148 301.700 M220.800 302.800 C 220.800 303.020,221.070 303.200,221.400 303.200 C 221.730 303.200,222.000 303.020,222.000 302.800 C 222.000 302.580,221.730 302.400,221.400 302.400 C 221.070 302.400,220.800 302.580,220.800 302.800 M182.203 305.596 C 181.625 306.530,183.998 306.841,192.309 306.919 C 200.873 306.999,202.995 306.784,202.689 305.866 C 202.497 305.291,182.554 305.028,182.203 305.596 M96.957 306.633 C 97.400 307.787,97.215 308.038,95.300 308.889 C 91.332 310.653,79.794 311.634,78.480 310.320 C 77.032 308.872,77.821 308.523,83.100 308.277 C 86.633 308.113,89.306 307.740,91.800 307.063 C 96.198 305.870,96.650 305.832,96.957 306.633 M210.178 306.835 C 209.800 307.446,210.621 308.154,211.373 307.866 C 211.718 307.733,212.000 307.349,212.000 307.013 C 212.000 306.313,210.586 306.176,210.178 306.835 M34.475 308.263 C 33.965 308.372,32.718 309.258,31.703 310.231 C 29.533 312.310,29.861 312.231,28.273 311.064 C 25.457 308.993,21.019 308.578,18.606 310.159 C 17.120 311.133,17.821 311.880,19.629 311.250 C 22.705 310.177,26.086 310.930,28.175 313.151 C 29.724 314.798,30.469 314.726,31.537 312.826 C 33.587 309.179,38.256 308.526,43.760 311.115 C 46.598 312.451,47.077 312.498,46.655 311.399 C 45.918 309.478,38.132 307.473,34.475 308.263 M169.040 308.735 C 168.683 309.313,170.002 309.961,172.131 310.253 C 173.966 310.504,174.903 309.943,174.059 309.099 C 173.460 308.500,169.369 308.203,169.040 308.735 M181.200 309.731 C 181.200 310.869,195.027 311.847,199.435 311.020 C 202.083 310.523,201.067 309.360,198.188 309.593 C 194.793 309.868,192.526 309.845,186.500 309.474 C 181.973 309.195,181.200 309.233,181.200 309.731 M97.527 311.339 C 97.777 313.454,90.290 315.979,83.726 315.993 C 79.188 316.003,78.317 315.622,78.476 313.701 L 78.600 312.200 82.200 312.333 C 86.610 312.496,91.574 311.897,94.447 310.855 C 97.054 309.909,97.364 309.958,97.527 311.339 M179.772 312.845 C 179.397 313.451,180.348 313.988,181.800 313.988 C 183.597 313.989,184.800 313.574,184.800 312.953 C 184.800 312.263,180.193 312.163,179.772 312.845 M98.167 315.058 C 99.439 318.373,82.723 322.758,79.381 319.985 C 77.523 318.442,78.806 317.393,82.400 317.517 C 86.649 317.663,91.922 316.794,94.800 315.474 C 97.456 314.256,97.841 314.209,98.167 315.058 M259.200 317.597 C 259.200 317.848,259.405 318.436,259.656 318.904 C 260.057 319.654,259.927 319.911,258.564 321.055 C 257.188 322.210,257.100 322.387,257.771 322.644 C 259.718 323.391,262.194 320.295,261.145 318.426 C 260.553 317.370,259.200 316.794,259.200 317.597 M99.006 319.627 C 99.664 322.624,92.599 325.607,84.875 325.594 C 80.672 325.587,79.400 325.075,79.400 323.388 L 79.400 322.200 84.400 322.156 C 89.722 322.109,91.580 321.672,95.815 319.469 C 98.378 318.137,98.682 318.152,99.006 319.627 M99.608 324.415 C 100.281 325.672,99.731 326.658,97.737 327.773 C 91.327 331.355,80.200 331.663,80.200 328.257 L 80.200 327.125 85.400 327.026 C 90.764 326.923,93.747 326.267,97.200 324.431 C 99.028 323.459,99.096 323.459,99.608 324.415 M249.428 324.755 C 249.121 325.252,250.271 326.127,250.802 325.799 C 251.114 325.606,251.105 325.368,250.770 324.964 C 250.234 324.318,249.745 324.242,249.428 324.755 M111.369 326.536 C 111.069 327.318,111.467 328.000,112.224 328.000 C 112.975 328.000,112.964 327.034,112.205 326.404 C 111.724 326.005,111.563 326.030,111.369 326.536 M111.076 331.100 C 110.982 331.265,110.790 332.030,110.649 332.800 C 109.158 340.956,102.676 343.398,85.437 342.300 C 83.815 342.196,83.034 342.897,84.251 343.364 C 84.628 343.509,87.022 343.898,89.571 344.229 C 101.619 345.792,111.119 340.939,112.256 332.643 C 112.492 330.924,111.738 329.939,111.076 331.100 M332.440 334.843 C 331.072 335.527,328.904 337.057,327.623 338.243 C 324.914 340.751,324.666 340.799,322.717 339.192 C 317.040 334.512,308.641 335.739,307.726 341.381 C 307.386 343.471,308.266 343.447,309.285 341.338 C 311.542 336.674,316.889 336.446,322.144 340.792 C 324.688 342.897,325.163 342.837,328.064 340.033 C 334.501 333.811,339.973 333.360,345.019 338.635 C 347.963 341.713,348.109 341.729,350.556 339.245 C 355.631 334.092,360.991 334.202,363.930 339.518 C 364.877 341.232,366.001 341.765,365.998 340.500 C 365.995 339.335,363.754 336.333,362.015 335.165 C 358.280 332.657,355.176 333.270,350.083 337.523 L 347.967 339.290 345.990 337.229 C 342.204 333.279,337.298 332.416,332.440 334.843 M70.800 334.551 C 70.800 335.289,71.860 336.133,72.382 335.811 C 73.009 335.424,72.885 334.518,72.167 334.243 C 71.184 333.865,70.800 333.952,70.800 334.551 M87.067 334.267 C 86.635 334.699,86.758 335.098,87.400 335.345 C 88.223 335.660,89.200 335.233,89.200 334.557 C 89.200 333.991,87.565 333.769,87.067 334.267 M151.600 345.589 C 150.610 346.043,149.244 347.061,148.564 347.851 L 147.327 349.287 145.909 348.042 C 143.025 345.510,139.956 344.969,136.890 346.453 C 134.268 347.723,131.887 351.389,133.170 352.182 C 133.374 352.307,134.052 351.648,134.679 350.715 C 137.678 346.249,142.940 346.103,146.001 350.402 C 147.185 352.065,148.004 351.894,149.400 349.693 C 152.567 344.698,160.303 345.256,164.758 350.800 C 166.743 353.271,167.784 353.730,168.212 352.323 C 170.282 345.518,179.660 344.534,185.844 350.473 C 188.624 353.142,190.231 353.371,188.430 350.842 C 183.518 343.943,174.616 342.986,168.707 348.720 L 166.813 350.557 165.035 348.701 C 161.543 345.057,155.707 343.705,151.600 345.589 M224.638 350.531 C 226.190 351.867,226.242 354.675,224.744 356.274 C 224.163 356.893,223.308 358.159,222.843 359.087 C 221.309 362.146,218.432 361.939,219.057 358.814 C 219.342 357.391,218.549 356.878,217.188 357.606 C 215.913 358.289,215.353 357.549,216.184 356.280 C 216.910 355.173,216.795 355.022,214.928 354.621 C 211.918 353.976,212.288 352.400,215.450 352.400 C 217.780 352.400,218.701 352.063,220.531 350.541 C 221.962 349.350,223.261 349.347,224.638 350.531 M74.687 372.954 C 72.300 373.838,70.552 375.204,68.357 377.900 C 65.888 380.931,66.021 380.924,63.151 378.186 C 58.752 373.990,53.775 373.709,50.802 377.489 C 49.106 379.645,50.284 380.400,52.209 378.391 C 54.934 375.546,58.021 375.804,61.756 379.189 C 66.095 383.121,66.325 383.127,69.220 379.375 C 74.406 372.653,80.771 372.620,88.856 379.273 C 91.191 381.195,91.296 381.187,92.827 378.960 C 95.627 374.891,102.140 374.922,108.272 379.034 C 111.932 381.488,113.161 381.054,110.118 378.382 C 104.773 373.688,95.494 373.156,91.921 377.337 C 91.117 378.277,90.700 378.498,90.288 378.200 C 83.981 373.637,78.141 371.673,74.687 372.954 M238.244 387.790 C 236.375 388.456,233.005 390.724,231.408 392.392 C 230.245 393.606,229.061 393.946,228.599 393.198 C 227.343 391.166,220.509 388.000,217.378 388.000 C 212.740 388.000,207.200 391.334,207.200 394.126 C 207.200 395.614,207.810 395.468,208.986 393.700 C 212.519 388.387,219.566 388.262,226.290 393.394 C 229.829 396.095,229.403 396.110,232.903 393.149 C 239.286 387.747,242.283 387.533,246.786 392.156 C 249.351 394.788,249.521 394.818,251.946 393.045 C 256.981 389.366,263.076 389.375,268.447 393.070 C 270.693 394.615,272.066 394.420,270.571 392.768 C 266.223 387.963,257.313 387.553,250.722 391.855 L 249.645 392.558 247.427 390.460 C 244.041 387.259,241.669 386.569,238.244 387.790 " stroke="none" fill="#181818" fill-rule="evenodd"></path></g></svg>