<?xml version="1.0" encoding="UTF-8"?>
<svg xmlns="http://www.w3.org/2000/svg" xmlns:xlink="http://www.w3.org/1999/xlink" width="750pt" height="750pt" viewBox="0 0 750 750" version="1.1">
<g id="surface1">
<path style=" stroke:none;fill-rule:nonzero;fill:rgb(0%,0%,0%);fill-opacity:1;" d="M 0 329.589844 L 0 659.179688 L 659.179688 659.179688 L 659.179688 0 L 0 0 Z M 20.65625 8.496094 C 22.703125 11.425781 24.902344 15.234375 25.488281 16.84375 C 26.367188 19.484375 26.804688 19.335938 29.445312 15.085938 C 33.546875 8.640625 43.945312 3.808594 50.828125 5.125 C 71.484375 8.9375 87.304688 33.105469 82.03125 52.734375 C 78.367188 66.359375 66.945312 71.777344 53.613281 66.0625 C 49.511719 64.304688 45.554688 62.695312 44.824219 62.546875 C 44.238281 62.402344 42.773438 65.476562 41.75 69.289062 C 40.722656 73.535156 38.085938 78.367188 35.15625 81.296875 C 28.5625 88.039062 22.414062 89.941406 8.496094 89.5 L 2.929688 89.355469 L 2.929688 2.929688 L 9.960938 2.929688 C 16.257812 2.929688 17.140625 3.515625 20.65625 8.496094 Z M 38.085938 4.539062 C 36.035156 5.421875 32.664062 7.765625 30.46875 9.8125 C 28.125 12.011719 26.367188 13.039062 26.367188 12.304688 C 26.367188 11.570312 24.757812 9.082031 22.703125 6.882812 L 18.898438 2.929688 L 30.320312 3.078125 C 39.40625 3.078125 41.015625 3.367188 38.085938 4.539062 Z M 628.859375 9.960938 L 624.902344 17.140625 L 620.359375 14.5 C 613.769531 10.695312 601.023438 7.324219 592.96875 7.324219 C 583.742188 7.324219 577.441406 10.109375 569.382812 17.429688 C 555.617188 30.03125 551.953125 50.242188 560.304688 65.773438 C 570.265625 83.9375 588.28125 88.039062 606.738281 76.320312 L 613.183594 72.21875 L 617.140625 80.710938 C 619.628906 85.839844 623.289062 90.820312 626.515625 93.3125 C 631.347656 96.972656 632.960938 97.414062 644.09375 97.414062 L 656.25 97.414062 L 656.25 438.28125 L 652.296875 433.300781 C 646.582031 426.414062 644.824219 425.097656 635.890625 420.851562 C 629.445312 417.773438 625.929688 417.039062 615.382812 417.039062 C 603.808594 417.039062 601.757812 417.480469 594.289062 421.4375 L 586.085938 425.828125 L 583.15625 416.164062 C 579.054688 402.6875 572.898438 394.628906 563.523438 390.234375 C 554.296875 385.984375 547.414062 385.839844 539.796875 389.648438 C 536.570312 391.257812 533.9375 392.578125 533.789062 392.578125 C 533.640625 392.578125 532.324219 389.210938 530.859375 384.960938 C 527.929688 375.878906 513.71875 360.351562 508.59375 360.351562 C 506.835938 360.351562 505.371094 359.914062 505.371094 359.179688 C 505.371094 358.59375 507.421875 353.171875 510.058594 347.167969 C 512.546875 341.164062 516.0625 330.90625 517.820312 324.460938 C 520.898438 313.328125 521.191406 312.742188 526.023438 311.570312 C 531.59375 310.253906 539.0625 303.664062 543.75 296.191406 L 546.679688 291.359375 L 550.632812 295.019531 C 563.085938 306.882812 588.867188 299.414062 601.609375 280.371094 C 606.152344 273.632812 607.179688 270.554688 607.617188 263.085938 C 608.203125 254.445312 607.910156 253.5625 603.515625 248.4375 C 595.605469 239.5 583.59375 234.8125 573.632812 236.71875 C 570.703125 237.15625 564.257812 240.234375 559.421875 243.3125 C 551.660156 248.4375 547.265625 250.488281 549.757812 248.144531 C 550.195312 247.703125 549.902344 245.359375 549.023438 243.015625 C 546.972656 237.011719 535.253906 227.195312 527.929688 225.292969 L 521.777344 223.535156 L 518.117188 209.617188 C 500.390625 141.648438 445.75 84.226562 378.222656 62.402344 C 355.371094 55.078125 337.5 52.296875 311.28125 52.296875 C 285.5 52.296875 267.1875 55.078125 244.921875 62.402344 C 226.609375 68.40625 199.367188 82.179688 185.304688 92.578125 C 168.015625 105.320312 138.429688 136.671875 130.664062 150.148438 C 129.929688 151.757812 127.734375 151.464844 120.410156 149.121094 C 112.5 146.484375 110.449219 146.335938 105.320312 147.804688 C 97.414062 150.148438 88.625 158.351562 85.695312 166.113281 L 83.203125 172.558594 L 78.808594 170.214844 C 63.429688 162.597656 39.695312 169.921875 35.304688 183.546875 C 30.617188 197.609375 47.753906 216.796875 65.039062 216.796875 C 68.703125 216.796875 75.148438 215.476562 79.394531 213.867188 C 83.640625 212.257812 87.304688 210.9375 87.597656 210.9375 C 87.742188 210.9375 87.890625 212.257812 87.890625 214.015625 C 87.890625 217.96875 90.234375 222.507812 95.359375 227.78125 L 99.460938 232.179688 L 97.851562 248.289062 C 94.773438 277.585938 101.367188 321.972656 112.0625 345.554688 C 114.109375 349.804688 115.722656 353.613281 115.722656 353.90625 C 115.722656 354.199219 113.964844 354.492188 111.914062 354.492188 C 104.148438 354.492188 95.945312 358.15625 89.796875 364.160156 C 83.640625 370.460938 77.636719 380.273438 77.636719 384.523438 C 77.636719 387.742188 76.464844 387.304688 72.363281 382.46875 C 67.53125 376.757812 60.351562 374.5625 48.925781 375.292969 C 38.085938 376.023438 33.691406 378.515625 26.953125 388.476562 L 22.558594 395.070312 L 18.457031 391.699219 C 16.257812 389.796875 11.867188 387.742188 8.640625 387.304688 L 2.929688 386.28125 L 2.929688 91.40625 L 12.453125 91.992188 C 19.921875 92.429688 23.144531 91.992188 28.417969 89.355469 C 36.914062 85.253906 42.1875 78.953125 43.359375 71.632812 C 43.945312 68.554688 44.382812 65.917969 44.53125 65.917969 C 44.53125 65.917969 48.195312 67.234375 52.441406 68.847656 C 62.109375 72.507812 64.890625 72.507812 72.65625 68.703125 C 95.070312 58.007812 85.546875 14.5 58.742188 4.980469 C 54.34375 3.367188 103.273438 3.078125 343.066406 2.929688 L 632.8125 2.929688 Z M 656.25 48.195312 C 656.25 90.085938 656.101562 93.601562 653.757812 94.335938 C 641.164062 97.851562 632.8125 96.242188 625.929688 89.0625 C 620.65625 83.351562 616.699219 76.023438 616.699219 71.777344 C 616.699219 67.820312 615.085938 68.117188 607.03125 73.242188 C 593.117188 82.03125 579.929688 82.179688 569.679688 73.679688 C 558.984375 64.746094 555.617188 46.140625 562.0625 31.933594 C 565.867188 23.585938 575.539062 13.914062 582.570312 11.570312 C 591.648438 8.640625 606.445312 10.398438 616.699219 15.820312 C 621.828125 18.457031 626.074219 20.359375 626.21875 20.214844 C 626.21875 19.921875 628.5625 15.96875 631.347656 11.28125 L 636.328125 2.929688 L 656.25 2.929688 Z M 351.710938 58.59375 C 412.207031 70.898438 462.742188 106.640625 493.210938 158.640625 C 503.90625 176.804688 510.058594 191.308594 514.890625 208.742188 C 519.289062 224.5625 519.289062 224.121094 515.625 224.121094 C 508.15625 224.121094 494.382812 236.425781 492.625 244.628906 C 491.601562 249.757812 492.1875 249.609375 486.914062 246.828125 C 481.347656 243.898438 464.355469 243.898438 457.324219 246.972656 C 449.851562 250.046875 443.992188 255.90625 442.96875 261.621094 C 441.210938 271.140625 448.242188 283.15625 459.523438 290.1875 C 466.554688 294.578125 480.175781 294.726562 488.671875 290.476562 L 494.679688 287.546875 L 497.167969 294.726562 C 499.804688 302.050781 506.398438 308.640625 514.015625 311.28125 L 518.261719 312.742188 L 514.015625 327.101562 C 502.148438 366.945312 477.539062 403.417969 443.703125 431.398438 L 432.128906 441.0625 L 432.128906 429.640625 C 432.128906 417.1875 428.320312 371.921875 426.855469 366.503906 C 425.976562 363.71875 424.953125 363.28125 417.625 363.28125 C 406.789062 363.429688 390.234375 366.503906 375.878906 371.046875 L 364.304688 374.851562 L 356.542969 366.503906 C 352.148438 361.960938 348.632812 356.835938 348.632812 355.226562 C 348.632812 349.21875 345.703125 342.335938 338.378906 331.492188 C 334.421875 325.34375 331.203125 320.214844 331.347656 320.070312 C 331.640625 319.921875 334.277344 318.3125 337.351562 316.554688 C 340.28125 314.796875 342.773438 312.597656 342.773438 311.867188 C 342.773438 310.253906 343.652344 310.109375 332.960938 313.328125 L 324.023438 316.113281 L 286.816406 259.863281 C 266.453125 228.953125 249.171875 203.613281 248.289062 203.613281 C 247.558594 203.613281 242.871094 206.25 238.039062 209.472656 C 233.351562 212.546875 227.492188 216.0625 225.292969 216.945312 C 223.09375 217.820312 221.191406 219.140625 221.191406 219.726562 C 221.191406 220.3125 225.585938 228.664062 231.007812 238.183594 C 236.28125 247.851562 245.359375 264.109375 251.21875 274.65625 C 256.933594 285.058594 267.039062 303.367188 273.632812 315.234375 C 280.226562 327.101562 285.644531 337.5 285.644531 338.378906 C 285.644531 339.257812 283.59375 343.652344 281.25 348.195312 C 278.757812 352.734375 277.148438 356.6875 277.441406 357.128906 C 277.882812 357.421875 280.957031 355.8125 284.472656 353.46875 L 290.773438 349.070312 L 304.539062 370.460938 L 299.5625 374.121094 C 289.746094 381.59375 285.5 394.335938 290.039062 402.6875 C 290.917969 404.589844 291.503906 406.203125 291.210938 406.347656 C 290.917969 406.492188 288.132812 408.691406 284.765625 411.328125 C 280.371094 414.695312 276.269531 416.308594 268.652344 417.480469 C 247.558594 420.851562 229.6875 427 227.929688 431.6875 C 227.050781 434.03125 236.570312 455.566406 241.699219 462.890625 C 243.457031 465.382812 244.628906 467.285156 244.1875 467.285156 C 243.898438 467.285156 239.5 465.527344 234.375 463.476562 C 219.289062 457.324219 203.613281 448.976562 191.601562 440.625 C 179.589844 432.273438 161.132812 416.601562 161.132812 414.695312 C 161.132812 414.109375 165.527344 412.792969 170.800781 411.914062 C 176.21875 411.035156 180.90625 409.863281 181.492188 409.421875 C 181.933594 408.835938 179.734375 406.203125 176.660156 403.417969 C 168.015625 395.945312 156.007812 393.3125 150 397.558594 C 147.21875 399.609375 146.632812 399.316406 141.945312 392.871094 C 122.460938 366.503906 108.835938 334.863281 102.976562 302.636719 C 100.34375 288.28125 99.460938 251.660156 101.515625 239.941406 C 102.6875 233.054688 102.6875 233.054688 107.078125 234.667969 C 109.421875 235.398438 113.671875 235.695312 116.601562 235.253906 C 122.753906 234.082031 132.421875 225.734375 136.085938 218.40625 C 138.574219 213.574219 138.867188 213.429688 140.332031 216.359375 C 142.53125 220.3125 152.195312 224.121094 160.253906 224.121094 C 169.042969 224.121094 183.25 216.796875 189.550781 209.03125 C 205.957031 188.820312 203.613281 171.972656 183.105469 162.742188 C 171.53125 157.46875 159.960938 159.667969 147.363281 169.1875 L 142.382812 173 L 141.503906 168.898438 C 140.917969 166.699219 138.429688 162.304688 136.085938 159.226562 L 131.6875 153.808594 L 141.796875 140.1875 C 176.660156 93.457031 229.101562 62.988281 287.257812 55.664062 C 303.515625 53.613281 334.132812 55.078125 351.710938 58.59375 Z M 122.3125 152.929688 C 131.984375 157.324219 139.160156 165.527344 139.160156 171.972656 C 139.160156 174.609375 139.601562 177.246094 140.039062 177.6875 C 140.625 178.273438 143.703125 176.367188 146.921875 173.4375 C 159.375 162.011719 171.679688 159.8125 184.570312 166.554688 C 193.066406 171.09375 197.753906 177.832031 197.753906 185.304688 C 197.609375 195.851562 186.328125 211.523438 174.023438 217.675781 C 161.570312 223.976562 145.460938 221.484375 140.625 212.402344 C 139.015625 209.472656 138.574219 209.914062 133.445312 217.96875 C 124.070312 232.46875 113.671875 236.28125 101.953125 229.539062 C 95.359375 225.878906 90.96875 219.433594 90.527344 212.988281 C 90.085938 206.542969 89.796875 206.398438 81.59375 210.203125 C 72.507812 214.453125 60.789062 215.039062 53.320312 211.523438 C 46.582031 208.300781 39.992188 200.539062 38.085938 193.210938 C 36.621094 188.234375 36.914062 186.476562 39.257812 181.933594 C 45.554688 169.773438 70.898438 165.527344 81.007812 174.902344 L 84.667969 178.273438 L 85.546875 173.585938 C 87.011719 166.257812 94.484375 155.710938 100.632812 152.492188 C 107.960938 148.679688 113.378906 148.679688 122.3125 152.929688 Z M 277 249.757812 C 292.382812 273.046875 308.789062 297.949219 313.328125 305.125 L 321.53125 317.871094 L 327.390625 317.140625 C 332.375 316.554688 332.8125 316.699219 330.46875 318.3125 C 329.003906 319.335938 317.578125 327.101562 305.273438 335.742188 C 292.820312 344.382812 282.714844 351.125 282.714844 350.828125 C 282.714844 350.390625 284.03125 348.046875 285.644531 345.410156 C 287.257812 342.773438 288.574219 339.695312 288.574219 338.523438 C 288.574219 337.351562 281.25 323.144531 272.167969 307.03125 C 263.234375 290.773438 249.316406 265.722656 241.257812 251.21875 C 233.351562 236.71875 226.023438 223.976562 225.148438 222.804688 C 223.828125 221.335938 223.828125 220.605469 225 220.164062 C 225.878906 219.875 231.152344 216.796875 236.71875 213.28125 C 242.285156 209.765625 247.265625 206.984375 247.851562 206.984375 C 248.4375 207.128906 261.476562 226.320312 277 249.757812 Z M 531.738281 230.125 C 534.523438 231.59375 537.890625 233.640625 539.210938 234.667969 C 543.164062 237.890625 547.851562 246.53125 547.851562 250.78125 C 547.851562 255.90625 549.316406 255.90625 553.859375 251.074219 C 564.992188 239.210938 580.8125 236.132812 593.40625 243.457031 C 597.070312 245.65625 601.464844 249.316406 602.929688 251.515625 C 614.648438 269.09375 585.9375 302.492188 562.792969 298.09375 C 556.492188 296.921875 549.316406 292.234375 549.316406 289.160156 C 549.316406 285.351562 545.359375 286.960938 543.457031 291.648438 C 542.429688 293.992188 538.769531 298.976562 535.253906 302.636719 C 529.25 308.789062 528.515625 309.082031 520.898438 309.082031 C 513.867188 309.082031 512.109375 308.496094 507.570312 304.539062 C 501.414062 299.121094 498.046875 293.261719 498.046875 287.84375 C 498.046875 285.203125 497.460938 284.179688 496.289062 284.765625 C 495.265625 285.058594 489.84375 286.960938 484.421875 288.71875 C 475.78125 291.359375 473.585938 291.648438 467.726562 290.039062 C 458.789062 287.84375 453.515625 283.886719 448.976562 276.269531 C 440.625 261.914062 448.242188 249.757812 467.429688 246.828125 C 475.195312 245.65625 484.421875 247.851562 489.84375 252.101562 C 493.359375 254.882812 493.652344 254.882812 493.652344 252.390625 C 493.652344 248.4375 500.097656 235.546875 503.613281 232.46875 C 508.007812 228.367188 517.234375 225.585938 522.21875 226.609375 C 524.707031 227.050781 528.953125 228.664062 531.738281 230.125 Z M 334.421875 329.882812 C 336.621094 332.8125 338.378906 335.59375 338.378906 336.035156 C 338.378906 338.234375 327.832031 338.523438 323.730469 336.328125 C 319.1875 334.132812 318.898438 334.132812 312.453125 339.109375 C 306.296875 343.796875 296.484375 348.195312 295.164062 346.875 C 294.726562 346.582031 302.195312 340.867188 311.71875 334.421875 C 321.09375 327.832031 329.148438 323 329.734375 323.4375 C 330.175781 324.023438 332.226562 326.953125 334.421875 329.882812 Z M 332.664062 339.550781 L 341.164062 338.964844 L 343.507812 345.554688 C 346.582031 354.785156 346.289062 361.960938 342.335938 367.820312 C 336.179688 377.050781 324.023438 380.421875 314.5 375.4375 L 309.8125 372.949219 L 314.941406 371.921875 C 317.578125 371.335938 320.65625 369.875 321.53125 368.847656 C 322.265625 367.675781 324.171875 366.359375 325.632812 365.773438 C 329.148438 364.453125 328.273438 359.617188 324.460938 359.617188 C 322.414062 359.617188 321.386719 360.789062 321.09375 363.71875 C 320.507812 368.847656 314.796875 372.070312 311.425781 369.289062 C 310.253906 368.261719 308.640625 367.820312 307.910156 368.261719 C 306.882812 368.847656 294.433594 351.710938 294.433594 349.511719 C 294.433594 349.070312 296.046875 348.632812 298.09375 348.632812 C 302.78125 348.632812 311.71875 344.09375 315.527344 339.992188 C 317.726562 337.648438 318.75 337.351562 321.242188 338.523438 C 322.851562 339.40625 327.976562 339.84375 332.664062 339.550781 Z M 122.609375 367.96875 C 125.683594 373.828125 131.6875 383.496094 135.9375 389.355469 C 140.039062 395.214844 143.554688 400.632812 143.554688 401.367188 C 143.554688 405.03125 125.683594 407.519531 115.136719 405.320312 L 109.421875 404.003906 L 112.0625 408.25 C 116.164062 414.695312 121.726562 418.652344 129.34375 420.554688 C 134.765625 422.023438 136.085938 423.046875 135.351562 424.65625 C 133.742188 428.757812 128.90625 453.367188 127.882812 463.769531 L 126.710938 473.875 L 64.890625 474.316406 L 2.929688 474.609375 L 2.929688 432.128906 C 2.929688 391.113281 3.078125 389.648438 5.710938 389.648438 C 9.960938 389.648438 15.671875 392.140625 18.898438 395.359375 C 21.242188 397.703125 21.679688 399.171875 20.65625 401.660156 C 18.3125 408.105469 17.578125 413.085938 18.898438 413.085938 C 19.628906 413.085938 20.800781 410.890625 21.386719 408.25 C 22.851562 401.074219 29.148438 388.769531 33.25 384.667969 C 38.378906 379.539062 45.851562 377.492188 55.664062 378.367188 C 65.332031 379.25 70.898438 382.324219 73.535156 388.328125 C 74.5625 390.671875 75.878906 392.578125 76.464844 392.578125 C 76.90625 392.578125 79.101562 388.039062 81.152344 382.617188 C 87.011719 367.234375 98.730469 357.570312 111.621094 357.421875 C 116.894531 357.421875 117.1875 357.714844 122.609375 367.96875 Z M 354.492188 378.078125 C 350.539062 379.394531 346.582031 381.007812 345.851562 381.59375 C 343.652344 382.910156 343.796875 372.804688 345.996094 366.648438 L 347.753906 361.816406 L 354.785156 368.703125 L 361.671875 375.585938 Z M 513.867188 366.210938 C 520.164062 370.75 527.636719 382.03125 530.566406 391.40625 C 531.445312 394.484375 532.46875 396.972656 532.765625 396.972656 C 533.054688 396.972656 535.109375 395.65625 537.453125 393.898438 C 543.3125 389.648438 552.390625 388.769531 560.304688 391.699219 C 569.96875 395.507812 576.125 403.5625 581.101562 419.09375 L 585.203125 431.984375 L 588.867188 428.46875 C 600 417.773438 623.730469 416.453125 639.695312 425.683594 C 643.066406 427.734375 648.195312 432.273438 651.125 436.085938 C 656.25 442.820312 656.25 442.820312 656.25 458.351562 L 656.25 474.023438 L 543.3125 474.460938 L 430.371094 474.902344 L 430.8125 459.8125 L 431.398438 444.726562 L 442.675781 436.230469 C 463.914062 420.117188 488.820312 390.820312 499.65625 368.847656 C 501.710938 364.890625 504.199219 361.816406 505.515625 361.816406 C 506.835938 361.816406 510.644531 363.71875 513.867188 366.210938 Z M 426.269531 380.859375 C 427.148438 388.476562 427.882812 405.617188 428.171875 418.796875 L 428.46875 442.96875 L 417.625 449.265625 C 411.765625 452.78125 406.640625 455.421875 406.203125 455.125 C 405.90625 454.6875 406.640625 450.4375 407.960938 445.460938 C 413.085938 425.390625 413.234375 423.632812 408.546875 419.824219 C 404.445312 416.308594 393.3125 413.085938 385.398438 413.085938 C 381.738281 413.085938 381.007812 412.351562 379.539062 406.640625 C 378.664062 402.976562 375.292969 394.921875 372.070312 388.769531 C 368.847656 382.46875 366.359375 377.34375 366.648438 377.050781 C 367.675781 376.171875 382.179688 371.777344 390.671875 369.875 C 402.6875 367.234375 422.167969 365.039062 423.632812 366.210938 C 424.21875 366.648438 425.390625 373.242188 426.269531 380.859375 Z M 309.8125 375 C 312.304688 377.78125 312.304688 377.929688 308.9375 380.710938 C 307.03125 382.324219 304.980469 383.640625 304.394531 383.789062 C 303.808594 383.789062 301.90625 386.867188 300 390.671875 C 298.09375 394.628906 295.605469 398.875 294.289062 400.34375 C 291.945312 402.832031 291.796875 402.6875 290.917969 397.851562 C 290.1875 394.335938 290.625 391.113281 292.382812 387.890625 C 294.726562 383.054688 304.394531 372.070312 306.152344 372.070312 C 306.738281 372.070312 308.351562 373.390625 309.8125 375 Z M 341.601562 378.367188 C 342.039062 382.179688 341.308594 382.765625 331.933594 386.71875 C 326.367188 389.210938 321.09375 391.699219 320.214844 392.578125 C 317.429688 395.359375 315.085938 394.1875 315.382812 390.085938 C 315.671875 386.867188 314.941406 385.839844 312.453125 385.546875 C 310.546875 385.253906 309.082031 384.523438 309.082031 383.789062 C 309.082031 381.738281 314.0625 380.421875 323.289062 380.273438 C 330.03125 380.125 333.398438 379.394531 336.476562 377.050781 C 338.671875 375.292969 340.722656 373.976562 340.867188 374.121094 C 340.867188 374.121094 341.308594 376.171875 341.601562 378.367188 Z M 362.546875 386.570312 C 361.375 394.042969 353.613281 402.101562 345.703125 404.445312 C 340.136719 406.054688 318.898438 405.761719 317.140625 404.003906 C 316.554688 403.417969 316.554688 401.660156 317.140625 400.046875 C 318.015625 397.265625 319.1875 396.972656 328.125 396.972656 C 333.691406 396.972656 339.992188 396.242188 342.039062 395.507812 C 345.554688 394.1875 345.851562 393.457031 345.117188 389.210938 C 344.238281 384.523438 344.382812 384.375 352.585938 381.445312 C 357.273438 379.835938 361.671875 378.953125 362.402344 379.539062 C 362.988281 380.125 363.132812 383.351562 362.546875 386.570312 Z M 369.578125 389.210938 C 373.242188 396.53125 378.515625 411.914062 380.125 419.824219 C 380.710938 423.339844 380.421875 424.65625 378.664062 425.390625 C 375 426.710938 344.382812 430.515625 327.976562 431.6875 C 313.769531 432.570312 313.183594 432.421875 313.914062 429.785156 C 314.355469 428.320312 315.234375 422.3125 315.671875 416.453125 L 316.699219 406.054688 L 320.945312 407.519531 C 323.289062 408.398438 330.03125 408.691406 336.035156 408.398438 C 344.679688 407.960938 347.898438 407.226562 352.882812 403.859375 C 359.914062 399.171875 364.746094 392.140625 364.746094 386.28125 C 364.746094 384.082031 365.039062 382.324219 365.476562 382.324219 C 365.773438 382.324219 367.675781 385.398438 369.578125 389.210938 Z M 342.480469 389.210938 C 342.039062 393.164062 341.601562 393.3125 332.519531 394.1875 C 327.246094 394.773438 322.703125 394.921875 322.414062 394.628906 C 321.972656 394.1875 339.695312 385.546875 341.75 385.398438 C 342.480469 385.253906 342.773438 387.011719 342.480469 389.210938 Z M 311.132812 387.597656 C 314.0625 388.769531 314.210938 391.113281 311.28125 391.113281 C 309.8125 391.113281 309.082031 392.578125 309.082031 395.359375 C 309.082031 397.703125 308.640625 400.78125 308.203125 402.101562 C 307.46875 403.710938 308.203125 404.734375 310.546875 405.320312 C 313.625 406.203125 313.769531 406.789062 312.890625 413.671875 C 312.453125 417.773438 312.011719 423.632812 312.011719 426.5625 L 312.011719 432.128906 L 300.292969 432.128906 C 290.917969 432.128906 288.574219 431.6875 288.574219 429.929688 C 288.574219 428.171875 290.476562 427.734375 297.363281 427.734375 C 305.566406 427.734375 306.152344 427.441406 306.152344 424.367188 C 306.152344 422.609375 306.59375 417.773438 307.03125 413.523438 L 308.054688 405.90625 L 301.609375 405.46875 C 294.140625 405.03125 292.96875 402.246094 299.707031 401.660156 C 303.664062 401.21875 304.539062 400.488281 305.273438 396.386719 C 305.859375 393.75 305.859375 390.382812 305.273438 389.0625 C 304.394531 386.570312 306.882812 385.984375 311.132812 387.597656 Z M 301.90625 398.875 C 300 400.78125 299.707031 397.265625 301.320312 393.015625 C 302.34375 390.671875 302.492188 390.820312 302.929688 393.898438 C 303.222656 395.800781 302.78125 398 301.90625 398.875 Z M 314.941406 399.316406 C 314.941406 401.515625 314.0625 402.832031 312.742188 402.832031 C 310.398438 402.832031 309.960938 400.34375 311.425781 396.386719 C 312.742188 393.164062 314.941406 394.921875 314.941406 399.316406 Z M 165.382812 399.902344 C 168.164062 400.632812 171.972656 402.832031 173.875 404.589844 L 177.539062 407.960938 L 168.898438 409.421875 L 160.398438 411.035156 L 157.910156 405.761719 C 156.59375 402.976562 155.421875 400.195312 155.421875 399.460938 C 155.273438 398 159.523438 398.144531 165.382812 399.902344 Z M 155.566406 406.640625 L 157.910156 413.378906 L 151.90625 416.164062 C 140.625 421.289062 123.925781 418.507812 116.75 410.59375 C 114.109375 407.664062 114.257812 407.664062 120.117188 408.691406 C 128.027344 410.15625 138.71875 407.960938 145.019531 403.5625 C 147.804688 401.660156 150.878906 400.046875 151.609375 400.046875 C 152.492188 399.902344 154.25 402.976562 155.566406 406.640625 Z M 304.394531 409.277344 C 304.6875 409.71875 304.539062 413.378906 303.953125 417.335938 L 302.929688 424.804688 L 296.335938 424.804688 C 290.917969 424.804688 289.890625 424.367188 290.625 422.167969 C 290.917969 420.851562 292.089844 416.75 293.117188 413.378906 C 294.875 407.375 295.164062 407.078125 299.414062 407.8125 C 301.757812 408.398438 303.953125 408.984375 304.394531 409.277344 Z M 290.917969 412.5 C 290.476562 413.820312 290.039062 415.136719 290.039062 415.429688 C 290.039062 415.722656 288.28125 416.015625 286.230469 416.015625 L 282.421875 416.015625 L 285.789062 413.085938 C 290.039062 409.570312 292.089844 409.421875 290.917969 412.5 Z M 394.773438 416.75 C 400.488281 417.773438 408.691406 421.582031 408.691406 423.484375 C 408.691406 424.65625 390.382812 429.929688 379.394531 431.984375 C 365.039062 434.765625 337.0625 436.671875 299.5625 437.546875 C 259.570312 438.429688 236.132812 437.402344 231.882812 434.328125 C 229.539062 432.570312 229.980469 431.984375 237.597656 428.46875 C 251.074219 422.3125 288.574219 416.164062 288.574219 420.265625 C 288.574219 420.851562 284.617188 421.875 279.929688 422.3125 C 268.652344 423.484375 249.171875 427.585938 245.65625 429.492188 C 239.5 432.714844 246.828125 433.886719 278.613281 434.617188 C 327.101562 435.9375 364.601562 432.421875 393.015625 424.070312 C 401.660156 421.582031 402.976562 418.945312 395.65625 418.945312 C 389.355469 418.945312 382.324219 417.335938 382.324219 415.867188 C 382.324219 415.136719 383.789062 414.84375 385.695312 415.136719 C 387.453125 415.578125 391.554688 416.308594 394.773438 416.75 Z M 167.578125 425.242188 C 188.671875 443.992188 212.257812 458.496094 234.8125 466.554688 C 242.140625 469.1875 248.4375 472.117188 248.730469 473 C 249.171875 474.171875 236.570312 474.609375 203.171875 474.609375 L 157.03125 474.609375 L 156.007812 469.042969 C 154.101562 458.351562 145.019531 432.714844 141.359375 427.296875 L 137.546875 421.875 L 141.648438 421.875 C 143.847656 421.875 148.09375 420.703125 150.878906 419.09375 C 153.664062 417.625 156.296875 416.308594 156.59375 416.164062 C 156.738281 416.164062 161.71875 420.265625 167.578125 425.242188 Z M 388.914062 422.609375 C 384.523438 424.511719 382.324219 424.21875 382.324219 421.726562 C 382.324219 420.996094 384.8125 420.410156 387.890625 420.554688 L 393.3125 420.703125 Z M 287.109375 425.390625 C 287.109375 431.835938 286.085938 432.128906 266.75 432.128906 C 244.921875 431.984375 245.507812 430.515625 269.09375 426.414062 C 277.734375 424.804688 285.351562 423.484375 286.085938 423.484375 C 286.671875 423.339844 287.109375 424.21875 287.109375 425.390625 Z M 139.746094 428.46875 C 140.1875 429.785156 139.746094 430.664062 138.429688 430.664062 C 137.257812 430.664062 136.230469 429.640625 136.230469 428.46875 C 136.230469 427.296875 136.816406 426.269531 137.546875 426.269531 C 138.28125 426.269531 139.160156 427.296875 139.746094 428.46875 Z M 407.078125 436.375 L 405.46875 445.164062 L 397.851562 446.632812 C 351.855469 456.007812 289.160156 461.570312 256.347656 459.226562 L 241.554688 458.203125 L 236.425781 447.949219 C 231.296875 437.84375 231.296875 437.546875 234.667969 438.574219 C 242.871094 440.773438 274.804688 441.210938 313.476562 439.601562 C 360.9375 437.546875 384.082031 434.914062 398.289062 430.226562 C 403.5625 428.46875 408.105469 427 408.398438 427.148438 C 408.691406 427.296875 408.105469 431.398438 407.078125 436.375 Z M 142.089844 433.59375 C 142.089844 434.328125 140.332031 435.058594 138.28125 435.058594 C 136.230469 435.058594 134.914062 434.472656 135.5 433.59375 C 135.9375 432.714844 137.695312 432.128906 139.304688 432.128906 C 140.773438 432.128906 142.089844 432.714844 142.089844 433.59375 Z M 144.726562 439.160156 C 145.019531 440.332031 143.40625 440.917969 140.039062 440.917969 C 134.179688 440.917969 132.859375 438.574219 138.132812 437.546875 C 142.53125 436.671875 143.992188 437.109375 144.726562 439.160156 Z M 146.484375 444.578125 C 146.484375 446.191406 144.726562 446.777344 139.890625 446.777344 C 131.984375 446.777344 131.101562 444.289062 138.867188 443.40625 C 141.796875 443.117188 144.726562 442.820312 145.460938 442.675781 C 146.046875 442.53125 146.484375 443.40625 146.484375 444.578125 Z M 428.613281 453.515625 C 428.171875 457.324219 427.734375 463.625 427.734375 467.429688 L 427.734375 474.609375 L 414.695312 474.609375 C 407.375 474.609375 401.21875 474.171875 400.929688 473.4375 C 400.488281 472.851562 401.367188 469.628906 402.6875 466.113281 C 404.734375 460.839844 406.640625 458.9375 416.015625 453.515625 C 422.023438 450 427.585938 447.070312 428.320312 446.921875 C 429.054688 446.777344 429.199219 449.851562 428.613281 453.515625 Z M 147.949219 448.828125 C 147.949219 449.121094 148.242188 450.4375 148.828125 451.609375 C 149.414062 453.222656 147.949219 453.953125 142.675781 454.539062 C 134.765625 455.421875 131.835938 454.6875 131.835938 451.90625 C 131.835938 450.585938 134.179688 449.707031 138.132812 449.265625 C 141.503906 448.976562 145.164062 448.679688 146.191406 448.535156 C 147.070312 448.390625 147.949219 448.535156 147.949219 448.828125 Z M 404.296875 450.148438 C 404.296875 451.171875 401.660156 459.960938 398.585938 469.628906 L 392.726562 487.0625 L 377.636719 489.550781 C 348.339844 494.53125 276.125 494.382812 266.75 489.257812 C 263.671875 487.648438 244.628906 464.648438 244.628906 462.597656 C 244.628906 462.011719 254.003906 461.867188 265.578125 462.011719 C 295.605469 462.742188 324.460938 460.839844 359.617188 455.566406 C 376.609375 453.078125 392.726562 450.585938 395.507812 449.851562 C 402.976562 447.949219 404.296875 447.949219 404.296875 450.148438 Z M 150.878906 457.617188 C 150.878906 460.109375 146.335938 461.425781 137.402344 461.425781 C 132.273438 461.425781 130.371094 460.839844 130.371094 459.226562 C 130.371094 457.765625 132.714844 457.03125 139.601562 456.59375 C 144.578125 456.296875 149.121094 456.007812 149.851562 455.859375 C 150.4375 455.710938 150.878906 456.445312 150.878906 457.617188 Z M 152.050781 466.113281 C 151.609375 469.1875 150.734375 469.484375 140.332031 469.921875 C 134.03125 470.214844 128.90625 469.773438 128.90625 469.1875 C 129.054688 465.96875 131.835938 464.5 139.160156 463.914062 C 143.554688 463.625 148.390625 463.328125 149.851562 463.183594 C 151.90625 462.890625 152.492188 463.769531 152.050781 466.113281 Z M 154.394531 474.171875 C 155.421875 476.515625 152.050781 477.539062 139.746094 478.5625 C 129.054688 479.445312 128.90625 479.445312 128.90625 475.929688 C 128.90625 472.558594 129.199219 472.414062 141.359375 472.414062 C 149.414062 472.414062 153.953125 473 154.394531 474.171875 Z M 125.976562 496.875 C 125.976562 507.859375 126.414062 517.820312 126.855469 519.140625 C 127.585938 521.046875 126.710938 521.484375 123.195312 521.484375 C 120.117188 521.484375 116.894531 523.09375 112.9375 526.757812 C 98.875 539.355469 102.390625 556.492188 120.117188 562.5 C 124.511719 563.964844 128.757812 564.84375 129.492188 564.40625 C 130.226562 563.820312 127.296875 562.351562 122.898438 560.890625 C 112.9375 557.664062 106.933594 551.367188 106.933594 544.042969 C 106.933594 534.523438 113.820312 526.171875 123.484375 523.828125 C 127.296875 522.949219 127.441406 523.09375 127.441406 528.808594 C 127.441406 533.640625 127 534.667969 124.511719 534.667969 C 120.265625 534.667969 117.921875 540.085938 120.265625 544.335938 C 122.167969 548 133.15625 553.125 136.523438 551.804688 C 137.84375 551.367188 137.546875 550.78125 135.5 550.046875 C 126.125 546.828125 124.21875 545.65625 122.753906 543.015625 C 121.582031 540.671875 121.726562 539.648438 123.78125 538.183594 C 127.148438 535.695312 128.90625 536.867188 128.90625 541.257812 C 128.90625 545.65625 136.816406 548.585938 146.046875 547.265625 C 154.539062 546.09375 166.992188 540.671875 166.992188 538.039062 C 166.992188 536.867188 167.726562 536.425781 168.457031 536.867188 C 169.335938 537.304688 169.921875 539.0625 169.921875 540.671875 C 169.921875 543.75 162.15625 549.316406 157.910156 549.316406 C 156.445312 549.316406 155.273438 549.902344 155.273438 550.78125 C 155.273438 554.003906 166.113281 550.046875 170.507812 545.214844 C 173.875 541.40625 172.703125 535.253906 168.457031 533.9375 C 165.085938 532.910156 164.5 530.273438 167.578125 530.273438 C 171.09375 530.273438 175.78125 535.253906 176.660156 540.085938 C 177.976562 546.972656 171.679688 552.832031 160.398438 555.175781 C 151.609375 556.933594 131.6875 556.640625 126.855469 554.445312 C 124.804688 553.5625 124.21875 553.710938 124.804688 555.175781 C 125.828125 558.546875 134.617188 559.863281 148.828125 559.277344 C 171.53125 558.105469 182.226562 550.488281 178.710938 537.597656 C 177.539062 533.054688 176.074219 531.445312 171.386719 529.394531 C 168.164062 527.929688 165.527344 525.878906 165.527344 524.707031 C 165.527344 523.390625 166.40625 522.949219 167.871094 523.535156 C 169.1875 523.976562 170.800781 524.414062 171.386719 524.414062 C 172.117188 524.414062 175.046875 526.464844 177.832031 528.808594 C 180.617188 531.296875 183.25 532.617188 183.691406 531.882812 C 184.863281 529.980469 176.367188 523.09375 171.679688 522.070312 C 169.484375 521.632812 166.992188 521.046875 166.257812 520.75 C 165.382812 520.605469 163.183594 511.230469 161.425781 500.242188 C 159.523438 489.109375 157.910156 479.445312 157.765625 478.859375 C 157.617188 478.273438 178.5625 477.539062 204.492188 477.246094 C 240.96875 476.953125 250.046875 477.101562 245.214844 478.417969 C 234.8125 481.054688 233.351562 483.25 233.203125 496.289062 C 233.054688 510.5 234.8125 513.28125 245.214844 516.359375 C 254.148438 518.992188 291.648438 518.992188 292.53125 516.359375 C 292.820312 515.476562 285.789062 515.039062 272.898438 515.332031 C 240.085938 516.0625 234.082031 512.695312 235.398438 494.53125 L 236.132812 484.570312 L 242.285156 481.789062 C 245.507812 480.320312 249.757812 479.003906 251.660156 479.003906 C 256.054688 479.003906 255.90625 482.8125 251.367188 483.984375 C 247.117188 485.007812 242.726562 493.652344 244.042969 498.632812 C 245.65625 505.226562 251.21875 508.742188 261.035156 509.472656 C 267.335938 509.914062 269.679688 509.617188 268.945312 508.445312 C 268.359375 507.570312 265.28125 506.835938 262.0625 506.835938 C 246.242188 506.835938 240.234375 492.335938 253.273438 485.742188 C 258.546875 482.960938 260.890625 485.15625 257.078125 489.257812 C 253.5625 493.066406 255.320312 498.925781 260.742188 501.710938 C 267.039062 504.929688 288.574219 506.542969 288.574219 503.757812 C 288.574219 502.148438 285.789062 501.710938 277 501.5625 C 264.257812 501.5625 257.8125 498.78125 257.8125 493.507812 C 257.8125 489.695312 261.765625 488.378906 264.84375 491.164062 C 268.652344 494.679688 304.101562 497.167969 335.449219 496.140625 C 361.816406 495.265625 390.820312 491.015625 395.070312 487.5 C 396.972656 486.035156 397.265625 486.179688 396.828125 488.523438 C 395.945312 492.480469 389.941406 495.117188 378.664062 496.140625 C 373.390625 496.582031 368.703125 497.609375 368.117188 498.484375 C 366.648438 500.828125 388.183594 498.195312 394.042969 495.410156 C 399.609375 492.773438 401.515625 487.792969 398.289062 483.984375 C 397.414062 482.8125 396.972656 481.347656 397.558594 480.761719 C 398.585938 479.734375 405.761719 487.351562 405.761719 489.550781 C 405.761719 492.335938 397.851562 499.21875 393.015625 500.683594 C 389.941406 501.5625 379.980469 502.734375 370.898438 503.320312 C 359.617188 504.054688 354.785156 504.785156 355.8125 505.8125 C 357.859375 507.859375 390.234375 504.929688 397.265625 502 C 403.417969 499.367188 408.691406 492.039062 407.664062 487.648438 C 407.226562 486.035156 404.882812 483.105469 402.539062 481.054688 C 400.046875 479.148438 398.4375 476.953125 399.023438 476.515625 C 400.929688 474.460938 410.304688 485.742188 411.179688 491.164062 C 411.914062 495.703125 411.328125 497.023438 407.664062 500.828125 C 400.488281 508.007812 390.820312 510.058594 359.179688 511.085938 C 343.796875 511.523438 331.054688 511.523438 331.054688 510.789062 C 331.054688 510.203125 323.289062 509.765625 313.914062 509.914062 C 284.617188 510.058594 300 512.402344 337.207031 513.574219 C 374.414062 514.601562 392.578125 512.84375 404.296875 506.835938 C 414.992188 501.414062 417.335938 489.84375 409.421875 481.347656 C 407.375 479.148438 405.761719 477.101562 405.761719 476.660156 C 405.761719 476.367188 410.742188 476.074219 416.75 476.074219 L 427.734375 476.074219 L 426.855469 482.226562 C 426.414062 485.742188 425.097656 494.238281 423.925781 501.414062 C 422.753906 508.445312 421.875 514.304688 421.875 514.601562 C 421.875 514.746094 418.652344 514.890625 414.695312 514.890625 C 402.6875 514.890625 397.414062 523.535156 404.148438 531.882812 C 408.105469 536.867188 409.570312 534.375 405.761719 529.25 C 402.101562 524.265625 402.976562 520.460938 408.25 518.40625 C 413.085938 516.648438 420.410156 516.796875 420.410156 518.703125 C 420.410156 519.578125 419.238281 519.875 417.625 519.289062 C 413.964844 518.117188 407.960938 523.242188 409.132812 526.464844 C 410.15625 529.101562 414.109375 531.152344 415.578125 529.6875 C 416.164062 529.25 415.28125 527.929688 413.820312 526.757812 C 410.59375 524.414062 412.0625 521.484375 416.75 521.484375 C 419.96875 521.484375 419.96875 521.777344 418.796875 527.34375 C 418.066406 530.421875 415.722656 538.914062 413.378906 545.945312 L 409.421875 558.835938 L 391.113281 568.210938 C 380.125 573.78125 372.65625 576.855469 372.363281 575.828125 C 371.632812 573.484375 362.402344 573.925781 360.351562 576.414062 C 359.03125 578.027344 357.128906 578.46875 354.34375 577.882812 C 348.78125 576.5625 345.851562 581.542969 349.804688 585.5 C 351.269531 586.960938 353.027344 589.304688 353.46875 590.773438 C 354.054688 592.234375 355.078125 593.117188 355.8125 592.53125 C 356.6875 592.089844 358.007812 593.117188 358.886719 594.726562 C 361.523438 599.707031 366.503906 598.242188 371.046875 591.0625 C 373.390625 587.402344 375 583.300781 374.707031 581.984375 C 374.414062 579.929688 376.609375 578.171875 383.789062 574.953125 C 405.90625 564.695312 414.550781 559.421875 414.257812 556.054688 C 414.257812 554.445312 415.867188 547.117188 418.066406 539.796875 C 420.117188 532.617188 421.875 525.734375 421.875 524.414062 C 422.023438 518.261719 427.585938 517.234375 432.859375 522.363281 C 437.988281 527.492188 433.15625 536.132812 425.242188 536.132812 C 423.339844 536.132812 421.875 536.71875 421.875 537.597656 C 421.875 538.328125 423.484375 539.0625 425.390625 539.0625 C 430.226562 539.0625 437.988281 532.324219 437.988281 528.078125 C 437.988281 523.535156 432.859375 517.53125 428.027344 516.359375 L 423.925781 515.476562 L 425.828125 506.398438 C 426.855469 501.414062 428.171875 492.480469 428.613281 486.621094 L 429.640625 476.074219 L 656.25 476.074219 L 656.25 656.25 L 2.929688 656.25 L 2.929688 476.804688 L 125.976562 476.804688 Z M 155.710938 481.789062 C 156.738281 485.742188 150.878906 488.085938 137.84375 488.964844 C 128.027344 489.550781 127 489.40625 127.882812 487.207031 C 128.46875 485.742188 128.90625 483.691406 128.90625 482.519531 C 128.90625 481.054688 129.929688 480.617188 132.273438 481.203125 C 134.03125 481.492188 139.160156 481.347656 143.554688 480.617188 C 147.949219 479.882812 152.34375 479.296875 153.222656 479.148438 C 154.25 479.148438 155.273438 480.320312 155.710938 481.789062 Z M 157.324219 489.992188 C 158.351562 492.921875 144.578125 496.875 135.351562 496.289062 C 125.683594 495.703125 124.953125 492.1875 134.328125 492.039062 C 138.132812 492.039062 144.289062 491.164062 147.949219 490.136719 C 151.609375 488.964844 154.980469 488.085938 155.421875 487.9375 C 156.007812 487.9375 156.738281 488.820312 157.324219 489.992188 Z M 158.640625 497.898438 C 159.667969 501.710938 153.664062 503.90625 138.867188 504.929688 C 127.585938 505.8125 127.441406 505.8125 127.441406 502.296875 C 127.441406 498.925781 127.882812 498.78125 138.132812 498.632812 C 143.847656 498.484375 150.292969 497.609375 152.34375 496.875 C 157.46875 494.679688 157.765625 494.824219 158.640625 497.898438 Z M 159.667969 506.101562 C 159.667969 509.472656 153.222656 511.375 140.1875 511.671875 C 131.835938 511.816406 128.320312 511.375 127.882812 510.058594 C 127.441406 508.742188 129.640625 508.300781 135.789062 508.15625 C 140.476562 508.15625 147.21875 507.273438 150.878906 506.25 C 159.8125 503.613281 159.667969 503.613281 159.667969 506.101562 Z M 161.132812 512.546875 C 161.132812 517.234375 146.921875 520.898438 131.542969 520.164062 C 129.929688 520.019531 128.90625 518.847656 128.90625 517.089844 C 128.90625 514.453125 129.929688 514.160156 140.332031 514.160156 C 146.632812 514.015625 153.515625 513.132812 156.007812 511.960938 C 158.496094 510.9375 160.546875 509.914062 160.839844 509.914062 C 160.984375 509.765625 161.132812 510.9375 161.132812 512.546875 Z M 160.253906 522.21875 C 151.171875 528.953125 128.90625 531.152344 128.90625 525.148438 C 128.90625 523.976562 132.421875 523.09375 140.332031 522.65625 C 146.484375 522.363281 153.664062 521.046875 156.007812 519.726562 C 161.28125 517.234375 164.5 518.992188 160.253906 522.21875 Z M 163.183594 526.757812 C 165.085938 531.59375 153.222656 536.132812 138.574219 536.132812 C 131.542969 536.132812 130.371094 535.695312 130.371094 533.496094 C 130.371094 531.152344 131.542969 530.859375 139.601562 530.859375 C 146.046875 530.859375 150.292969 530.125 154.539062 527.929688 C 162.011719 523.976562 162.15625 523.976562 163.183594 526.757812 Z M 164.0625 535.984375 C 164.0625 539.5 156.152344 543.3125 146.632812 544.484375 C 137.84375 545.507812 131.835938 544.1875 131.835938 541.257812 C 131.835938 539.5 133.886719 539.0625 141.0625 539.0625 C 146.921875 539.0625 152.195312 538.039062 156.007812 536.28125 C 163.476562 532.617188 164.0625 532.617188 164.0625 535.984375 Z M 370.3125 577.441406 C 372.949219 580.078125 372.363281 583.886719 368.261719 589.890625 C 364.015625 596.191406 361.085938 597.070312 361.230469 592.089844 C 361.375 589.160156 360.789062 588.867188 357.859375 589.601562 C 355.957031 590.039062 354.492188 589.746094 354.492188 588.867188 C 354.492188 588.132812 355.226562 587.402344 355.957031 587.402344 C 358.742188 587.402344 357.421875 584.617188 354.492188 584.179688 C 349.511719 583.445312 350.390625 580.957031 355.8125 580.664062 C 358.445312 580.515625 361.671875 579.34375 362.988281 578.027344 C 365.773438 575.242188 367.96875 575.097656 370.3125 577.441406 Z M 370.3125 577.441406 "/>
<path style=" stroke:none;fill-rule:nonzero;fill:rgb(0%,0%,0%);fill-opacity:1;" d="M 314.5 351.125 C 313.183594 351.414062 312.304688 352.441406 312.742188 353.171875 C 314.0625 355.226562 317.429688 354.785156 318.457031 352.296875 C 319.335938 350.097656 319.042969 349.953125 314.5 351.125 Z M 314.5 351.125 "/>
<path style=" stroke:none;fill-rule:nonzero;fill:rgb(0%,0%,0%);fill-opacity:1;" d="M 301.757812 357.421875 C 301.757812 358.15625 302.34375 358.886719 303.078125 358.886719 C 303.953125 358.886719 304.980469 358.15625 305.421875 357.421875 C 305.859375 356.542969 305.273438 355.957031 304.101562 355.957031 C 302.78125 355.957031 301.757812 356.542969 301.757812 357.421875 Z M 301.757812 357.421875 "/>
<path style=" stroke:none;fill-rule:nonzero;fill:rgb(0%,0%,0%);fill-opacity:1;" d="M 307.617188 360.351562 C 307.617188 363.574219 308.789062 364.015625 312.011719 361.816406 C 313.914062 360.5 313.914062 360.203125 312.011719 358.886719 C 308.789062 356.6875 307.617188 357.128906 307.617188 360.351562 Z M 307.617188 360.351562 "/>
<path style=" stroke:none;fill-rule:nonzero;fill:rgb(0%,0%,0%);fill-opacity:1;" d="M 66.0625 421.289062 C 61.816406 423.484375 56.25 427.441406 53.757812 430.078125 L 49.21875 434.765625 L 44.238281 430.515625 C 40.722656 427.296875 37.9375 426.269531 33.691406 426.269531 C 30.46875 426.269531 27.832031 426.855469 27.832031 427.441406 C 27.832031 428.027344 30.175781 428.613281 33.105469 428.613281 C 37.351562 428.613281 39.40625 429.785156 43.796875 434.472656 C 46.875 437.695312 49.953125 441.503906 50.828125 443.117188 C 53.171875 447.363281 54.640625 444.875 52.585938 440.332031 C 50.976562 436.960938 51.269531 436.085938 54.34375 432.714844 C 58.59375 428.171875 67.96875 422.609375 73.679688 421.289062 C 75.878906 420.703125 77.636719 419.679688 77.636719 418.945312 C 77.636719 416.601562 74.265625 417.335938 66.0625 421.289062 Z M 66.0625 421.289062 "/>
<path style=" stroke:none;fill-rule:nonzero;fill:rgb(0%,0%,0%);fill-opacity:1;" d="M 506.398438 420.554688 C 499.21875 422.167969 493.066406 425.539062 489.257812 429.492188 C 486.621094 432.273438 486.179688 432.421875 484.421875 430.371094 C 480.03125 424.953125 470.214844 420.996094 470.214844 424.804688 C 470.214844 425.539062 471.386719 426.269531 473 426.269531 C 477.101562 426.269531 483.105469 431.6875 486.621094 438.429688 C 488.378906 441.796875 489.992188 443.847656 490.28125 442.820312 C 490.578125 441.796875 490.28125 439.890625 489.40625 438.28125 C 486.328125 432.570312 495.410156 425.390625 507.859375 423.484375 C 511.375 423.046875 514.304688 422.023438 514.304688 421.140625 C 514.453125 419.238281 512.84375 419.09375 506.398438 420.554688 Z M 506.398438 420.554688 "/>
<path style=" stroke:none;fill-rule:nonzero;fill:rgb(0%,0%,0%);fill-opacity:1;" d="M 149.414062 406.492188 C 149.414062 407.664062 150.148438 408.691406 150.878906 408.691406 C 151.757812 408.691406 152.34375 407.664062 152.34375 406.492188 C 152.34375 405.320312 151.757812 404.296875 150.878906 404.296875 C 150.148438 404.296875 149.414062 405.320312 149.414062 406.492188 Z M 149.414062 406.492188 "/>
<path style=" stroke:none;fill-rule:nonzero;fill:rgb(0%,0%,0%);fill-opacity:1;" d="M 363.28125 499.511719 C 363.28125 500.242188 364.015625 500.976562 364.746094 500.976562 C 365.625 500.976562 366.210938 500.242188 366.210938 499.511719 C 366.210938 498.632812 365.625 498.046875 364.746094 498.046875 C 364.015625 498.046875 363.28125 498.632812 363.28125 499.511719 Z M 363.28125 499.511719 "/>
<path style=" stroke:none;fill-rule:nonzero;fill:rgb(0%,0%,0%);fill-opacity:1;" d="M 298.828125 503.757812 C 298.828125 505.371094 319.921875 506.6875 328.5625 505.8125 C 341.015625 504.34375 335.742188 503.027344 317.140625 502.734375 C 307.03125 502.734375 298.828125 503.171875 298.828125 503.757812 Z M 298.828125 503.757812 "/>
<path style=" stroke:none;fill-rule:nonzero;fill:rgb(0%,0%,0%);fill-opacity:1;" d="M 345.996094 505.515625 C 346.289062 506.398438 347.167969 506.984375 347.898438 506.984375 C 348.632812 506.984375 349.511719 506.398438 349.804688 505.515625 C 350.097656 504.640625 349.21875 503.90625 347.898438 503.90625 C 346.582031 503.90625 345.703125 504.640625 345.996094 505.515625 Z M 345.996094 505.515625 "/>
<path style=" stroke:none;fill-rule:nonzero;fill:rgb(0%,0%,0%);fill-opacity:1;" d="M 57.128906 507.859375 C 55.957031 508.300781 53.46875 509.914062 51.710938 511.523438 C 48.78125 514.304688 48.339844 514.304688 45.117188 512.109375 C 40.722656 509.03125 31.640625 509.03125 29.148438 512.109375 C 27.390625 514.304688 27.539062 514.453125 30.761719 513.28125 C 36.914062 511.230469 42.335938 512.109375 46.4375 515.773438 C 49.21875 518.40625 50.390625 518.847656 50.976562 517.234375 C 52.296875 513.28125 57.128906 509.765625 61.230469 509.765625 C 63.429688 509.765625 67.96875 511.085938 71.484375 512.695312 C 78.222656 515.773438 80.125 514.015625 73.535156 510.644531 C 68.703125 508.15625 60.203125 506.6875 57.128906 507.859375 Z M 57.128906 507.859375 "/>
<path style=" stroke:none;fill-rule:nonzero;fill:rgb(0%,0%,0%);fill-opacity:1;" d="M 277.585938 509.765625 C 278.027344 510.5 280.371094 511.230469 282.859375 511.230469 C 285.203125 511.230469 287.109375 510.5 287.109375 509.765625 C 287.109375 508.886719 284.765625 508.300781 281.835938 508.300781 C 278.757812 508.300781 277 508.886719 277.585938 509.765625 Z M 277.585938 509.765625 "/>
<path style=" stroke:none;fill-rule:nonzero;fill:rgb(0%,0%,0%);fill-opacity:1;" d="M 295.898438 515.625 C 295.898438 516.359375 297.949219 517.089844 300.292969 517.089844 C 302.78125 517.089844 304.6875 516.359375 304.6875 515.625 C 304.6875 514.746094 302.78125 514.160156 300.292969 514.160156 C 297.949219 514.160156 295.898438 514.746094 295.898438 515.625 Z M 295.898438 515.625 "/>
<path style=" stroke:none;fill-rule:nonzero;fill:rgb(0%,0%,0%);fill-opacity:1;" d="M 427.441406 524.5625 C 428.90625 526.171875 428.613281 527.050781 425.976562 529.101562 C 423.632812 530.859375 423.339844 531.738281 424.804688 531.738281 C 430.515625 531.738281 432.859375 524.851562 427.734375 523.242188 C 425.976562 522.65625 425.828125 522.949219 427.441406 524.5625 Z M 427.441406 524.5625 "/>
<path style=" stroke:none;fill-rule:nonzero;fill:rgb(0%,0%,0%);fill-opacity:1;" d="M 121.582031 528.367188 C 114.992188 530.859375 109.421875 539.210938 110.890625 544.773438 C 112.207031 549.757812 113.964844 548.289062 113.820312 542.578125 C 113.671875 538.476562 114.550781 536.425781 117.773438 533.789062 C 119.96875 531.882812 122.753906 530.273438 123.925781 530.273438 C 125.097656 530.273438 125.976562 529.539062 125.976562 528.808594 C 125.976562 527.195312 124.953125 527.195312 121.582031 528.367188 Z M 121.582031 528.367188 "/>
<path style=" stroke:none;fill-rule:nonzero;fill:rgb(0%,0%,0%);fill-opacity:1;" d="M 410.15625 536.132812 C 410.15625 536.867188 411.179688 537.597656 412.351562 537.597656 C 413.523438 537.597656 414.550781 536.867188 414.550781 536.132812 C 414.550781 535.253906 413.523438 534.667969 412.351562 534.667969 C 411.179688 534.667969 410.15625 535.253906 410.15625 536.132812 Z M 410.15625 536.132812 "/>
<path style=" stroke:none;fill-rule:nonzero;fill:rgb(0%,0%,0%);fill-opacity:1;" d="M 183.105469 539.0625 C 183.105469 540.671875 183.835938 541.992188 184.570312 541.992188 C 185.449219 541.992188 186.035156 540.671875 186.035156 539.0625 C 186.035156 537.453125 185.449219 536.132812 184.570312 536.132812 C 183.835938 536.132812 183.105469 537.453125 183.105469 539.0625 Z M 183.105469 539.0625 "/>
<path style=" stroke:none;fill-rule:nonzero;fill:rgb(0%,0%,0%);fill-opacity:1;" d="M 182.519531 547.851562 C 182.078125 550.488281 179.445312 554.734375 176.804688 557.375 C 169.484375 564.695312 158.496094 566.894531 143.847656 564.109375 C 140.476562 563.378906 137.257812 563.378906 136.816406 564.109375 C 135.644531 566.164062 143.40625 567.480469 155.421875 567.480469 C 170.070312 567.335938 179.003906 562.648438 183.398438 552.6875 C 185.304688 548.4375 185.742188 545.507812 184.863281 544.628906 C 183.984375 543.75 183.105469 544.921875 182.519531 547.851562 Z M 182.519531 547.851562 "/>
<path style=" stroke:none;fill-rule:nonzero;fill:rgb(0%,0%,0%);fill-opacity:1;" d="M 116.015625 551.074219 C 116.453125 552.101562 117.921875 553.273438 119.53125 553.5625 C 121.875 554.003906 122.023438 553.710938 120.265625 551.660156 C 117.921875 548.875 115.28125 548.585938 116.015625 551.074219 Z M 116.015625 551.074219 "/>
<path style=" stroke:none;fill-rule:nonzero;fill:rgb(0%,0%,0%);fill-opacity:1;" d="M 549.460938 550.929688 C 547.558594 551.660156 543.457031 554.296875 540.382812 556.789062 L 534.8125 561.179688 L 530.566406 558.105469 C 528.222656 556.347656 523.679688 554.589844 520.460938 554.148438 C 513.132812 553.125 506.25 558.25 507.128906 563.964844 C 507.714844 567.625 507.714844 567.625 509.617188 563.234375 C 510.644531 560.890625 512.257812 558.398438 513.132812 557.8125 C 516.945312 555.320312 524.121094 556.789062 529.980469 560.890625 C 535.398438 564.84375 536.132812 564.992188 537.890625 562.9375 C 542.726562 557.078125 551.367188 552.246094 557.078125 552.246094 C 561.914062 552.246094 563.820312 553.125 567.921875 557.519531 L 572.898438 562.792969 L 579.640625 557.519531 C 588.28125 550.78125 591.796875 550.78125 597.65625 557.519531 C 602.636719 563.378906 605.273438 563.234375 601.464844 557.519531 C 598.242188 552.539062 590.917969 548.875 586.523438 549.902344 C 584.617188 550.488281 580.8125 552.832031 577.882812 555.320312 C 573.632812 559.132812 572.609375 559.421875 571.875 557.519531 C 569.53125 551.367188 557.375 547.703125 549.460938 550.929688 Z M 549.460938 550.929688 "/>
<path style=" stroke:none;fill-rule:nonzero;fill:rgb(0%,0%,0%);fill-opacity:1;" d="M 142.820312 552.246094 C 143.261719 552.976562 144.578125 553.273438 145.75 552.6875 C 148.828125 551.660156 148.535156 550.78125 144.875 550.78125 C 143.261719 550.78125 142.234375 551.367188 142.820312 552.246094 Z M 142.820312 552.246094 "/>
<path style=" stroke:none;fill-rule:nonzero;fill:rgb(0%,0%,0%);fill-opacity:1;" d="M 226.464844 570.554688 C 221.777344 573.046875 218.40625 576.855469 218.261719 579.640625 C 218.261719 582.570312 220.75 581.835938 221.632812 578.757812 C 222.65625 574.65625 229.25 570.851562 233.054688 572.023438 C 234.8125 572.609375 237.890625 574.804688 239.941406 577 C 242.578125 579.785156 243.75 580.226562 244.335938 578.757812 C 245.945312 573.925781 250.488281 571.289062 257.226562 571.289062 C 263.234375 571.289062 264.695312 572.023438 269.824219 577.148438 C 276.414062 583.59375 276.855469 583.886719 276.855469 580.957031 C 276.855469 579.785156 278.90625 577.148438 281.398438 575.097656 C 288.429688 569.238281 297.070312 569.679688 304.6875 576.5625 C 307.910156 579.492188 310.984375 581.542969 311.570312 580.957031 C 312.890625 579.785156 306.445312 573.046875 301.464844 570.410156 C 293.40625 566.164062 280.371094 569.09375 276.710938 575.828125 L 275.097656 578.90625 L 273.046875 575.828125 C 267.335938 567.921875 252.976562 565.722656 246.679688 572.023438 L 243.164062 575.539062 L 237.890625 572.023438 C 231.59375 567.773438 231.882812 567.773438 226.464844 570.554688 Z M 226.464844 570.554688 "/>
<path style=" stroke:none;fill-rule:nonzero;fill:rgb(0%,0%,0%);fill-opacity:1;" d="M 119.238281 616.554688 C 116.75 618.015625 113.378906 621.09375 111.765625 623.4375 L 108.691406 627.539062 L 103.417969 622.851562 C 99.757812 619.628906 96.53125 618.164062 93.3125 618.164062 C 87.742188 618.164062 82.03125 621.679688 82.03125 625.046875 C 82.03125 627.101562 82.46875 626.953125 85.398438 624.460938 C 87.15625 622.851562 89.796875 621.09375 91.257812 620.65625 C 94.335938 619.484375 100.632812 622.414062 104.589844 626.804688 C 106.203125 628.5625 107.960938 629.882812 108.691406 629.882812 C 109.277344 629.882812 112.792969 626.953125 116.164062 623.289062 C 121.140625 618.164062 123.632812 616.699219 127.296875 616.699219 C 132.273438 616.699219 144.726562 622.414062 147.804688 626.074219 C 149.5625 628.125 150.148438 627.832031 153.808594 624.023438 C 159.8125 617.578125 169.921875 618.164062 180.03125 625.78125 C 185.59375 630.03125 187.207031 628.710938 182.078125 624.023438 C 177.390625 619.773438 169.335938 616.699219 162.890625 616.699219 C 158.789062 616.699219 151.320312 620.359375 150.4375 622.851562 C 150 624.316406 149.121094 624.171875 147.070312 622.265625 C 142.96875 618.75 131.6875 613.769531 127.441406 613.769531 C 125.390625 613.769531 121.726562 615.085938 119.238281 616.554688 Z M 119.238281 616.554688 "/>
<path style=" stroke:none;fill-rule:nonzero;fill:rgb(0%,0%,0%);fill-opacity:1;" d="M 352.441406 640.136719 C 347.460938 641.75 341.308594 647.167969 341.308594 650.097656 C 341.308594 651.269531 342.921875 650.390625 345.410156 647.753906 C 352.585938 639.992188 362.402344 640.28125 373.09375 648.339844 C 378.953125 652.734375 379.539062 652.734375 383.9375 648.046875 C 388.328125 643.210938 395.945312 639.84375 399.460938 641.164062 C 400.929688 641.601562 404.148438 643.945312 406.789062 646.289062 L 411.328125 650.683594 L 415.722656 647.460938 C 422.609375 642.335938 431.398438 642.039062 439.890625 646.582031 C 444.140625 648.925781 446.777344 649.65625 446.484375 648.632812 C 446.191406 647.609375 442.96875 645.265625 439.453125 643.359375 C 431.542969 639.257812 422.3125 639.695312 416.015625 644.382812 L 411.765625 647.460938 L 407.375 643.066406 C 401.074219 636.765625 393.601562 636.914062 384.523438 643.796875 L 377.78125 649.070312 L 373.390625 645.410156 C 371.046875 643.359375 366.648438 641.015625 363.574219 640.136719 C 357.421875 638.523438 358.15625 638.523438 352.441406 640.136719 Z M 352.441406 640.136719 "/>
</g>
</svg>
