<?xml version="1.0" standalone="no"?>
<!DOCTYPE svg PUBLIC "-//W3C//DTD SVG 20010904//EN"
 "http://www.w3.org/TR/2001/REC-SVG-20010904/DTD/svg10.dtd">
<svg version="1.0" xmlns="http://www.w3.org/2000/svg"
 width="512.000000pt" height="512.000000pt" viewBox="0 0 512.000000 512.000000"
 preserveAspectRatio="xMidYMid meet">
<metadata>
Created by potrace 1.10, written by Peter Selinger 2001-2011
</metadata>
<g transform="translate(0.000000,512.000000) scale(0.100000,-0.100000)"
fill="#000000" stroke="none">
<path d="M0 2870 l0 -2250 2250 0 2250 0 0 2250 0 2250 -2250 0 -2250 0 0
-2250z m141 2192 c14 -20 29 -46 33 -57 6 -18 9 -17 27 12 28 44 99 77 146 68
141 -26 249 -191 213 -325 -25 -93 -103 -130 -194 -91 -28 12 -55 23 -60 24
-4 1 -14 -20 -21 -46 -7 -29 -25 -62 -45 -82 -45 -46 -87 -59 -182 -56 l-38 1
0 295 0 295 48 0 c43 0 49 -4 73 -38z m119 27 c-14 -6 -37 -22 -52 -36 -16
-15 -28 -22 -28 -17 0 5 -11 22 -25 37 l-26 27 78 -1 c62 0 73 -2 53 -10z
m4033 -37 l-27 -49 -31 18 c-45 26 -132 49 -187 49 -63 0 -106 -19 -161 -69
-94 -86 -119 -224 -62 -330 68 -124 191 -152 317 -72 l44 28 27 -58 c17 -35
42 -69 64 -86 33 -25 44 -28 120 -28 l83 0 0 -1163 0 -1164 -27 34 c-39 47
-51 56 -112 85 -44 21 -68 26 -140 26 -79 0 -93 -3 -144 -30 l-56 -30 -20 66
c-28 92 -70 147 -134 177 -63 29 -110 30 -162 4 -22 -11 -40 -20 -41 -20 -1 0
-10 23 -20 52 -20 62 -117 168 -152 168 -12 0 -22 3 -22 8 0 4 14 41 32 82 17
41 41 111 53 155 21 76 23 80 56 88 38 9 89 54 121 105 l20 33 27 -25 c85 -81
261 -30 348 100 31 46 38 67 41 118 4 59 2 65 -28 100 -54 61 -136 93 -204 80
-20 -3 -64 -24 -97 -45 -53 -35 -83 -49 -66 -33 3 3 1 19 -5 35 -14 41 -94
108 -144 121 l-42 12 -25 95 c-121 464 -494 856 -955 1005 -156 50 -278 69
-457 69 -176 0 -301 -19 -453 -69 -125 -41 -311 -135 -407 -206 -118 -87 -320
-301 -373 -393 -5 -11 -20 -9 -70 7 -54 18 -68 19 -103 9 -54 -16 -114 -72
-134 -125 l-17 -44 -30 16 c-105 52 -267 2 -297 -91 -32 -96 85 -227 203 -227
25 0 69 9 98 20 29 11 54 20 56 20 1 0 2 -9 2 -21 0 -27 16 -58 51 -94 l28
-30 -11 -110 c-21 -200 24 -503 97 -664 14 -29 25 -55 25 -57 0 -2 -12 -4 -26
-4 -53 0 -109 -25 -151 -66 -42 -43 -83 -110 -83 -139 0 -22 -8 -19 -36 14
-33 39 -82 54 -160 49 -74 -5 -104 -22 -150 -90 l-30 -45 -28 23 c-15 13 -45
27 -67 30 l-39 7 0 1006 0 1007 65 -4 c51 -3 73 0 109 18 58 28 94 71 102 121
4 21 7 39 8 39 0 0 25 -9 54 -20 66 -25 85 -25 138 1 153 73 88 370 -95 435
-30 11 304 13 1941 14 l1978 0 -27 -48z m187 -261 c0 -286 -1 -310 -17 -315
-86 -24 -143 -13 -190 36 -36 39 -63 89 -63 118 0 27 -11 25 -66 -10 -95 -60
-185 -61 -255 -3 -73 61 -96 188 -52 285 26 57 92 123 140 139 62 20 163 8
233 -29 35 -18 64 -31 65 -30 0 2 16 29 35 61 l34 57 68 0 68 0 0 -309z
m-2079 -71 c413 -84 758 -328 966 -683 73 -124 115 -223 148 -342 30 -108 30
-105 5 -105 -51 0 -145 -84 -157 -140 -7 -35 -3 -34 -39 -15 -38 20 -154 20
-202 -1 -51 -21 -91 -61 -98 -100 -12 -65 36 -147 113 -195 48 -30 141 -31
199 -2 l41 20 17 -49 c18 -50 63 -95 115 -113 l29 -10 -29 -98 c-81 -272 -249
-521 -480 -712 l-79 -66 0 78 c0 85 -26 394 -36 431 -6 19 -13 22 -63 22 -74
-1 -187 -22 -285 -53 l-79 -26 -53 57 c-30 31 -54 66 -54 77 0 41 -20 88 -70
162 -27 42 -49 77 -48 78 2 1 20 12 41 24 20 12 37 27 37 32 0 11 6 12 -67
-10 l-61 -19 -254 384 c-139 211 -257 384 -263 384 -5 0 -37 -18 -70 -40 -32
-21 -72 -45 -87 -51 -15 -6 -28 -15 -28 -19 0 -4 30 -61 67 -126 36 -66 98
-177 138 -249 39 -71 108 -196 153 -277 45 -81 82 -152 82 -158 0 -6 -14 -36
-30 -67 -17 -31 -28 -58 -26 -61 3 -2 24 9 48 25 l43 30 47 -73 47 -73 -34
-25 c-67 -51 -96 -138 -65 -195 6 -13 10 -24 8 -25 -2 -1 -21 -16 -44 -34 -30
-23 -58 -34 -110 -42 -144 -23 -266 -65 -278 -97 -6 -16 59 -163 94 -213 12
-17 20 -30 17 -30 -2 0 -32 12 -67 26 -103 42 -210 99 -292 156 -82 57 -208
164 -208 177 0 4 30 13 66 19 37 6 69 14 73 17 3 4 -12 22 -33 41 -59 51 -141
69 -182 40 -19 -14 -23 -12 -55 32 -133 180 -226 396 -266 616 -18 98 -24 348
-10 428 8 47 8 47 38 36 16 -5 45 -7 65 -4 42 8 108 65 133 115 17 33 19 34
29 14 15 -27 81 -53 136 -53 60 0 157 50 200 103 112 138 96 253 -44 316 -79
36 -158 21 -244 -44 l-34 -26 -6 28 c-4 15 -21 45 -37 66 l-30 37 69 93 c238
319 596 527 993 577 111 14 320 4 440 -20z m-1566 -644 c66 -30 115 -86 115
-130 0 -18 3 -36 6 -39 4 -4 25 9 47 29 85 78 169 93 257 47 58 -31 90 -77 90
-128 -1 -72 -78 -179 -162 -221 -85 -43 -195 -26 -228 36 -11 20 -14 17 -49
-38 -64 -99 -135 -125 -215 -79 -45 25 -75 69 -78 113 -3 44 -5 45 -61 19 -62
-29 -142 -33 -193 -9 -46 22 -91 75 -104 125 -10 34 -8 46 8 77 43 83 216 112
285 48 l25 -23 6 32 c10 50 61 122 103 144 50 26 87 26 148 -3z m1056 -661
c105 -159 217 -329 248 -378 l56 -87 40 5 c34 4 37 3 21 -8 -10 -7 -88 -60
-172 -119 -85 -59 -154 -105 -154 -103 0 3 9 19 20 37 11 18 20 39 20 47 0 8
-50 105 -112 215 -61 111 -156 282 -211 381 -54 99 -104 186 -110 194 -9 10
-9 15 -1 18 6 2 42 23 80 47 38 24 72 43 76 43 4 -1 93 -132 199 -292z m1739
134 c19 -10 42 -24 51 -31 27 -22 59 -81 59 -110 0 -35 10 -35 41 -2 76 81
184 102 270 52 25 -15 55 -40 65 -55 80 -120 -116 -348 -274 -318 -43 8 -92
40 -92 61 0 26 -27 15 -40 -17 -7 -16 -32 -50 -56 -75 -41 -42 -46 -44 -98
-44 -48 0 -60 4 -91 31 -42 37 -65 77 -65 114 0 18 -4 25 -12 21 -7 -2 -44
-15 -81 -27 -59 -18 -74 -20 -114 -9 -61 15 -97 42 -128 94 -57 98 -5 181 126
201 53 8 116 -7 153 -36 24 -19 26 -19 26 -2 0 27 44 115 68 136 30 28 93 47
127 40 17 -3 46 -14 65 -24z m-1347 -681 c15 -20 27 -39 27 -42 0 -15 -72 -17
-100 -2 -31 15 -33 15 -77 -19 -42 -32 -109 -62 -118 -53 -3 2 48 41 113 85
64 45 119 78 123 75 3 -4 17 -24 32 -44z m-12 -66 l58 4 16 -45 c21 -63 19
-112 -8 -152 -42 -63 -125 -86 -190 -52 l-32 17 35 7 c18 4 39 14 45 21 5 8
18 17 28 21 24 9 18 42 -8 42 -14 0 -21 -8 -23 -28 -4 -35 -43 -57 -66 -38 -8
7 -19 10 -24 7 -7 -4 -92 113 -92 128 0 3 11 6 25 6 32 0 93 31 119 59 15 16
22 18 39 10 11 -6 46 -9 78 -7z m-1434 -194 c21 -40 62 -106 91 -146 28 -40
52 -77 52 -82 0 -25 -122 -42 -194 -27 l-39 9 18 -29 c28 -44 66 -71 118 -84
37 -10 46 -17 41 -28 -11 -28 -44 -196 -51 -267 l-8 -69 -422 -3 -423 -2 0
290 c0 280 1 290 19 290 29 0 68 -17 90 -39 16 -16 19 -26 12 -43 -16 -44 -21
-78 -12 -78 5 0 13 15 17 33 10 49 53 133 81 161 35 35 86 49 153 43 66 -6
104 -27 122 -68 7 -16 16 -29 20 -29 3 0 18 31 32 68 40 105 120 171 208 172
36 0 38 -2 75 -72z m1583 -69 c-27 -9 -54 -20 -59 -24 -15 -9 -14 60 1 102
l12 33 48 -47 47 -47 -49 -17z m1088 81 c43 -31 94 -108 114 -172 6 -21 13
-38 15 -38 2 0 16 9 32 21 40 29 102 35 156 15 66 -26 108 -81 142 -187 l28
-88 25 24 c76 73 238 82 347 19 23 -14 58 -45 78 -71 35 -46 35 -46 35 -152
l0 -107 -771 -3 -771 -3 3 103 4 103 77 58 c145 110 315 310 389 460 14 27 31
48 40 48 9 0 35 -13 57 -30z m-598 -100 c6 -52 11 -169 13 -259 l2 -165 -74
-43 c-40 -24 -75 -42 -78 -40 -2 3 3 32 12 66 35 137 36 149 4 175 -28 24
-104 46 -158 46 -25 0 -30 5 -40 44 -6 25 -29 80 -51 122 -22 43 -39 78 -37
80 7 6 106 36 164 49 82 18 215 33 225 25 4 -3 12 -48 18 -100z m-795 40 c17
-19 17 -20 -6 -39 -13 -11 -27 -20 -31 -21 -4 0 -17 -21 -30 -47 -13 -27 -30
-56 -39 -66 -16 -17 -17 -16 -23 17 -5 24 -2 46 10 68 16 33 82 108 94 108 4
0 15 -9 25 -20z m217 -23 c3 -26 -2 -30 -66 -57 -38 -17 -74 -34 -80 -40 -19
-19 -35 -11 -33 17 2 22 -3 29 -20 31 -13 2 -23 7 -23 12 0 14 34 23 97 24 46
1 69 6 90 22 15 12 29 21 30 20 0 0 3 -14 5 -29z m143 -56 c-8 -51 -61 -106
-115 -122 -38 -11 -183 -9 -195 3 -4 4 -4 16 0 27 6 19 14 21 75 21 38 0 81 5
95 10 24 9 26 14 21 43 -6 32 -5 33 51 53 32 11 62 17 67 13 4 -4 5 -26 1 -48z
m48 -18 c25 -50 61 -155 72 -209 4 -24 2 -33 -10 -38 -25 -9 -234 -35 -346
-43 -97 -6 -101 -5 -96 13 3 10 9 51 12 91 l7 71 29 -10 c16 -6 62 -8 103 -6
59 3 81 8 115 31 48 32 81 80 81 120 0 15 2 27 5 27 2 0 15 -21 28 -47z m-185
0 c-3 -27 -6 -28 -68 -34 -36 -4 -67 -5 -69 -3 -3 3 118 62 132 63 5 1 7 -11
5 -26z m-214 11 c20 -8 21 -24 1 -24 -10 0 -15 -10 -15 -29 0 -16 -3 -37 -6
-46 -5 -11 0 -18 16 -22 21 -6 22 -10 16 -57 -3 -28 -6 -68 -6 -88 l0 -38 -80
0 c-64 0 -80 3 -80 15 0 12 13 15 60 15 56 0 60 2 60 23 0 12 3 45 6 74 l7 52
-44 3 c-51 3 -59 22 -13 26 27 3 33 8 38 36 4 18 4 41 0 50 -6 17 11 21 40 10z
m-63 -77 c-13 -13 -15 11 -4 40 7 16 8 15 11 -6 2 -13 -1 -28 -7 -34z m89 -3
c0 -15 -6 -24 -15 -24 -16 0 -19 17 -9 44 9 22 24 10 24 -20z m-1021 -4 c19
-5 45 -20 58 -32 l25 -23 -59 -10 -58 -11 -17 36 c-9 19 -17 38 -17 43 -1 10
28 9 68 -3z m-67 -46 l16 -46 -41 -19 c-77 -35 -191 -16 -240 38 -18 20 -17
20 23 13 54 -10 127 5 170 35 19 13 40 24 45 24 6 1 18 -20 27 -45z m1016 -18
c2 -3 1 -28 -3 -55 l-7 -51 -45 0 c-37 0 -44 3 -39 18 2 9 10 37 17 60 12 41
14 43 43 38 16 -4 31 -8 34 -10z m-92 -22 c-3 -9 -6 -18 -6 -20 0 -2 -12 -4
-26 -4 l-26 0 23 20 c29 24 43 25 35 4z m709 -29 c39 -7 95 -33 95 -46 0 -8
-125 -44 -200 -58 -98 -19 -289 -32 -545 -38 -273 -6 -433 1 -462 22 -16 12
-13 16 39 40 92 42 348 84 348 56 0 -4 -27 -11 -59 -14 -77 -8 -210 -36 -234
-49 -42 -22 8 -30 225 -35 331 -9 587 15 781 72 59 17 68 35 18 35 -43 0 -91
11 -91 21 0 5 10 7 23 5 12 -3 40 -8 62 -11z m-1551 -58 c144 -128 305 -227
459 -282 50 -18 93 -38 95 -44 3 -8 -83 -11 -311 -11 l-315 0 -7 38 c-13 73
-75 248 -100 285 l-26 37 28 0 c15 0 44 8 63 19 19 10 37 19 39 20 1 0 35 -28
75 -62z m1511 18 c-30 -13 -45 -11 -45 6 0 5 17 9 38 8 l37 -1 -30 -13z m-695
-19 c0 -44 -7 -46 -139 -46 -149 1 -145 11 16 39 59 11 111 20 116 20 4 1 7
-5 7 -13z m-1006 -21 c3 -9 0 -15 -9 -15 -8 0 -15 7 -15 15 0 8 4 15 9 15 5 0
11 -7 15 -15z m1825 -54 l-11 -60 -52 -10 c-314 -64 -742 -102 -966 -86 l-101
7 -35 70 c-35 69 -35 71 -12 64 56 -15 274 -18 538 -7 324 14 482 32 579 64
36 12 67 22 69 21 2 -1 -2 -29 -9 -63z m-1809 19 c0 -5 -12 -10 -26 -10 -14 0
-23 4 -19 10 3 6 15 10 26 10 10 0 19 -4 19 -10z m18 -38 c2 -8 -9 -12 -32
-12 -40 0 -49 16 -13 23 30 6 40 3 45 -11z m12 -37 c0 -11 -12 -15 -45 -15
-54 0 -60 17 -7 23 20 2 40 4 45 5 4 1 7 -5 7 -13z m1926 -61 c-3 -26 -6 -69
-6 -95 l0 -49 -89 0 c-50 0 -92 3 -94 8 -3 4 3 26 12 50 14 36 27 49 91 86 41
24 79 44 84 45 5 1 6 -20 2 -45z m-1916 32 c0 -2 2 -11 6 -19 4 -11 -6 -16
-42 -20 -54 -6 -74 -1 -74 18 0 9 16 15 43 18 23 2 48 4 55 5 6 1 12 0 12 -2z
m1750 -9 c0 -7 -18 -67 -39 -133 l-40 -119 -103 -17 c-200 -34 -693 -33 -757
2 -21 11 -151 168 -151 182 0 4 64 5 143 4 205 -5 402 8 642 44 116 17 226 34
245 39 51 13 60 13 60 -2z m-1730 -51 c0 -17 -31 -26 -92 -26 -35 0 -48 4 -48
15 0 10 16 15 63 18 34 2 65 4 70 5 4 1 7 -4 7 -12z m8 -58 c-3 -21 -9 -23
-80 -26 -43 -2 -78 1 -78 5 1 22 20 32 70 36 30 2 63 4 73 5 14 2 18 -4 15
-20z m16 -55 c7 -16 -16 -23 -100 -30 -73 -6 -74 -6 -74 18 0 23 2 24 85 24
55 0 86 -4 89 -12z m-194 -155 c0 -75 3 -143 6 -152 5 -13 -1 -16 -25 -16 -21
0 -43 -11 -70 -36 -96 -86 -72 -203 49 -244 30 -10 59 -16 64 -13 5 4 -15 14
-45 24 -68 22 -109 65 -109 115 0 65 47 122 113 138 26 6 27 5 27 -34 0 -33
-3 -40 -20 -40 -29 0 -45 -37 -29 -66 13 -25 88 -60 111 -51 9 3 7 7 -7 12
-64 22 -77 30 -87 48 -8 16 -7 23 7 33 23 17 35 9 35 -21 0 -30 54 -50 117
-41 58 8 143 45 143 63 0 8 5 11 10 8 6 -3 10 -15 10 -26 0 -21 -53 -59 -82
-59 -10 0 -18 -4 -18 -10 0 -22 74 5 104 38 23 26 15 68 -14 77 -23 7 -27 25
-6 25 24 0 56 -34 62 -67 9 -47 -34 -87 -111 -103 -60 -12 -196 -10 -229 5
-14 6 -18 5 -14 -5 7 -23 67 -32 164 -28 155 8 228 60 204 148 -8 31 -18 42
-50 56 -22 10 -40 24 -40 32 0 9 6 12 16 8 9 -3 20 -6 24 -6 5 0 25 -14 44
-30 19 -17 37 -26 40 -21 8 13 -50 60 -82 67 -15 3 -32 7 -37 9 -6 1 -21 65
-33 140 -13 76 -24 142 -25 146 -1 4 142 9 319 11 249 2 311 1 278 -8 -71 -18
-81 -33 -82 -122 -1 -97 11 -116 82 -137 61 -18 317 -18 323 0 2 6 -46 9 -134
7 -224 -5 -265 18 -256 142 l5 68 42 19 c22 10 51 19 64 19 30 0 29 -26 -2
-34 -29 -7 -59 -66 -50 -100 11 -45 49 -69 116 -74 43 -3 59 -1 54 7 -4 6 -25
11 -47 11 -108 0 -149 99 -60 144 36 19 52 4 26 -24 -24 -26 -12 -66 25 -85
43 -22 190 -33 190 -14 0 11 -19 14 -79 15 -87 0 -131 19 -131 55 0 26 27 35
48 16 26 -24 268 -41 482 -34 180 6 378 35 407 59 13 10 15 9 12 -7 -6 -27
-47 -45 -124 -52 -36 -3 -68 -10 -72 -16 -10 -16 137 2 177 21 38 18 51 52 29
78 -6 8 -9 18 -5 22 7 7 56 -45 56 -60 0 -19 -54 -66 -87 -76 -21 -6 -89 -14
-151 -18 -77 -5 -110 -10 -103 -17 14 -14 235 6 283 26 42 18 78 68 71 98 -3
11 -19 31 -35 45 -17 13 -28 28 -24 31 13 14 77 -63 83 -100 5 -31 1 -40 -24
-66 -49 -49 -115 -63 -331 -70 -105 -3 -192 -3 -192 2 0 4 -53 7 -117 6 -200
-1 -95 -17 159 -25 254 -7 378 5 458 46 73 37 89 116 35 174 -14 15 -25 29
-25 32 0 2 34 4 75 4 l75 0 -6 -42 c-3 -24 -12 -82 -20 -131 -8 -48 -14 -88
-14 -90 0 -1 -22 -2 -49 -2 -82 0 -118 -59 -72 -116 27 -34 37 -17 11 18 -25
34 -19 60 17 74 33 12 83 11 83 -2 0 -6 -8 -8 -19 -4 -25 8 -66 -27 -58 -49 7
-18 34 -32 44 -22 4 3 -2 12 -12 20 -22 16 -12 36 20 36 22 0 22 -2 14 -40 -5
-21 -21 -79 -37 -127 l-27 -88 -125 -64 c-75 -38 -126 -59 -128 -52 -5 16 -68
13 -82 -4 -9 -11 -22 -14 -41 -10 -38 9 -58 -25 -31 -52 10 -10 22 -26 25 -36
4 -10 11 -16 16 -12 6 3 15 -4 21 -15 18 -34 52 -24 83 25 16 25 27 53 25 62
-2 14 13 26 62 48 151 70 210 106 208 129 0 11 11 61 26 111 14 49 26 96 26
105 1 42 39 49 75 14 35 -35 2 -94 -52 -94 -13 0 -23 -4 -23 -10 0 -5 11 -10
24 -10 33 0 86 46 86 75 0 31 -35 72 -68 80 l-28 6 13 62 c7 34 16 95 19 135
l7 72 773 0 774 0 0 -615 0 -615 -2230 0 -2230 0 0 613 0 612 420 0 420 0 0
-137z m203 103 c7 -27 -33 -43 -122 -49 -67 -4 -74 -3 -68 12 4 10 7 24 7 32
0 10 7 13 23 9 12 -2 47 -1 77 4 30 5 60 9 66 10 7 0 14 -8 17 -18z m11 -56
c7 -20 -87 -47 -150 -43 -66 4 -71 28 -7 29 26 0 68 6 93 13 25 8 48 14 51 15
4 0 9 -6 13 -14z m9 -54 c7 -26 -34 -41 -135 -48 -77 -6 -78 -6 -78 18 0 23 3
24 73 25 39 1 83 7 97 12 35 15 37 14 43 -7z m7 -56 c0 -23 -44 -36 -133 -38
-57 -1 -81 2 -84 11 -3 9 12 12 54 13 32 0 78 6 103 13 61 18 60 18 60 1z m10
-44 c0 -32 -97 -57 -202 -52 -11 1 -18 9 -18 21 0 18 7 20 78 20 43 1 90 7
107 15 17 7 31 14 33 14 1 1 2 -7 2 -18z m-6 -66 c-62 -46 -214 -61 -214 -20
0 8 24 14 78 17 42 2 91 11 107 20 36 17 58 5 29 -17z m20 -31 c13 -33 -68
-64 -168 -64 -48 0 -56 3 -56 18 0 16 8 18 63 18 44 0 73 5 102 20 51 27 52
27 59 8z m6 -63 c0 -24 -54 -50 -119 -58 -60 -7 -101 2 -101 22 0 12 14 15 63
15 40 0 76 7 102 19 51 25 55 25 55 2z m1408 -283 c18 -18 14 -44 -14 -85 -29
-43 -49 -49 -48 -15 1 20 -3 22 -23 17 -13 -3 -23 -1 -23 5 0 5 5 10 10 10 19
0 10 19 -10 22 -34 5 -28 22 9 24 18 1 40 9 49 18 19 19 34 20 50 4z"/>
<path d="M2147 2723 c-9 -2 -15 -9 -12 -14 9 -14 32 -11 39 6 6 15 4 16 -27 8z"/>
<path d="M2060 2680 c0 -5 4 -10 9 -10 6 0 13 5 16 10 3 6 -1 10 -9 10 -9 0
-16 -4 -16 -10z"/>
<path d="M2100 2660 c0 -22 8 -25 30 -10 13 9 13 11 0 20 -22 15 -30 12 -30
-10z"/>
<path d="M451 2244 c-29 -15 -67 -42 -84 -60 l-31 -32 -34 29 c-24 22 -43 29
-72 29 -22 0 -40 -4 -40 -8 0 -4 16 -8 36 -8 29 0 43 -8 73 -40 21 -22 42 -48
48 -59 16 -29 26 -12 12 19 -11 23 -9 29 12 52 29 31 93 69 132 78 15 4 27 11
27 16 0 16 -23 11 -79 -16z"/>
<path d="M3457 2249 c-49 -11 -91 -34 -117 -61 -18 -19 -21 -20 -33 -6 -30 37
-97 64 -97 38 0 -5 8 -10 19 -10 28 0 69 -37 93 -83 12 -23 23 -37 25 -30 2 7
0 20 -6 31 -21 39 41 88 126 101 24 3 44 10 44 16 1 13 -10 14 -54 4z"/>
<path d="M1020 2345 c0 -8 5 -15 10 -15 6 0 10 7 10 15 0 8 -4 15 -10 15 -5 0
-10 -7 -10 -15z"/>
<path d="M2480 1710 c0 -5 5 -10 10 -10 6 0 10 5 10 10 0 6 -4 10 -10 10 -5 0
-10 -4 -10 -10z"/>
<path d="M2040 1681 c0 -11 144 -20 203 -14 85 10 49 19 -78 21 -69 0 -125 -3
-125 -7z"/>
<path d="M2362 1669 c2 -6 8 -10 13 -10 5 0 11 4 13 10 2 6 -4 11 -13 11 -9 0
-15 -5 -13 -11z"/>
<path d="M390 1653 c-8 -3 -25 -14 -37 -25 -20 -19 -23 -19 -45 -4 -30 21 -92
21 -109 0 -12 -15 -11 -16 11 -8 42 14 79 8 107 -17 19 -18 27 -21 31 -10 9
27 42 51 70 51 15 0 46 -9 70 -20 46 -21 59 -9 14 14 -33 17 -91 27 -112 19z"/>
<path d="M1895 1640 c3 -5 19 -10 36 -10 16 0 29 5 29 10 0 6 -16 10 -36 10
-21 0 -33 -4 -29 -10z"/>
<path d="M2020 1600 c0 -5 14 -10 30 -10 17 0 30 5 30 10 0 6 -13 10 -30 10
-16 0 -30 -4 -30 -10z"/>
<path d="M2918 1539 c10 -11 8 -17 -10 -31 -16 -12 -18 -18 -8 -18 39 0 55 47
20 58 -12 4 -13 2 -2 -9z"/>
<path d="M830 1513 c-45 -17 -83 -74 -73 -112 9 -34 21 -24 20 15 -1 28 5 42
27 60 15 13 34 24 42 24 8 0 14 5 14 10 0 11 -7 11 -30 3z"/>
<path d="M2800 1460 c0 -5 7 -10 15 -10 8 0 15 5 15 10 0 6 -7 10 -15 10 -8 0
-15 -4 -15 -10z"/>
<path d="M1250 1440 c0 -11 5 -20 10 -20 6 0 10 9 10 20 0 11 -4 20 -10 20 -5
0 -10 -9 -10 -20z"/>
<path d="M1246 1380 c-3 -18 -21 -47 -39 -65 -50 -50 -125 -65 -225 -46 -23 5
-45 5 -48 0 -8 -14 45 -23 127 -23 100 1 161 33 191 101 13 29 16 49 10 55 -6
6 -12 -2 -16 -22z"/>
<path d="M792 1358 c3 -7 13 -15 24 -17 16 -3 17 -1 5 13 -16 19 -34 21 -29 4z"/>
<path d="M3751 1359 c-13 -5 -41 -23 -62 -40 l-38 -30 -29 21 c-16 12 -47 24
-69 27 -50 7 -97 -28 -91 -67 4 -25 4 -25 17 5 7 16 18 33 24 37 26 17 75 7
115 -21 37 -27 42 -28 54 -14 33 40 92 73 131 73 33 0 46 -6 74 -36 l34 -36
46 36 c59 46 83 46 123 0 34 -40 52 -39 26 0 -22 34 -72 59 -102 52 -13 -4
-39 -20 -59 -37 -29 -26 -36 -28 -41 -15 -16 42 -99 67 -153 45z"/>
<path d="M975 1350 c3 -5 12 -7 20 -3 21 7 19 13 -6 13 -11 0 -18 -4 -14 -10z"/>
<path d="M1546 1225 c-32 -17 -55 -43 -56 -62 0 -20 17 -15 23 6 7 28 52 54
78 46 12 -4 33 -19 47 -34 18 -19 26 -22 30 -12 11 33 42 51 88 51 41 0 51 -5
86 -40 45 -44 48 -46 48 -26 0 8 14 26 31 40 48 40 107 37 159 -10 22 -20 43
-34 47 -30 9 8 -35 54 -69 72 -55 29 -144 9 -169 -37 l-11 -21 -14 21 c-39 54
-137 69 -180 26 l-24 -24 -36 24 c-43 29 -41 29 -78 10z"/>
<path d="M814 911 c-17 -10 -40 -31 -51 -47 l-21 -28 -36 32 c-25 22 -47 32
-69 32 -38 0 -77 -24 -77 -47 0 -14 3 -13 23 4 12 11 30 23 40 26 21 8 64 -12
91 -42 11 -12 23 -21 28 -21 4 0 28 20 51 45 34 35 51 45 76 45 34 0 119 -39
140 -64 12 -14 16 -12 41 14 41 44 110 40 179 -12 38 -29 49 -20 14 12 -32 29
-87 50 -131 50 -28 0 -79 -25 -85 -42 -3 -10 -9 -9 -23 4 -28 24 -105 58 -134
58 -14 0 -39 -9 -56 -19z"/>
<path d="M2406 750 c-34 -11 -76 -48 -76 -68 0 -8 11 -2 28 16 49 53 116 51
189 -4 40 -30 44 -30 74 2 30 33 82 56 106 47 10 -3 32 -19 50 -35 l31 -30 30
22 c47 35 107 37 165 6 29 -16 47 -21 45 -14 -2 7 -24 23 -48 36 -54 28 -117
25 -160 -7 l-29 -21 -30 30 c-43 43 -94 42 -156 -5 l-46 -36 -30 25 c-16 14
-46 30 -67 36 -42 11 -37 11 -76 0z"/>
</g>
</svg>
