<?xml version="1.0" encoding="UTF-8"?>
<svg xmlns="http://www.w3.org/2000/svg" xmlns:xlink="http://www.w3.org/1999/xlink" width="512" height="512" viewBox="0 0 60 60" version="1.1"><!-- Generator: Sketch 51.3 (57544) - http://www.bohemiancoding.com/sketch --><title>016 - Paint Bucket</title><desc>Created with Sketch.</desc><defs/><g id="Page-1" stroke="none" stroke-width="1" fill="none" fill-rule="evenodd"><g id="016---Paint-Bucket" fill-rule="nonzero"><path d="M59,22 C59,29.73 54.52,36 49,36 L28,36 C33.52,36 35,29.73 35,22 C35,14.56 33.85,8.48 28.62,8.03 C28.42,8.01 28.21,8 28,8 L49,8 C54.52,8 59,14.27 59,22 Z" id="Shape" fill="#C81E1E"/><path d="M56,22 C56,29.73 51.52,36 46,36 L28,36 C33.52,36 35,29.73 35,22 C35,14.56 33.85,8.48 28.62,8.03 C28.42,8.01 28.21,8 28,8 L46,8 C51.52,8 56,14.27 56,22 Z" id="Shape" fill="#F44335"/><path d="M38,22 C38,29.73 33.52,36 28,36 C27.5022031,36.002814 27.0056941,35.9491373 26.52,35.84 C31.32,34.81 35,29.01 35,22 C35,14.99 31.3,9.17 26.49,8.16 C26.986634,8.05578147 27.4925534,8.00217412 28,8 C28.21,8 28.42,8.01 28.62,8.03 C33.85,8.48 38,14.56 38,22 Z" id="Shape" fill="#CFD8DC"/><path d="M35,22 C35,29.01 31.32,34.81 26.52,35.84 L26.51,35.84 C26.36,35.81 26.22,35.78 26.08,35.74 C26.28,35.25 26.48,34.81 26.7,34.39 C27.4035507,33.1544235 28.4581088,32.1555515 29.73,31.52 C30.3810994,31.1412724 30.9572826,30.6464327 31.43,30.06 L31.44,30.06 C32.5741586,28.6180933 33.3426811,26.9232267 33.68,25.12 C33.76,24.72 33.83,24.3 33.88,23.87 C33.9614035,23.2500154 34.0014919,22.6253041 34,22 C34,16.11 30.84,12 28,12 C27.4784856,12.008562 26.9656734,12.1350557 26.5,12.37 C24.15,13.49 22,17.14 22,22 C21.9345593,24.6425976 22.6701107,27.2431727 24.11,29.46 C23.0651734,30.3179878 22.1132916,31.2832764 21.27,32.34 C20.79729,31.7439113 20.3821026,31.1043887 20.03,30.43 C18.6631612,27.8324113 17.9654575,24.9350506 18,22 C18,15.01 21.66,9.21 26.45,8.17 C26.46,8.17 26.48,8.16 26.49,8.16 C31.3,9.17 35,14.98 35,22 Z" id="Shape" fill="#F5F5F5"/><path d="M41,51.5 C41,55.64 32.05,59 21,59 C20.49,59 19.99,58.99 19.5,58.98 C9.15,58.69 1,55.45 1,51.5 C1,47.86 7.9,44.83 17.07,44.14 L21.48,44.12 L24.2,44.1 L24.26,44.1 C33.76,44.68 41,47.78 41,51.5 Z" id="Shape" fill="#C81E1E"/><path d="M38,51.5 C38,55.45 29.85,58.69 19.5,58.98 C9.15,58.69 1,55.45 1,51.5 C1,47.86 7.9,44.83 17.07,44.14 L21.48,44.12 C30.87,44.73 38,47.81 38,51.5 Z" id="Shape" fill="#F44335"/><path d="M34,22 C34.0014919,22.6253041 33.9614035,23.2500154 33.88,23.87 C33.83,24.3 33.76,24.72 33.68,25.12 C31,26.06 27.19,26.96 24.11,29.46 C23.8862145,29.1430476 23.682483,28.8124014 23.5,28.47 C22.4819233,26.4671754 21.9670804,24.2464868 22,22 C22,16.8 24.46,12.99 27,12.17 C27.3220988,12.0602267 27.6597209,12.0028309 28,12 C30.84,12 34,16.11 34,22 Z" id="Shape" fill="#545C60"/><path d="M32,22 C32.0014919,22.6253041 31.9614035,23.2500154 31.88,23.87 C31.83,24.3 31.76,24.72 31.68,25.12 C29.39,25.92 26.28,26.7 23.5,28.47 C22.4819233,26.4671754 21.9670804,24.2464868 22,22 C22,16.8 24.46,12.99 27,12.17 C29.54,12.99 32,16.8 32,22 Z" id="Shape" fill="#7F8E94"/><path d="M33.68,25.12 C33.3426811,26.9232267 32.5741586,28.6180933 31.44,30.06 L31.43,30.06 C30.9572826,30.6464327 30.3810994,31.1412724 29.73,31.52 C28.4581088,32.1555515 27.4035507,33.1544235 26.7,34.39 C26.48,34.81 26.28,35.25 26.08,35.74 C25.4777165,37.2779013 25.0321269,38.8726431 24.75,40.5 C24.5036779,41.6895274 24.320091,42.8911873 24.2,44.1 C24.1001959,45.1190082 24.1780175,46.1476072 24.43,47.14 C24.6663982,48.0389002 25.1851987,48.8381334 25.91,49.42 C26.0725362,49.5323203 26.152518,49.7306808 26.113353,49.9243298 C26.074188,50.1179789 25.9234095,50.2696688 25.73,50.31 C23.588243,50.7649672 21.3974237,50.9464155 19.21,50.85 C18.72,50.82 18.23,50.78 17.73,50.71 C16.1434557,50.5162668 14.5750649,50.1952316 13.04,49.75 C12.8278277,49.6834645 12.6850891,49.4848061 12.6897206,49.2624942 C12.6943521,49.0401822 12.8452407,48.8476411 13.06,48.79 C14.3799575,48.3162009 15.4820368,47.3776559 16.16,46.15 C16.5341061,45.5143489 16.8391734,44.8405189 17.07,44.14 C17.78,42.08 17.99,39.85 18.54,37.74 C19.0583961,35.7673886 19.9888232,33.9269834 21.27,32.34 C22.1132916,31.2832764 23.0651734,30.3179878 24.11,29.46 C26.3094228,27.8166081 28.7948866,26.5959164 31.44,25.86 C32.24,25.6 33,25.36 33.68,25.12 Z" id="Shape" fill="#BB193B"/><path d="M31.44,25.86 C31.0250037,27.0185895 30.4200723,28.1000311 29.65,29.06 L29.64,29.06 C29.1454994,29.6748284 28.5421278,30.1934568 27.86,30.59 C26.526841,31.2584661 25.4206301,32.3055399 24.68,33.6 C24.45,34.04 24.24,34.5 24.03,35.01 C23.398488,36.6218393 22.9327524,38.2937968 22.64,40 C22.42,41.22 22.16,42.5 22.06,43.77 C21.9585609,44.8392498 22.0397181,45.9179643 22.3,46.96 C22.5534514,47.9019141 23.0997554,48.7388798 23.86,49.35 C24.22,49.62 24.887,50.474 23.952,50.622 C22.3845399,50.8722722 20.7942407,50.9487353 19.21,50.85 C18.72,50.82 18.23,50.78 17.73,50.71 C16.1434557,50.5162668 14.5750649,50.1952316 13.04,49.75 C12.8278277,49.6834645 12.6850891,49.4848061 12.6897206,49.2624942 C12.6943521,49.0401822 12.8452407,48.8476411 13.06,48.79 C14.3799575,48.3162009 15.4820368,47.3776559 16.16,46.15 C16.5341061,45.5143489 16.8391734,44.8405189 17.07,44.14 C17.78,42.08 17.99,39.85 18.54,37.74 C19.0583961,35.7673886 19.9888232,33.9269834 21.27,32.34 C22.1132916,31.2832764 23.0651734,30.3179878 24.11,29.46 C26.3094228,27.8166081 28.7948866,26.5959164 31.44,25.86 Z" id="Shape" fill="#EF314C"/><circle id="Oval" fill="#C03A2B" cx="46" cy="22" r="2"/><path d="M28,37 C27.261545,36.9979185 26.5266896,36.897023 25.815,36.7 C25.5396085,36.6243927 25.3096822,36.4346495 25.1831905,36.1786089 C25.0566988,35.9225683 25.0457119,35.6246624 25.153,35.36 C25.359,34.851 25.58,34.37 25.811,33.928 C26.5994115,32.5122982 27.7956126,31.3666212 29.244,30.64 C29.78732,30.3234587 30.2671231,29.9087596 30.659,29.417 C30.6855176,29.3853357 30.7139014,29.3552822 30.744,29.327 C31.9622419,27.7033828 32.7042916,25.7725993 32.887,23.751 C32.9173738,23.3876298 33.143125,23.0695968 33.4761311,22.9210459 C33.8091372,22.772495 34.1966032,22.8169775 34.4872808,23.0371295 C34.7779585,23.2572816 34.9257635,23.6182003 34.873,23.979 C34.6463543,26.428078 33.7217725,28.7607035 32.209,30.7 C32.1805396,30.7352977 32.1498077,30.7687019 32.117,30.8 C31.5846068,31.442825 30.9410501,31.9847675 30.217,32.4 C29.1150386,32.9404423 28.1993331,33.7973059 27.587,34.861 C27.565,34.903 27.544,34.945 27.523,34.987 C27.682,35 27.842,35.006 28.002,35.006 C32.965,35.006 37.002,29.174 37.002,22.006 C37.002,14.838 32.963,9 28,9 C23.037,9 19,14.832 19,22 C18.9598717,25.0644868 19.7717122,28.0798944 21.345,30.71 C22.0062039,29.9877132 22.7172841,29.3127216 23.473,28.69 C23.7468248,28.450863 24.1288606,28.3791716 24.470754,28.5027652 C24.8126475,28.6263588 25.0605324,28.925765 25.1181495,29.2847173 C25.1757665,29.6436697 25.0340378,30.0056144 24.748,30.23 C23.7572607,31.0435695 22.854347,31.9585488 22.054,32.96 C21.8644806,33.1998344 21.5756765,33.339816 21.27,33.34 C20.9681137,33.3193225 20.6860063,33.1823911 20.483,32.958 C18.1385192,29.792863 16.9132232,25.9379122 17,22 C17,13.729 21.935,7 28,7 C34.065,7 39,13.729 39,22 C39,30.271 34.065,37 28,37 Z" id="Shape" fill="#000000"/><path d="M31.44,31.06 C31.0315258,31.0632513 30.6621386,30.8177339 30.5069836,30.43986 C30.3518286,30.0619861 30.4421018,29.6277321 30.735,29.343 C31.9582649,27.7172105 32.7035513,25.7823058 32.887,23.756 C32.9638666,23.1738497 33.0016179,22.5872009 33,22 C33,16.424 30.088,13 28,13 C25.912,13 23,16.424 23,22 C22.9344134,24.4374155 23.6071702,26.8377282 24.93,28.886 C25.2470114,29.3385974 25.1370973,29.9624885 24.6845,30.2795 C24.2319026,30.5965114 23.6080115,30.4865973 23.291,30.034 C21.7327728,27.6491558 20.9339913,24.8480162 21,22 C21,15.42 24.619,11 28,11 C31.381,11 35,15.42 35,22 C35.0018296,22.668803 34.9587326,23.3369737 34.871,24 C34.6420621,26.441806 33.7182753,28.7668892 32.209,30.7 C32.0188672,30.9282708 31.7370825,31.0601857 31.44,31.06 Z" id="Shape" fill="#000000"/><path d="M49,9 L27.64,9 C27.0877153,9 26.64,8.55228475 26.64,8 C26.64,7.44771525 27.0877153,7 27.64,7 L49,7 C49.5522847,7 50,7.44771525 50,8 C50,8.55228475 49.5522847,9 49,9 Z" id="Shape" fill="#000000"/><path d="M49,37 L28,37 C27.4477153,37 27,36.5522847 27,36 C27,35.4477153 27.4477153,35 28,35 L49,35 C49.5522847,35 50,35.4477153 50,36 C50,36.5522847 49.5522847,37 49,37 Z" id="Shape" fill="#000000"/><path d="M49,37 C48.4477153,37 48,36.5522847 48,36 C48,35.4477153 48.4477153,35 49,35 C53.963,35 58,29.168 58,22 C58,14.832 53.963,9 49,9 C48.4477153,9 48,8.55228475 48,8 C48,7.44771525 48.4477153,7 49,7 C55.065,7 60,13.729 60,22 C60,30.271 55.065,37 49,37 Z" id="Shape" fill="#000000"/><path d="M45.959,21 C45.42271,21.0004732 44.981524,20.577817 44.959,20.042 C44.8569718,16.0417337 44.0052345,12.0961309 42.448,8.41 C40.629,4.335 38.1,2 35.5,2 C32.9,2 30.371,4.335 28.553,8.408 C28.4072357,8.7341835 28.098527,8.95782513 27.7431616,8.99468124 C27.3877963,9.03153735 27.0397626,8.87600862 26.8301616,8.58668123 C26.6205606,8.29735383 26.5812356,7.91818349 26.727,7.592 C28.881,2.767 32.079,0 35.5,0 C38.921,0 42.119,2.767 44.273,7.592 C45.9353709,11.5092513 46.8465271,15.7040977 46.959,19.958 C46.9703724,20.2234447 46.8756434,20.4825033 46.6957208,20.6779979 C46.5157983,20.8734924 46.2654747,20.9893503 46,21 L45.959,21 Z" id="Shape" fill="#000000"/><path d="M46,25 C44.7866133,25 43.6927044,24.2690735 43.2283614,23.1480503 C42.7640184,22.0270271 43.0206857,20.7366736 43.8786797,19.8786797 C44.7366736,19.0206857 46.0270271,18.7640184 47.1480503,19.2283614 C48.2690735,19.6927044 49,20.7866133 49,22 C49,23.6568542 47.6568542,25 46,25 Z M46,21 C45.4477153,21 45,21.4477153 45,22 C45,22.5522847 45.4477153,23 46,23 C46.5522847,23 47,22.5522847 47,22 C47,21.4477153 46.5522847,21 46,21 Z" id="Shape" fill="#000000"/><path d="M21,60 C9.028,60 0,56.346 0,51.5 C0,46.61 8.536,43.779 17,43.143 C17.5447028,43.1110817 18.0144407,43.5216973 18.0556423,44.0657766 C18.0968439,44.6098559 17.6942977,45.0865271 17.151,45.137 C7.665,45.851 2,48.933 2,51.5 C2,54.574 9.8,58 21,58 C32.2,58 40,54.574 40,51.5 C40,48.885 33.959,45.694 24.2,45.1 C23.6477153,45.0665868 23.2270868,44.5917847 23.2605,44.0395 C23.2939132,43.4872153 23.7687153,43.0665868 24.321,43.1 C34.73,43.738 42,47.191 42,51.5 C42,56.346 32.972,60 21,60 Z" id="Shape" fill="#000000"/><path d="M27,51 C26.8926115,51.0000777 26.7859116,50.9828571 26.684,50.949 C25.0856382,50.3797309 23.8769051,49.0501996 23.462,47.405 C23.0346929,45.2067147 23.1095566,42.9402949 23.681,40.775 L23.767,40.315 C24.0599438,38.6219434 24.5243337,36.9630732 25.153,35.364 C25.3606591,34.8520321 25.944032,34.605341 26.456,34.813 C26.9679679,35.0206591 27.214659,35.604032 27.007,36.116 C26.4296343,37.5901759 26.002797,39.1189502 25.733,40.679 L25.646,41.143 C25.1416007,43.0121757 25.0545436,44.9694236 25.391,46.876 C25.6366056,47.8731039 26.3561241,48.6860663 27.316,49.051 C27.781753,49.2057317 28.0663816,49.6755882 27.9878345,50.1600447 C27.9092874,50.6445013 27.4907827,51.0003557 27,51 Z" id="Shape" fill="#000000"/><path d="M31.44,31.06 L31.43,31.06 C30.8786982,31.0572435 30.4336248,30.6088195 30.4350031,30.0575125 C30.4363814,29.5062055 30.8836913,29.0600125 31.435,29.0600125 C31.9863087,29.0600125 32.4336186,29.5062055 32.4349969,30.0575125 C32.4363752,30.6088195 31.9913018,31.0572435 31.44,31.06 Z" id="Shape" fill="#000000"/><path d="M11.563,50.03 C11.3395062,50.030366 11.1161639,50.0183476 10.894,49.994 C10.345133,49.9352668 9.94766644,49.4429096 10.006,48.894 C10.0310794,48.629092 10.1619533,48.3854992 10.3690001,48.218356 C10.5760469,48.0512127 10.8417606,47.9746512 11.106,48.006 C12.8523044,48.1324143 14.5045147,47.2007316 15.3,45.641 C15.6385263,45.0661588 15.9144368,44.4566748 16.123,43.823 C16.5022221,42.6237725 16.7953012,41.3989893 17,40.158 C17.167,39.281 17.34,38.375 17.571,37.488 C18.1258049,35.3806644 19.1191168,33.4141453 20.486,31.717 C21.3725339,30.6061725 22.3733649,29.5915993 23.472,28.69 C25.9776725,26.8431185 28.8086395,25.4844579 31.817,24.685 C32.356,24.51 32.87,24.344 33.348,24.176 C33.8693568,23.9931938 34.4401937,24.2676432 34.623,24.789 C34.8058062,25.3103568 34.5313568,25.8811937 34.01,26.064 C33.518,26.236 32.988,26.408 32.433,26.587 C29.6653061,27.3186007 27.056776,28.555737 24.739,30.236 C23.7513923,31.0481419 22.8511885,31.9610813 22.053,32.96 C20.8599554,34.4396559 19.9924075,36.1543067 19.507,37.992 C19.292,38.815 19.133,39.649 18.965,40.533 C18.742383,41.8649475 18.4249085,43.1792921 18.015,44.466 C17.7615872,45.2303578 17.4280665,45.9657792 17.02,46.66 C15.9517193,48.6944763 13.8604717,49.9859377 11.563,50.03 Z" id="Shape" fill="#000000"/><path d="M18.373,56.205 C11.49,56.205 7.673,53.968 7.485,53.857 C7.01877519,53.5700605 6.8699373,52.9615751 7.15107371,52.4918282 C7.43221011,52.0220813 8.03880323,51.8657099 8.512,52.141 C8.56,52.169 13.384,54.951 21.89,54.006 C22.438971,53.9452487 22.9332487,54.341029 22.994,54.89 C23.0547513,55.438971 22.658971,55.9332487 22.11,55.994 C20.8691906,56.1333487 19.6216091,56.2037902 18.373,56.205 Z" id="Shape" fill="#000000"/></g></g></svg>
